<svg xmlns="http://www.w3.org/2000/svg" viewBox="0 0 1000 1200" class="cf-icon-svg"><path d="M500 105.2c-276.1 0-500 223.9-500 500s223.9 500 500 500 500-223.9 500-500-223.9-500-500-500zm65.7 842.1H434.3c-13.8 0-25-11.2-25-25s11.2-25 25-25H475V674.6c-33.9-13.8-50.2-52.5-36.4-86.4 13.8-33.9 52.5-50.2 86.4-36.4 33.9 13.8 50.2 52.5 36.4 86.4-6.7 16.6-19.9 29.7-36.4 36.4v222.7h40.7c13.8 0 25 11.2 25 25s-11.2 25-25 25zm49.1-194.4c-13.8 0-25-11.2-25-25 0-6.6 2.6-13 7.3-17.7 53.5-53.5 53.5-140.7 0-194.2-53.6-53.6-140.6-53.6-194.2 0-53.6 53.6-53.6 140.6 0 194.2 9.8 9.8 9.8 25.6 0 35.4-9.8 9.8-25.6 9.8-35.4 0-73.2-73.2-73.2-191.8 0-264.9s191.8-73.2 264.9 0c73 73 73 191.9 0 264.9-4.6 4.6-11 7.3-17.6 7.3zm112.5 87.5c-9.8 9.8-25.6 9.8-35.4 0-9.8-9.8-9.8-25.6 0-35.4 106-106 106-277.9 0-383.9s-277.9-106-383.9 0S202 699 308 805c9.8 9.8 9.8 25.6 0 35.4s-25.6 9.8-35.4 0c-125.5-125.5-125.5-329.1 0-454.6s329.1-125.5 454.6 0 125.6 329 .1 454.6z"/></svg>