<svg xmlns="http://www.w3.org/2000/svg" viewBox="0 0 1000 1200" class="cf-icon-svg"><circle cx="349.8" cy="736.7" r="26.7"/><circle cx="500.2" cy="736.7" r="26.7"/><circle cx="575.3" cy="736.7" r="26.7"/><circle cx="425" cy="736.7" r="26.7"/><path d="M500 105.2c-276.1 0-500 223.9-500 500s223.9 500 500 500 500-223.9 500-500-223.9-500-500-500zm26.4 214.3l113.9 105.9H526.4V319.5zM263 816.2V315.5c0-11 9-20 20-20l203.4.5v143c0 14.5 11.9 26.4 26.4 26.4h147.1v350.8c0 11-9 20-20 20H283c-11 0-20-9-20-20zm478.7-239.3v324.4c0 11-9 20-20 20H364.8c-11 0-20-9-20-20v-25.1h294.5c33.1 0 60-26.9 60-60V463.7c0-22-11.3-47.9-27.4-62.9l-21.7-20.1h71.4c11 0 20 9 20 20v176.2h.1z"/></svg>