<svg xmlns="http://www.w3.org/2000/svg" viewBox="0 0 686.6 1200" class="cf-icon-svg"><circle cx="135.3" cy="759.1" r="34.9"/><circle cx="331.6" cy="759.1" r="34.9"/><circle cx="429.7" cy="759.1" r="34.9"/><circle cx="233.4" cy="759.1" r="34.9"/><path d="M656.9 260.9h-138L411.3 153.3H29.7C13.4 153.3 0 166.7 0 183v719.4c0 16.3 13.4 29.7 29.7 29.7H115v77.9c0 16.3 13.4 29.7 29.7 29.7h512.2c16.3 0 29.7-13.4 29.7-29.7V290.6c0-16.3-13.4-29.7-29.7-29.7zM60 213.3h308v110.8c0 17.5 14.3 31.8 31.8 31.8h111.8V872H60V213.3zm566.6 766.3H175V932h366.9c16.3 0 29.7-13.4 29.7-29.7V320.9h55v658.7z"/></svg>