<svg xmlns="http://www.w3.org/2000/svg" viewBox="0 0 803.4 1200" class="cf-icon-svg"><path d="M413.5 264.8c-8.2-2.8-15.3-1.3-21.5 4.6-5.2 3.1-10.1 6.9-14.3 11.3L195 463.4H51.2c-14.3 0-26.4 4.9-36.3 14.6C5 487.8 0 499.8 0 514v182.9c0 6.7 1.3 13.3 3.9 19.4 2.6 6.1 6.3 11.6 11 16.3 4.7 4.7 10.2 8.5 16.3 11.2 6.3 2.8 13.1 4.3 20 4.2H196l181.8 181.9c4.4 4.6 9.5 8.5 15.1 11.7 1.4 1.3 2.8 2.5 4.4 3.6 2.3 1.7 5 2.6 7.9 2.5 5.7.1 11.2-2.5 14.6-7 3.3-3.9 5.3-8.8 5.6-13.9 1.4-5.7 2.1-11.6 2-17.5V301.2c.1-5.8-.6-11.7-2-17.4-.3-9.7-4.2-16-11.9-19zM775.8 463.1c-19-46.8-47.2-89.3-83-125-11.7-11.7-30.7-11.8-42.4-.1s-11.8 30.7-.1 42.4c124.1 124.2 124.1 325.5 0 449.6-11.7 11.7-11.7 30.7 0 42.4s30.7 11.7 42.4 0c107.3-107.3 140-268.5 83.1-409.3z"/><path d="M579.6 451.2c-11.7-11.7-30.7-11.7-42.4 0s-11.7 30.7 0 42.4c61.6 61.6 61.6 161.8 0 223.4-11.7 11.7-11.7 30.7 0 42.4s30.7 11.7 42.4 0c85.1-85.1 85.1-223.1 0-308.2z"/></svg>