<svg xmlns="http://www.w3.org/2000/svg" viewBox="0 0 890.9 1200" class="cf-icon-svg"><path d="M890.9 627c0-56.8-38.5-105.3-91.2-121.6L732 331c-10.4-26.9-40-47.1-68.8-47.1H227.7c-28.8 0-58.4 20.3-68.8 47.1L91.2 505.5C38.5 521.8 0 570.2 0 627c0 2.7.1 5.3.3 7.9-.2 1.3-.3 2.6-.3 3.9V807c0 16.5 13.5 30 30 30h42.4v93.3c0 16.5 13.5 30 30 30h61.7c16.5 0 30-13.5 30-30V837h502.6v93.3c0 16.5 13.5 30 30 30h61.7c16.5 0 30-13.5 30-30V837h42.4c16.5 0 30-13.5 30-30V638.9c0-1.3-.1-2.6-.3-3.9.3-2.6.4-5.3.4-8zM214.8 352.7c1.5-3.9 8.7-8.8 12.9-8.8h435.6c4.2 0 11.4 4.9 12.9 8.8l57 147H157.8l57-147zm-81.5 343.7c-38.1 0-69-30.9-69-69s30.9-69 69-69 69 30.9 69 69-30.9 69-69 69zm624.3 0c-38.1 0-69-30.9-69-69s30.9-69 69-69 69 30.9 69 69-30.9 69-69 69z"/></svg>