<svg xmlns="http://www.w3.org/2000/svg" viewBox="0 0 1000 1200" class="cf-icon-svg"><path d="M500 105.2c-276.1 0-500 223.9-500 500s223.9 500 500 500 500-223.9 500-500-223.9-500-500-500zm190.5 557c0-11 9-20 20-20h44.2c11 0 20 9 20 20v138.5h-84.2V662.2zM564.4 508c0-11 9-20 20-20h44.2c11 0 20 9 20 20v292.7h-84.2V508zM437.7 353.9c0-11 9-20 20-20H502c11 0 20 9 20 20v446.8h-84.3V353.9zM310.6 508c0-11 9-20 20-20h44.2c11 0 20 9 20 20v292.7h-84.2V508zm461.1 371.6H245.6c-11 0-20-9-20-20V333.5c0-11 9-20 20-20s20 9 20 20v506.1h506.1c11 0 20 9 20 20s-8.9 20-20 20z"/></svg>