<svg xmlns="http://www.w3.org/2000/svg" viewBox="0 0 984.4 1200" class="cf-icon-svg"><path d="M981.4 555.2l-.2-1.5-.3-1.5c-.2-.9-.4-1.8-.5-2.8-.2-1.2-.5-2.4-.7-3.6-.2-1-.4-1.9-.6-2.9l-.9-4.2c-.1-.6-.3-1.2-.4-1.8-.4-1.7-.8-3.5-1.2-5.2l-.1-.4c-7.2-28.5-17.8-53.3-31.7-74.4-17.4-26.4-37.8-47.6-60.9-63.4-22.8-15.7-48.6-26.6-75.7-32-26.9-5.5-54.5-6.2-81.6-2-26.3 3.8-51.5 13.1-74 27.2-21.8 13.6-40.7 31.2-55.8 52-15 20.8-26 44.3-32.4 69.2-6.7 25.8-7.7 52.6-3.1 78.8 6.9 45.8 29.7 87.7 64.4 118.3 16.7 14.7 35.8 26.4 56.4 34.8.5.2 1.1.4 1.6.5 55.1 21.7 117 17 168.2-12.7-8.5 15.2-18.7 29.5-30.2 42.7-24.3 27.7-55.1 51.2-91.5 69.8-27.5 14.1-58.1 24.6-91 31.2-26.9 6.2-43.7 33-37.5 59.9 5.9 25.9 31.1 42.6 57.2 38.1 41.9-8.4 81.2-22 116.9-40.2 47.7-24.4 88.5-55.7 121.2-92.9 32.7-37.4 57.3-81.2 71.9-128.7 14.9-47.7 19.1-99 12.5-152.3zM422.7 553.7l-.3-1.5c-.2-.9-.4-1.8-.5-2.8-.2-1.2-.5-2.4-.7-3.6-.2-1-.4-1.9-.6-2.9l-.9-4.2c-.1-.6-.3-1.2-.4-1.8-.4-1.7-.8-3.5-1.2-5.2l-.1-.4c-7.2-28.5-17.8-53.3-31.7-74.4-17.4-26.4-37.7-47.5-60.9-63.3-22.8-15.7-48.6-26.6-75.7-32-26.9-5.5-54.5-6.2-81.6-2-26.3 3.8-51.5 13.1-74 27.2-21.8 13.6-40.7 31.2-55.8 52-15 20.8-26 44.3-32.4 69.2-6.7 25.8-7.7 52.6-3.1 78.8 6.9 45.8 29.7 87.6 64.4 118.3 16.7 14.7 35.8 26.4 56.4 34.8.5.2 1.1.4 1.6.5 55.1 21.7 117 17 168.2-12.7-8.5 15.2-18.7 29.5-30.2 42.7-24.3 27.7-55.1 51.2-91.5 69.8-27.5 14.1-58.1 24.6-91 31.2-26.9 6.2-43.7 33-37.5 59.9 5.9 25.9 31.1 42.6 57.2 38.1 41.9-8.4 81.2-22 116.9-40.2 47.7-24.4 88.5-55.7 121.2-92.9 32.7-37.4 57.3-81.2 71.9-128.7 14.9-47.7 19.1-99 12.6-152.4l-.3-1.5z"/></svg>