<svg xmlns="http://www.w3.org/2000/svg" viewBox="0 0 1000 1200" class="cf-icon-svg"><path d="M500 105.2c-276.1 0-500 223.9-500 500s223.9 500 500 500 500-223.9 500-500-223.9-500-500-500zM441.3 636c-10.5 34-28.1 65.5-51.6 92.3-23.4 26.7-52.6 49.1-86.9 66.6-26.5 13.4-54.7 23.1-83.8 28.8-19.5 3.5-38.1-9.4-41.7-28.9-3.4-18.9 8.7-37.2 27.5-41.4 22.7-4.4 44.6-11.9 65.3-22.3 26.1-13.4 48.2-30.2 65.6-50.1 8.3-9.4 15.5-19.7 21.6-30.6-36.7 21.3-81.1 24.7-120.6 9.1-.4-.1-.8-.2-1.1-.3-14.8-6-28.5-14.4-40.5-24.9-24.9-22-41.2-52-46.1-84.9-3.3-18.8-2.6-38 2.2-56.5 4.6-17.8 12.4-34.6 23.2-49.6 10.8-14.9 24.4-27.5 40-37.3 16.1-10.1 34.2-16.7 53-19.5 19.4-3 39.2-2.5 58.5 1.4 19.5 3.9 37.9 11.7 54.3 23 16.6 11.3 31.2 26.5 43.7 45.4 10 15.1 17.6 32.9 22.7 53.4l.1.3c.3 1.2.6 2.5.9 3.7.1.4.2.8.3 1.3l.6 3c.1.7.3 1.4.4 2 .2.8.3 1.7.5 2.6.1.7.3 1.3.4 2l.2 1.1.1 1.1c4.9 38.2 1.9 75-8.8 109.2zm400.4 0c-10.5 34-28.1 65.5-51.6 92.3-23.4 26.7-52.6 49.1-86.8 66.6-26.5 13.4-54.7 23.1-83.8 28.8-19.3 4.3-38.5-7.9-42.8-27.3-4.3-19.3 7.9-38.5 27.3-42.8.5-.1.9-.2 1.4-.3 22.7-4.4 44.6-11.9 65.3-22.3 26.1-13.4 48.2-30.2 65.6-50.1 8.3-9.4 15.5-19.7 21.6-30.6-36.7 21.3-81.1 24.7-120.6 9.1l-1.2-.3c-14.8-6-28.5-14.4-40.5-24.9-24.9-22-41.2-52-46.2-84.9-3.3-18.8-2.6-38 2.2-56.5 4.6-17.8 12.5-34.7 23.2-49.6 10.8-14.9 24.4-27.5 40-37.3 16.1-10.1 34.2-16.7 53-19.5 19.4-3 39.2-2.5 58.5 1.5 19.5 3.9 37.9 11.7 54.3 23 16.6 11.3 31.2 26.5 43.7 45.4 10 15.1 17.6 32.9 22.7 53.4l.1.3c.3 1.2.6 2.5.9 3.7.1.4.2.8.3 1.3.2 1 .4 2 .7 3 .2.7.3 1.4.4 2 .2.8.3 1.7.5 2.6.1.7.3 1.3.4 2l.2 1.1.1 1.1c4.8 38.2 1.8 75-8.9 109.2z"/></svg>