<svg xmlns="http://www.w3.org/2000/svg" viewBox="0 0 1000 1200" class="cf-icon-svg"><path d="M500 105.2c-276.1 0-500 223.9-500 500s223.9 500 500 500 500-223.9 500-500-223.9-500-500-500zm219.3 618c0 63.7-98 115.3-219 115.3s-219-51.6-219-115.3v-98.8L461.6 701c14 6 28.8 7.2 38.7 7.2s24.7-1.3 38.7-7.2l180.3-76.5v98.7zM846.5 527l-31 13.1v130.3c13.7 6 22.6 19.5 22.5 34.4v49.9h-75v-49.9c0-14.9 8.9-28.5 22.5-34.4V552.8L719.3 581l-57.1 24.2-138.8 58.9c-12.7 5.4-33.4 5.4-46.1 0l-138.5-58.8-57.4-24.3-127.2-54c-12.7-5.4-12.7-14.2 0-19.5l323.1-137.2c12.7-5.4 33.4-5.4 46.1 0l323.2 137.1c12.6 5.4 12.6 14.2-.1 19.6z"/></svg>