<svg xmlns="http://www.w3.org/2000/svg" viewBox="0 0 1000 1200" class="cf-icon-svg"><circle cx="501.4" cy="671" r="31.8"/><path d="M500 105.2c-276.1 0-500 223.9-500 500s223.9 500 500 500 500-223.9 500-500-223.9-500-500-500zm295.6 622.6c-.1 27.6-22.4 49.9-50 50H552.3L511 844c-5.8 9.3-15.4 9.3-21.2 0l-41.3-66.3H257.1c-27.6-.1-49.9-22.4-50-50V400.1c.1-27.6 22.4-49.9 50-50h488.5c27.6.1 49.9 22.4 50 50v327.7z"/><path d="M501.4 615.3c13.8 0 25-11.2 25-25V444.6c0-13.8-11.2-25-25-25s-25 11.2-25 25v145.7c0 13.8 11.2 25 25 25z"/></svg>