<svg xmlns="http://www.w3.org/2000/svg" viewBox="0 0 1000 1200" class="cf-icon-svg"><path d="M500 105.2c-276.1 0-500 223.9-500 500s223.9 500 500 500 500-223.9 500-500-223.9-500-500-500zm200.6 833c0 11-9 20-20 20H317.2c-11 0-20-9-20-20v-52.4c0-11 9-20 20-20h363.4c11 0 20 9 20 20v52.4zm32.5-295.7l-.4.7L639.8 804c-5.8 10.1-20.2 18.4-31.8 18.4H390.8c-11.7 0-26-8.3-31.9-18.4l-93.4-161.8-.4-.7c-5.8-10.1-5.4-22.1 1-26.6l5.6-4.4.9-.7c90.2-71 141.9-196 156.5-342.5v-.3c0-13.8 11.2-25 25-25s25 11.2 25 25v319c-31.2 11-47.6 45.3-36.6 76.6s45.3 47.6 76.6 36.6 47.6-45.3 36.6-76.6c-6-17.1-19.5-30.5-36.6-36.6V267c0-13.8 11.2-25 25-25s25 11.2 25 25v.3c14.6 147.2 65.6 272.6 156.5 343.5l6.4 5c6.5 4.6 6.9 16.5 1.1 26.7z"/></svg>