<svg xmlns="http://www.w3.org/2000/svg" viewBox="0 0 759.7 1200" class="cf-icon-svg"><path d="M257.3 768.2c-27.1 0-49-22-49.1-49.1 0-13.8-11.2-25-25-25s-25 11.2-25 25c0 54.7 44.4 99.1 99.1 99.1s99.1-44.4 99.1-99.1c0-39.4-23.4-75.1-59.5-90.8l53.5-53.5c9.8-9.8 9.8-25.6 0-35.4-4.7-4.7-11.1-7.3-17.7-7.3H183.2c-13.8 0-25 11.2-25 25s11.2 25 25 25h89L227 627.3c-9.8 9.8-9.8 25.6 0 35.4 4.7 4.7 11.1 7.3 17.7 7.3h12.5c27.1 0 49.1 22 49.1 49.1s-21.9 49.1-49 49.1zM504.2 818.5c54.8-.1 99.2-44.5 99.3-99.3v-87.9c0-54.8-44.4-99.3-99.3-99.3-54.8 0-99.3 44.4-99.3 99.3v87.9c.1 54.9 44.5 99.3 99.3 99.3zm-49.3-187.1c0-27.2 22.1-49.3 49.3-49.3 27.2 0 49.3 22.1 49.3 49.3v87.9c0 27.2-22.1 49.3-49.3 49.3-27.2 0-49.3-22.1-49.3-49.3v-87.9z"/><path d="M729.7 200.1H30c-16.5 0-30 13.5-30 30v699.7c0 16.5 13.5 30 30 30h699.7c16.5 0 30-13.5 30-30V230.1c0-16.6-13.4-30-30-30zm-30 699.7H60V450.1h639.7v449.7z"/></svg>