<svg xmlns="http://www.w3.org/2000/svg" viewBox="0 0 1000 1200" class="cf-icon-svg"><path d="M545.3 543.2c-8.3-3.3-17.1-5.2-26-5.4-7.6-.1-15.3.8-22.7 2.8-6.4 1.7-12.6 4-18.5 7-3.5 1.8-7.1 3.3-10.8 4.4-4 1.3-8.2 1.9-12.5 2h-.1c-3.8 0-7.6-.8-11.2-2.4-3.6-1.5-6.5-4.1-8.5-7.5-2.6-5.1-1.8-11.2 2.2-18 4.3-7.2 12.3-14.3 20.8-18.6 3-1.2 6.1-2.2 9.2-2.9l1.2-.3c4-.9 8-1.5 12.1-1.6 3.8-.2 7.5.3 11.1 1.5 10.6 3.2 21.7-2.8 24.9-13.4 3.1-10.2-2.4-21-12.5-24.6-8.2-2.6-16.7-3.8-25.3-3.4-6.8.2-13.5 1.2-20.1 2.8l-8.5-16.9c-4.7-10-16.6-14.3-26.6-9.7-10 4.7-14.3 16.6-9.7 26.6.2.4.4.7.6 1.1l8.3 16.4c-7.8 6.3-14.5 13.9-19.8 22.5-11.1 18.5-12.4 39.1-3.6 56.5 6 11.6 15.8 20.8 27.8 26 8.7 3.9 18.2 5.9 27.8 5.9 8.2-.1 16.4-1.3 24.2-3.8 5.8-1.8 11.5-4.1 16.9-6.9 3.3-1.7 6.8-3 10.5-4 3.9-1 8-1.5 12-1.5 4 .1 7.9 1 11.6 2.5 3.5 1.4 6.5 4.1 8.2 7.5 1.1 2.2 3.5 6.8-2.1 16.3-3.4 5.8-10.8 14-21.2 19.2-3.7 1.6-7.5 3-11.4 4.1-3.8 1-7.7 1.6-11.6 1.8-3.6.2-7.3-.5-10.6-2-10.3-4.1-21.9 1-26 11.2-4 10.1.8 21.5 10.8 25.8 7.7 3.3 16 5 24.4 5.1 1.6 0 3.3-.1 4.9-.2 6.6-.4 13.1-1.5 19.5-3.3l8.5 16.8c5.2 9.8 17.3 13.4 27.1 8.3 9.4-5 13.3-16.6 8.7-26.3l-8.6-17c8-6.5 14.9-14.4 20.2-23.3 10.8-18.5 11.9-37.3 3.2-54.5-6-12-16.3-21.5-28.8-26.6z"/><path d="M500 105.2c-276.1 0-500 223.9-500 500s223.9 500 500 500 500-223.9 500-500-223.9-500-500-500zm316.4 595.7c-3.2 10.6-14.4 16.5-25 13.3-10.6-3.2-16.5-14.4-13.3-25 .1-.2.1-.4.2-.6l23-71.2-373.3 191c-5.9 3-12.9 2.9-18.7-.2L277 735.9 175.1 788c-9.8 5-21.9 1.1-26.9-8.7s-1.1-21.9 8.7-26.9l111.3-57c5.9-3 12.9-2.9 18.7.2L419.2 768l74.6-38.2c-90.5 3.8-166.9-66.5-170.7-157-3.8-90.5 66.5-166.9 157-170.7 90.5-3.8 166.9 66.5 170.7 157 1.6 39.1-10.8 77.5-35 108.3L782.6 582l-70.4-22.7c-10.5-3.6-16-14.9-12.5-25.4 3.5-10.2 14.5-15.8 24.8-12.7L841.2 559c10.5 3.4 16.3 14.7 12.9 25.2l-37.7 116.7z"/></svg>