<svg xmlns="http://www.w3.org/2000/svg" viewBox="0 0 1000 1200" class="cf-icon-svg"><path d="M500 105.2c-276.1 0-500 223.9-500 500s223.9 500 500 500 500-223.9 500-500-223.9-500-500-500zm-347.3 501V586c0-11 9-20 20-20h195.7c.7 0 1.3 0 2 .1-12.3 17.9-20 38.5-22.4 60.1H172.7c-11-.1-19.9-9-20-20zm26.5 87.8v-20.2c0-11 9-20 20-20h148.5c2 21.5 9.1 42.1 20.8 60.2H199.2c-11 0-19.9-9-20-20zm673.7 25.1c0 11-9 20-20 20h-48.4c-20.2 38-61 62.7-113.6 62.7H267c-11 0-20-9-20-20v-20.2c0-11 9-20 20-20h125.4c55.3 49 139.9 43.8 188.9-11.5s43.8-139.9-11.5-188.9c-49.4-43.7-123.2-44.9-174-2.9H199.2c-11 0-20-9-20-20v-20.2c0-11 9-20 20-20h345.5c8.7 0 15.8-7.1 15.9-15.8 0-8.7-7.1-15.8-15.8-15.9h-104c-11 0-20-9-20-20v-25.6c0-11 9-20 20-20h113.7c.4 0 .8 0 1.1.1v-.1h9.4c82.5 0 166.3 60.8 195.2 138.4H833c11 0 20 9 20 20v179.9zM496.8 559.5c5.4 1.2 10.6 3 15.6 5.3 6.2 2.8 11.9 6.7 16.8 11.5 6.1 5.6 6.5 15.1.9 21.2s-15.1 6.5-21.2.9l-.9-.9c-2.3-2.3-5-4.1-7.9-5.4-3.1-1.4-6.3-2.6-9.6-3.4l-1-.2c-2.6-.7-5.3-1.1-8-1.3-8.2 0-16.6 2.3-22.7 6.1-7.3 4.6-8.8 9.8-8.8 13.3.2 3.4 1.4 6.7 3.7 9.4 2.1 2.6 4.8 4.7 7.8 6.2 3.2 1.6 6.6 2.7 10.2 3.3 3.2.5 6.4.8 9.7.8 5.3 0 10.5.6 15.7 1.7 6 1.3 11.7 3.4 17.2 6.2 6.3 3.4 11.9 7.8 16.5 13.2 7 8 10.9 18.4 10.9 29.1 0 15.2-7.5 28.1-21.8 37.4-7.3 4.6-15.4 7.9-23.8 9.6V740c0 8.3-6.7 15-15 15s-15-6.7-15-15v-16.4l-.9-.2c-5.3-1-10.4-2.6-15.4-4.7-7.4-3-13.9-7.8-19-13.9-5.3-6.4-4.5-15.8 1.9-21.1 6.2-5.2 15.4-4.5 20.8 1.5 2 2.5 4.6 4.4 7.5 5.7 3 1.3 6.2 2.3 9.4 3 3.3.6 6.6 1.1 10 1.2 8.2 0 16.2-2.2 23.1-6.4 7.2-4.7 8.1-9 8.1-12.2 0-3.4-1.3-6.7-3.5-9.3-2.3-2.6-4.9-4.7-7.9-6.4-3-1.6-6.2-2.7-9.6-3.4-3.1-.6-6.2-1-9.4-1-4.9 0-9.8-.4-14.6-1.2-6.5-1.1-12.8-3.1-18.7-6-6.8-3.4-12.8-8.2-17.6-14.2-6.6-8-10.3-18-10.4-28.3 0-15.4 8.3-29.5 22.8-38.7 7.1-4.4 15-7.5 23.3-9.1v-16c0-8.3 6.7-15 15-15s15 6.7 15 15v16.4l.8.2z"/></svg>