<svg xmlns="http://www.w3.org/2000/svg" viewBox="0 0 1000 1200" class="cf-icon-svg"><path d="M500 105.2c-276.1 0-500 223.9-500 500s223.9 500 500 500 500-223.9 500-500-223.9-500-500-500zm124.2 730.9c-21.5 14-47 24.3-73.9 30.2v50c0 27.6-22.4 50-50 50s-50-22.4-50-50v-49.5l-.4-.1c-18.9-3.3-35.1-9.4-48.9-15-22.7-9-43.2-24.1-61.1-44.7-17.9-21-15.3-52.6 5.7-70.5 20.8-17.7 51.9-15.4 69.9 5 7.3 8.4 14.9 14.2 22.5 17.3h.1c9.5 3.8 19.5 7.7 29 9.3 6 1 21.6 3.8 31.2 3.8 30.2 0 56.7-10.2 71.5-19.8 24.3-15.8 24.3-30.1 24.3-36.2-.1-10.1-3.8-19.9-10.4-27.6-6.9-7.8-15.1-14.4-24.2-19.4-9.3-4.8-19.2-8.3-29.5-10.5-9.5-2-19.3-3-29-3-15.6.1-31.1-1.2-46.5-3.7-20.7-3.4-40.8-9.9-59.5-19.2-21.8-10.9-41-26.4-56.4-45.3-21.5-26.5-33.4-58.8-33.4-91 0-49.6 26.7-94.9 73.2-124.2 21-13.2 45.8-23 72-28.7v-48.2c0-27.6 22.4-50 50-50s50 22.4 50 50v49.6l.5.1h.1c15.6 3.4 31.8 8.9 49.6 17 19.9 9 38.1 21.5 53.7 36.9 19.5 19.6 19.4 51.2-.2 70.7-19.5 19.4-50.9 19.4-70.4.1-7-6.9-15.1-12.5-24.1-16.5-11.2-5-21.3-8.6-29.9-10.4l-3-.7c-10.3-2.2-19.1-4.2-24.7-4.2-25.2 0-51.4 7-70 18.8-22 13.9-26.6 29.2-26.6 39.7 0 9 4.1 19.4 11 27.9l.1.1c6.4 7.8 14.4 14.2 23.5 18.8l.1.1c9.9 4.8 20.3 8.2 31.2 10 9.9 1.6 20 2.4 30 2.3 16.9 0 33.7 1.7 50.2 5.2h.2c19 4.2 37.4 10.9 54.6 19.9l.2.1c19.9 10.8 37.8 25 52.8 42l.1.1c22.6 25.8 35 59 35 93.3-.4 48.9-24.5 90.5-70.2 120.1z"/></svg>