<svg xmlns="http://www.w3.org/2000/svg" viewBox="0 0 1000 1200" class="cf-icon-svg"><path d="M626.8 693.1c-9.8-9.8-25.6-9.8-35.4 0L525.6 759V530.7c0-13.8-11.2-25-25-25s-25 11.2-25 25V759l-65.8-65.8c-9.8-9.8-25.6-9.8-35.4 0s-9.8 25.6 0 35.4L483 837c4.9 4.9 11.3 7.3 17.7 7.3s12.8-2.4 17.7-7.3l108.5-108.5c9.7-9.8 9.7-25.6-.1-35.4z"/><path d="M500 105.2c-276.1 0-500 223.9-500 500s223.9 500 500 500 500-223.9 500-500-223.9-500-500-500zm230.8 794.5c0 11-9 20-20 20H290.3c-11 0-20-9-20-20V312.4c0-11 9-20 20-20l239.2.2v166.3c0 16.8 13.8 30.6 30.6 30.6h171.3l-.6 410.2zm.6-456.5H575.8V292.7l155.5 150.1v.4h.1z"/></svg>