<svg xmlns="http://www.w3.org/2000/svg" viewBox="0 0 1000 1200" class="cf-icon-svg"><path d="M500 105.2c-276.1 0-500 223.9-500 500s223.9 500 500 500 500-223.9 500-500-223.9-500-500-500zm108.2 214.3l113.9 105.9H608.2V319.5zm31.6 188.3h-114V401.9l114 105.9zm-295-192.3c0-11 9-20 20-20l203.4.5v90.6l-26.4-24.5c-15.4-14.3-40.9-24.3-61.9-24.3H344.8v-22.3zm314.6 583c0 11-9 20-20 20H282.5c-11 0-20-9-20-20V397.8c0-11 9-20 20-20l203.4.5v143c0 14.5 11.9 26.4 26.4 26.4h147.1v350.8zm82.3-82.3c0 11-9 20-20 20h-22.3V546c0-22-11.3-47.9-27.4-62.9l-19-17.7h88.8l-.1 350.8z"/></svg>