<svg xmlns="http://www.w3.org/2000/svg" viewBox="0 0 1000 1200" class="cf-icon-svg"><path d="M500 105.2c-276.1 0-500 223.9-500 500s223.9 500 500 500 500-223.9 500-500-223.9-500-500-500zM168.6 500.4c.1-27.6 22.4-49.9 50-50h323.2c-13.2 20.7-27.2 35.2-40 45.2l-.5.4-3.4 2.6c-11.7 8.8-18.3 22.2-19.1 36.7H168.6v-34.9zm559.3 336.8H218.6c-27.6-.1-49.9-22.4-50-50V585.4h327.9l48 83c-24.6 7.7-41.4 30.5-41.5 56.3V749c0 32.6 26.4 59 59 59h211.3c-8.2 17.8-25.9 29.1-45.4 29.2zm87.5-89.1c0 11-9 20-20 20H562c-10.5 0-19-8.5-19-19v-24.3c0-10.5 8.5-19 19-19h233.4c11 0 20 9 20 20v22.3zm21.9-199l-.3.5-62.7 108.7c-3.9 6.8-13.6 12.4-21.5 12.4H606.2c-7.9 0-17.6-5.6-21.5-12.4l-63-109.3-.3-.5c-3.9-6.8-3.7-14.9.7-17.9l3.8-3 .6-.5c61-48 93.2-132.4 103-231.4-.2-8.3 6.4-15.1 14.7-15.3 8.3-.2 15.1 6.4 15.3 14.7v219c-19.4 11-26.3 35.8-15.2 55.2s35.8 26.3 55.2 15.2 26.3-35.8 15.2-55.2c-3.6-6.3-8.9-11.6-15.2-15.2V295.2c.2-8.3 7-14.9 15.3-14.7 8.3.2 14.9 7 14.7 15.3 9.8 99.4 41.6 184.2 103 232.1l4.3 3.4c4.2 3 4.5 11 .5 17.8z"/><path d="M277.5 706.5h176.9v40H277.5z"/></svg>