<svg xmlns="http://www.w3.org/2000/svg" viewBox="0 0 978.3 1200" class="cf-icon-svg"><path d="M495.5 833.4V798c.1-37.9 27.4-70.3 64.8-76.6l-76.9-133.3H0v303.2c.1 38.6 31.4 69.9 70 70h747.6c31-.1 58.3-20.5 67.1-50.2H573.2c-42.9-.1-77.7-34.8-77.7-77.7zm-79.1-8.4H158.7v-50h257.7v50zM484.7 475.2l5-3.9.8-.6c24.6-19.4 46.6-43.8 65.6-72.8H70c-38.6.1-69.9 31.4-70 70v60.2h459.9c-.3-20.9 8.3-40.5 24.8-52.9z"/><path d="M914.6 770.2H573.2c-.9 0-1.9 0-2.8.1-1.3.1-2.6.4-3.8.7l-.5.1c-.8.2-1.5.5-2.3.7-.4.2-.8.3-1.3.5s-1.1.5-1.6.8c-2.1 1.1-4.1 2.4-6 4l-1.2 1.2c-5.2 5.2-8.2 12.3-8.1 19.6v35.4c.1 15.3 12.4 27.6 27.7 27.7h341.4c15.3 0 27.7-12.4 27.7-27.7V798c-.1-15.3-12.5-27.7-27.8-27.8zM973.3 516l-6.3-4.9c-85.1-66.3-140.2-181.4-157.7-317.2V173c0-11-9-20-20-20s-20 9-20 20h-.1v315.9c29.5 13.8 42.2 48.9 28.4 78.4-13.8 29.5-48.9 42.2-78.4 28.4s-42.2-48.9-28.4-78.4c5.9-12.5 15.9-22.6 28.4-28.4v-316h-.2c0-11-9-20-20-20s-20 9-20 20v11c-16 139.4-71.1 258-157.7 326.1l-.8.7-5.6 4.3c-6.3 4.4-6.7 16.2-1 26.1l.4.7L606.2 701c5.7 10 19.8 18.1 31.3 18.1h213.6c11.5 0 25.6-8.1 31.3-18.1l91.3-158.2.4-.7c5.9-9.9 5.4-21.7-.8-26.1z"/></svg>