<svg xmlns="http://www.w3.org/2000/svg" viewBox="0 0 1000 1200" class="cf-icon-svg"><path d="M0 105.2v1000h350.5c25.6 0 35-15.1 35-28.7 0-12.2-.4-44.4-.7-87.1-142.6 31-172.7-68.7-172.7-68.7-23.3-59.2-56.9-75-56.9-75-46.5-31.8 3.5-31.2 3.5-31.2 51.4 3.6 78.5 52.8 78.5 52.8 45.7 78.4 119.9 55.8 149.1 42.7 4.7-33.1 17.9-55.7 32.6-68.5-113.8-12.9-233.4-56.9-233.4-253.3 0-55.9 20-101.7 52.7-137.5-5.2-13-22.9-65.1 5-135.6 0 0 43-13.8 140.9 52.5 40.9-11.4 84.7-17.1 128.3-17.3 43.5.2 87.3 5.9 128.3 17.3 97.9-66.3 140.8-52.6 140.8-52.6 28 70.5 10.3 122.6 5.1 135.6 32.8 35.8 52.7 81.6 52.7 137.5 0 196.9-119.8 240.2-234 252.9 18.4 15.8 34.8 47.1 34.8 94.9 0 68.5-.6 123.8-.6 140.6 0 13.7 8.4 28.7 35.2 28.7H1000v-1000H0z"/></svg>