<svg xmlns="http://www.w3.org/2000/svg" viewBox="0 0 896.9 1200" class="cf-icon-svg"><path d="M448.5 790.2c-12.4 0-30.9-1.6-48.6-9.1l-227.5-96.5v125.1c0 80.3 123.6 145.4 276.1 145.4s276-65.1 276-145.4V684.6L497 781.1c-17.6 7.5-36.1 9.1-48.5 9.1z"/><path d="M884.9 537.5L477.5 364.6c-16-6.8-42.1-6.8-58.1 0L12 537.5c-16 6.8-16 17.9 0 24.7l160.4 68.1 56.8 24.1 190.2 80.7c5 2 10.1 3.4 15.4 4.1 3.2.5 6.4.8 9.7.9 1.3.1 2.6.1 3.9.1 1.3 0 2.6 0 3.9-.1 3.2-.1 6.5-.4 9.7-.9 5.3-.7 10.5-2.1 15.5-4.1L806 595.7V744c-16.1 8-26.3 24.4-26.3 42.4v62.9h94.7v-62.9c0-18-10.2-34.4-26.3-42.4V577.9l36.9-15.7c15.9-6.8 15.9-17.9-.1-24.7z"/></svg>