<svg xmlns="http://www.w3.org/2000/svg" viewBox="0 0 788.5 1200" class="cf-icon-svg"><path d="M412.7 230.5c0-16.5-13.5-30-30-30h-56.6c-16.5 0-30 13.5-30 30v616.4h116.6V230.5z"/><path d="M758.5 898.6H60V200.1c0-16.6-13.4-30-30-30s-30 13.4-30 30v728.5c0 16.6 13.4 30 30 30h728.5c16.6 0 30-13.4 30-30s-13.5-30-30-30z"/><path d="M236.7 444c0-16.5-13.5-30-30-30h-56.6c-16.5 0-30 13.5-30 30v402.9h116.6V444zM588 444c0-16.5-13.5-30-30-30h-56.6c-16.5 0-30 13.5-30 30v402.9H588V444zM762.6 657.5c0-16.5-13.5-30-30-30H676c-16.5 0-30 13.5-30 30v189.4h116.6V657.5z"/></svg>