<svg xmlns="http://www.w3.org/2000/svg" viewBox="0 0 1000 1200" class="cf-icon-svg"><path d="M339.5 617.5h104v105.3h-104zM554.1 617.5h104v105.3h-104z"/><path d="M500 105.2c-276.1 0-500 223.9-500 500s223.9 500 500 500 500-223.9 500-500-223.9-500-500-500zm259.2 756c0 11-9 20-20 20h-481c-11 0-20-9-20-20v-282l259.6-148.8 261.3 148.8v282zm64.5-331.6c-6.8 12-22.1 16.2-34.1 9.4L497.8 372.9 208 538.9c-11.9 7-27.2 2.9-34.2-9-7-11.9-2.9-27.2 9-34.2.1-.1.2-.1.3-.2l55.1-31.6V349.4c0-11 9-20 20-20h61.1c11 0 20 9 20 20V406l145.9-83.6c7.7-4.4 17.1-4.4 24.8 0l304.2 173.1c12.1 6.8 16.3 22.1 9.5 34.1z"/></svg>