<svg xmlns="http://www.w3.org/2000/svg" viewBox="0 0 543.9 1200" class="cf-icon-svg"><path d="M303.8 662.3c.3-.4.6-.8.8-1.2v1.2h-.8zm-180.4-50.8H6.8v350.7h116.6V611.5zm7.7-108.6c-.8-34.4-25.3-60.6-65.2-60.6S0 468.5 0 502.9c0 33.7 25.3 60.7 64.4 60.7h.8c40.6 0 65.9-27 65.9-60.7zm412.8 258.2c0-107.7-57.5-157.9-134.2-157.9-61.9 0-89.6 34-105.1 57.9v-49.7H187.9c1.6 32.8 0 350.8 0 350.8h116.7V766.3c0-10.5.7-21 3.8-28.4 8.4-20.9 27.6-42.6 59.8-42.6 42.3 0 59.1 32.2 59.1 79.3v187.7h116.5V761.1z"/></svg>