<svg xmlns="http://www.w3.org/2000/svg" viewBox="0 0 1000 1200" class="cf-icon-svg"><path d="M499.5 638.6c-27.6 0-49.9 22.3-49.9 49.9 0 19.8 11.7 37.8 29.9 45.7v82.6c0 11 8.9 20 20 20 11 0 20-8.9 20-20v-82.6c25.3-11 36.8-40.5 25.7-65.7-7.9-18.2-25.9-29.9-45.7-29.9zM499.5 359.4c-54.8.1-99.1 44.4-99.2 99.2v79.7h198.4v-79.7c-.1-54.7-44.5-99.1-99.2-99.2z"/><path d="M500 105.2c-276.1 0-500 223.9-500 500s223.9 500 500 500 500-223.9 500-500-223.9-500-500-500zm232.8 785.7c0 16.5-13.5 30-30 30H296.1c-16.5 0-30-13.5-30-30V568.3c0-16.5 13.5-30 30-30h34.2v-79.7c0-93.3 75.9-169.2 169.2-169.2s169.2 75.9 169.2 169.2v79.7h34.2c16.5 0 30 13.5 30 30v322.6z"/></svg>