<svg xmlns="http://www.w3.org/2000/svg" viewBox="0 0 654.5 1200" class="cf-icon-svg"><path d="M604.5 513.8h-39.1V402.1c0-131.6-106.6-238.2-238.2-238.2S89.1 270.6 89.1 402.1v111.7H50c-27.6.1-49.9 22.4-50 50v436.5c.1 27.6 22.4 49.9 50 50h554.5c27.6-.1 49.9-22.4 50-50V563.8c0-27.6-22.4-49.9-50-50zm-252.2 276v114.6c0 13.8-11.2 25-25 25s-25-11.2-25-25V789.8c-36.1-13.8-54.2-54.3-40.4-90.4s54.3-54.2 90.4-40.4 54.2 54.3 40.4 90.4c-7.2 18.6-21.8 33.3-40.4 40.4zm113.2-276H189.1V402.1c0-76.2 62-138.2 138.2-138.2s138.2 62 138.2 138.2v111.7z"/></svg>