<svg xmlns="http://www.w3.org/2000/svg" viewBox="0 0 1000 1200" class="cf-icon-svg"><path d="M330.9 770.3L469 804.8l14.6-58.4-138.1-34.7-14.6 58.6z"/><path d="M500 105.2c-276.1 0-500 223.9-500 500s223.9 500 500 500 500-223.9 500-500-223.9-500-500-500zm317.1 674.9c0 27.5-21.8 44.5-48.5 37.8l-246.2-61.8-14.6 58.4c-5.3 21.4-27 34.5-48.4 29.1h-.1l-138.2-34.5c-21.4-5.3-34.5-27-29.2-48.5l14.7-58.6-66-16.6H155c-11 0-20-9-20-20v-140c0-11 9-20 20-20h85.6l528-132.4c26.7-6.7 48.5 10.3 48.5 37.8v369.3z"/></svg>