<svg xmlns="http://www.w3.org/2000/svg" viewBox="0 0 1000 1200" class="cf-icon-svg"><path d="M500 105.2c-276.1 0-500 223.9-500 500s223.9 500 500 500 500-223.9 500-500-223.9-500-500-500zM363.1 392c-.1-18.7 3.6-37.1 11-54.3 14.2-33.5 40.9-60.1 74.3-74.3 17.1-7.4 35.6-11.1 54.3-11 18.6-.1 37 3.6 54 11 51.2 22.2 84.2 72.8 83.9 128.6l-.5 199.4c.1 36.6-14.3 71.8-40.1 97.8a139.64 139.64 0 0 1-43.9 29.7c-17 7.4-35.4 11.1-54 11-18.7.1-37.1-3.6-54.3-11-33.3-14-59.8-40.5-73.8-73.8-7.3-17-11.1-35.3-11-53.7l.1-199.4zm363.7 199.4c.1 60.3-23.6 118.2-66 161-37.8 38.4-86.6 61.5-139 66.2v93.2h107.5c11 0 20 9 20 20s-9 20-20 20H374.5c-11 0-20-9-20-20s9-20 20-20h107.4v-93.2c-52.4-4.7-101.1-27.8-139-66.2-42.4-42.8-66.1-100.7-66-161v-58.2c0-11 9-20 20-20s20 9 20 20v58.2c-.1 49.8 19.5 97.5 54.5 132.9 35 35.6 81.4 55.2 130.5 55.2s95.5-19.6 130.5-55.2c35-35.4 54.6-83.2 54.5-132.9v-58.2c0-11 9-20 20-20s20 9 20 20l-.1 58.2z"/></svg>