<svg xmlns="http://www.w3.org/2000/svg" viewBox="0 0 759.7 1200" class="cf-icon-svg"><path d="M476.2 902.6l-71.3 71.3v-87.3c0-13.8-11.2-25-25-25s-25 11.2-25 25v87.3l-71.3-71.3c-9.8-9.8-25.6-9.8-35.4 0-9.8 9.8-9.8 25.6 0 35.4l114 114c9.8 9.8 25.6 9.8 35.4 0l114-114c9.8-9.8 9.8-25.6 0-35.4s-25.7-9.8-35.4 0zM283.5 309.7l71.3-71.4v87.3c0 13.8 11.2 25 25 25s25-11.2 25-25v-87.3l71.3 71.4c9.8 9.8 25.6 9.8 35.4 0 9.8-9.8 9.8-25.6 0-35.4l-114-114c-9.8-9.8-25.6-9.8-35.4 0l-114 114c-9.8 9.8-9.8 25.6 0 35.4 9.9 9.7 25.7 9.7 35.4 0zM729.7 413.8H30c-16.5 0-30 13.5-30 30v324.7c0 16.5 13.5 30 30 30h699.7c16.5 0 30-13.5 30-30V443.8c0-16.6-13.4-30-30-30zM521.4 665.9c-33 78.5-123.4 115.3-201.9 82.3s-115.3-123.4-82.3-201.9S360.6 431 439.1 464c57.2 24.1 94.4 80.1 94.4 142.1 0 20.6-4.1 40.9-12.1 59.8z"/><path d="M419.3 595.3c-6.5-3.3-13.3-5.8-20.4-7.3-6.1-1.3-12.4-2-18.6-2-3.6 0-7.1-.3-10.7-.8-3.8-.6-7.4-1.8-10.9-3.5-3.1-1.6-5.8-3.7-8-6.4-2.1-2.5-3.4-5.7-3.6-9 0-4.9 3-9.2 8.8-13 6.4-4 15.8-6.6 24.6-6.6 2.9.3 5.8.7 8.6 1.5l1.1.2c3.6.9 7.1 2.1 10.5 3.7 3.1 1.4 5.8 3.3 8.2 5.7 7.8 7.8 20.5 7.8 28.3 0 7.8-7.8 7.8-20.5 0-28.3-5.8-5.8-12.6-10.4-20.1-13.8-5.5-2.5-11.3-4.6-17.2-6V493c0-11-9-20-20-20s-20 9-20 20v16.1c-9 2-17.6 5.5-25.4 10.4-17.5 11-27.5 28.1-27.5 46.8.1 12.5 4.6 24.6 12.6 34.2 5.8 7.1 13 12.9 21.1 17 7 3.5 14.5 5.9 22.2 7.2 5.7.9 11.5 1.3 17.2 1.3 3.4 0 6.8.3 10.2 1 3.6.8 7 2 10.3 3.7 3.1 1.7 5.9 4 8.3 6.7 2.1 2.5 3.3 5.6 3.4 8.9 0 2.1 0 6.5-8 11.7-5.2 3.3-14.5 6.9-25.1 6.9-3.7-.2-7.4-.6-11.1-1.3-3.5-.8-6.9-1.9-10.2-3.3-2.9-1.3-5.5-3.3-7.5-5.8-7.3-8.3-19.9-9.1-28.2-1.8-8.2 7.2-9.1 19.6-2 27.9 6.2 7.4 14 13.1 22.9 16.8 5.4 2.3 11.1 4.1 16.9 5.3v16.5c0 11 9 20 20 20s20-9 20-20v-16.7c9.3-2.1 18.1-5.8 26.1-10.9 21.6-14.1 26.2-32.4 26.2-45.2 0-12.9-4.7-25.5-13.2-35.2-5.6-6.5-12.3-11.8-19.8-15.9z"/></svg>