<svg xmlns="http://www.w3.org/2000/svg" viewBox="0 0 997.3 1200" class="cf-icon-svg"><path d="M967.3 454.8H30c-16.5 0-30 13.5-30 30v445c0 16.5 13.5 30 30 30h937.3c16.5 0 30-13.5 30-30v-445c0-16.6-13.4-30-30-30zm-276.8 331c-43.3 103-162 151.4-265 108.1s-151.4-162-108.1-265 162-151.4 265-108.1c75.1 31.6 123.9 105.1 123.9 186.6.1 26.8-5.3 53.5-15.8 78.4z"/><path d="M555.9 694.3c-8.4-4.3-17.3-7.6-26.5-9.6-8-1.7-16.1-2.5-24.2-2.5-4.8 0-9.5-.3-14.2-1.1-5.1-.9-10-2.4-14.6-4.7-4.2-2.1-7.9-5.1-10.9-8.8-3.1-3.8-5-8.6-5-12.6 0-6.9 4.1-12.9 12.2-18.1 8.6-5.4 21.2-8.8 32.9-8.8 2.6 0 7 1 11.6 2l1.4.3c4.9 1.1 9.6 2.8 14.1 4.9 4.1 1.9 7.9 4.5 11.2 7.7 9.8 9.7 25.6 9.6 35.4-.2 9.7-9.8 9.6-25.5 0-35.2-7.5-7.5-16.3-13.5-26-17.9-7.5-3.4-15.3-6.1-23.3-8v-22.9c0-13.8-11.2-25-25-25s-25 11.2-25 25V581c-12 2.6-23.5 7.2-33.9 13.7-22.6 14.2-35.5 36.2-35.5 60.3.2 16.1 5.9 31.7 16.2 44.2 7.4 9.2 16.8 16.7 27.3 22 9.1 4.5 18.8 7.7 28.8 9.3 7.4 1.2 14.9 1.8 22.4 1.8 4.6 0 9.1.4 13.6 1.4 4.8 1.1 9.4 2.7 13.8 5 4.2 2.3 8 5.4 11.3 9 3 3.4 4.7 7.8 4.8 12.4 0 3 0 9.2-11.1 16.4-6.9 4.5-19.4 9.3-33.6 9.3-4.5 0-11.9-1.3-14.8-1.8-4.7-1-9.3-2.5-13.7-4.4-3.5-1.4-7-4.1-10.3-8-8.9-10.6-24.6-11.9-35.2-3.1-10.6 8.9-11.9 24.6-3.1 35.2.2.2.3.4.5.6 8.7 10 18.6 17.3 29.6 21.7 7.4 3.1 15.1 5.5 23 7.1v22.7c0 13.8 11.2 25 25 25s25-11.2 25-25v-23c12.3-2.7 24.1-7.6 34.8-14.3 28-18.2 33.9-41.8 33.9-58.3 0-16.7-6.1-32.8-17.1-45.4-7.4-8.4-16.1-15.3-25.8-20.5z"/></svg>