<svg xmlns="http://www.w3.org/2000/svg" viewBox="0 0 1000 1200" class="cf-icon-svg"><path d="M594.3 525.9h-25.7v105.9h66.7v-22.3h-41zM380 546.5c1.4-.9 3-1.4 4.7-1.7 1.7-.3 3.4-.4 5.2-.5 3.6.1 7.1.9 10.2 2.5 3.4 1.5 6.3 3.8 8.6 6.7l16.3-17.2c-4.7-4.3-10.3-7.6-16.4-9.7-5.9-2.1-12.1-3.2-18.3-3.3-5 0-10 .6-14.8 1.9-4.7 1.2-9.1 3.2-13.1 5.9-3.9 2.7-7.1 6.2-9.4 10.3-2.5 4.6-3.7 9.8-3.6 15.1-.1 4.2.7 8.3 2.3 12.2 1.5 3.2 3.5 6.1 6.1 8.5 2.6 2.4 5.5 4.3 8.7 5.8 3.3 1.5 6.6 2.8 10 3.9 3.5 1.1 6.6 2.1 9.4 3.1 2.4.8 4.7 1.8 6.9 3.1 1.7 1 3.1 2.3 4.3 3.8 1 1.5 1.6 3.3 1.5 5.1.1 1.9-.4 3.7-1.2 5.4-.8 1.4-1.9 2.7-3.2 3.6-1.4.9-3 1.6-4.7 2-1.8.4-3.7.6-5.5.6-4.4-.1-8.7-1.2-12.6-3.2-3.9-1.9-7.4-4.6-10.2-8l-16.8 17.1c5 5.1 11 8.9 17.7 11.3 7 2.6 14.5 4 22 4 5.1 0 10.2-.7 15.1-2.1 4.7-1.3 9.1-3.5 13-6.4 3.8-2.9 6.9-6.7 9-11.1 2.4-4.9 3.5-10.3 3.4-15.8 0-5.3-1-9.7-3.1-13.2-2-3.5-4.7-6.5-7.9-8.9-3.2-2.4-6.8-4.4-10.6-5.8-3.9-1.4-7.6-2.8-11.2-4-2.5-.8-4.7-1.6-6.7-2.3-1.8-.7-3.5-1.5-5.2-2.5-1.3-.8-2.4-1.9-3.3-3.1-.8-1.4-1.2-2.9-1.1-4.5-.1-1.8.4-3.6 1.4-5.2.6-1.5 1.7-2.6 3.1-3.4zM535.3 538c-5.3-4.9-11.5-8.6-18.3-11.1a69.77 69.77 0 0 0-46 0c-6.8 2.4-13 6.2-18.3 11.1-5.2 4.9-9.3 10.8-12 17.4-3 7.3-4.5 15.1-4.3 23-.1 7.9 1.4 15.7 4.3 23 2.7 6.7 6.8 12.8 12 17.8 5.3 5 11.5 8.9 18.3 11.4 14.9 5.4 31.1 5.4 46 0 6.8-2.5 13.1-6.4 18.3-11.5 5.2-5 9.3-11.1 12-17.8 3-7.3 4.4-15.1 4.3-23 .1-7.9-1.4-15.7-4.3-23-2.7-6.5-6.8-12.4-12-17.3zm-13.2 53.7c-1.4 3.9-3.5 7.4-6.3 10.4-2.7 2.9-6 5.2-9.6 6.8-7.8 3.3-16.7 3.3-24.5 0-3.6-1.6-6.8-3.9-9.5-6.8-2.7-3-4.8-6.6-6.2-10.4-3-8.4-3-17.6-.1-26.1 1.3-3.8 3.5-7.3 6.2-10.2 5.7-6 13.6-9.3 21.9-9.2 4.2-.1 8.5.8 12.4 2.5 3.6 1.6 6.9 3.9 9.6 6.7 2.7 3 4.8 6.5 6.2 10.2 1.5 4.1 2.3 8.5 2.2 12.9 0 4.4-.8 8.9-2.3 13.2zM727.2 537.2c-5.9-4.1-12.5-7.1-19.5-8.7-7.3-1.7-14.7-2.6-22.2-2.6h-38.3v106h39.5c7.3 0 14.5-1 21.5-3.1 6.9-2 13.4-5.2 19.1-9.6 5.7-4.4 10.4-10.1 13.6-16.6 3.4-6.7 5.2-14.7 5.2-24 0-10-1.7-18.4-5.2-25.1-3.1-6.5-7.8-12.1-13.7-16.3zm-10.5 56.2c-1.8 3.8-4.4 7.1-7.8 9.6-3.4 2.4-7.2 4.2-11.2 5.2-4.3 1.1-8.8 1.6-13.2 1.6h-12.1v-62H685c4.3 0 8.6.5 12.8 1.5 4 .9 7.7 2.6 11.1 5 3.3 2.5 6 5.7 7.8 9.4 1.9 3.9 2.9 8.9 2.9 14.9s-1 10.9-2.9 14.8z"/><path d="M500 105.2c-276.1 0-500 223.9-500 500s223.9 500 500 500 500-223.9 500-500-223.9-500-500-500zM265.8 901.3c0 11-9 20-20 20s-20-9-20-20V308.5c0-11 9-20 20-20s20 9 20 20v24.3h451.3c11 0 20 9 20 20s-9 20-20 20h-32.6V410h-40v-37.2H434.7V410h-40v-37.2H265.8v528.5zm508.8-208.6c0 11-9 20-20 20h-422c-11 0-20-9-20-20V465c0-11 9-20 20-20h422c11 0 20 9 20 20v227.7z"/></svg>