<svg xmlns="http://www.w3.org/2000/svg" viewBox="0 0 860.7 1200" class="cf-icon-svg"><path d="M425.3 284.5c0-10.1-3.9-16.7-11.8-19.7-8.6-3-16.1-1.1-22.5 5.6l-193 193H51.2c-14.3 0-26.4 4.9-36.3 14.6C5 487.8 0 499.8 0 514v182.9c0 6.7 1.3 13.3 3.9 19.4 2.6 6.1 6.3 11.6 11 16.3 2.2 2.2 4.6 4.2 7.2 6C35 750.8 52.2 757.7 70 757.7h124.8l182.9 182.9c27.2 27.2 49.5 18 49.5-20.5V311.9c.1-5.8-.6-11.6-1.9-17.3v-10.1zM717.5 616L852 481.5c11.7-11.7 11.7-30.7 0-42.4s-30.7-11.7-42.4 0L675 573.6 540.6 439.1c-11.7-11.7-30.7-11.7-42.4 0s-11.7 30.7 0 42.4L632.6 616 498.2 750.4c-11.7 11.7-11.7 30.7 0 42.4s30.7 11.7 42.4 0L675 658.4l134.5 134.5c11.7 11.7 30.7 11.7 42.4 0s11.7-30.7 0-42.4L717.5 616z"/></svg>