<svg xmlns="http://www.w3.org/2000/svg" viewBox="0 0 862.5 1200" class="cf-icon-svg"><path d="M120.4 604h200v200h-200zM387 603.7h221.8v60H387zM120.4 410.1h495.1v100H120.4zM387 743.3h221.8v60H387z"/><path d="M832.4 334.9H731.6V280c0-16.5-13.5-30-30-30H30c-16.5 0-30 13.5-30 30v653.8c0 16.5 13.5 30 30 30h749v-.8c47.7-5.9 83.4-46.5 83.5-94.5V364.9c-.1-16.6-13.5-30-30.1-30zM671.6 903.8H60V310h611.6v593.8zm130.8-361.7v326.5c0 19.5-15.8 35.2-35.2 35.2-19.5 0-35.2-15.8-35.2-35.2V394.9h70.5v147.2z"/></svg>