<svg xmlns="http://www.w3.org/2000/svg" viewBox="0 0 896.3 1200" class="cf-icon-svg"><path d="M218 300.5c-13.8 0-25 11.2-25 25v17.7c-12.9 2.7-25.2 7.6-36.4 14.5-23.4 14.8-36.8 37.5-36.8 62.5 0 16.2 6 32.5 16.8 45.7 7.7 9.5 17.4 17.3 28.4 22.8 9.5 4.7 19.6 8 30 9.7 7.7 1.3 15.6 1.9 23.4 1.9 4.9 0 9.8.5 14.6 1.5 5.2 1.1 10.2 2.9 14.9 5.3 4.6 2.6 8.8 5.9 12.3 9.8 3.4 3.9 5.3 8.9 5.3 14.1 0 3.1 0 10.4-12.4 18.4-7.5 4.8-20.9 10-36.2 10-4.9 0-12.8-1.4-15.8-1.9-4.8-.8-9.9-2.8-14.7-4.7-3.9-1.5-7.7-4.5-11.4-8.8-9.2-10.3-25-11.2-35.3-2-10.1 9-11.2 24.4-2.5 34.7 9 10.4 19.3 18 30.7 22.5 7 2.8 15.2 5.9 24.7 7.5l.4.1v18.1c0 13.8 11.2 25 25 25s25-11.2 25-25v-18.4c13.3-2.8 25.9-8 37.4-15.2 23-14.9 35.1-35.8 35.1-60.4 0-17.3-6.3-34-17.7-47-7.5-8.6-16.6-15.8-26.6-21.2-8.7-4.5-18-7.9-27.6-10-8.3-1.8-16.8-2.6-25.3-2.6-5.1 0-10.2-.3-15.2-1.1-5.5-.9-10.8-2.6-15.9-5.1-4.6-2.3-8.7-5.6-11.9-9.6-3.5-4.3-5.6-9.6-5.6-14.2 0-5.3 2.3-13.2 13.5-20.2 9.4-6 22.7-9.5 35.5-9.5 2.9 0 7.3 1 12.5 2.1l1.5.3c5.2 1.2 10.3 3 15.1 5.3 4.5 2.1 8.6 4.9 12.2 8.4 9.8 9.7 25.6 9.6 35.4-.2 9.7-9.8 9.6-25.5 0-35.2-7.8-7.8-17-14-27-18.6-8-3.7-16.4-6.6-25-8.5l-.4-.1v-18.4c0-13.8-11.2-25-25-25zM361.2 318.5h170.5v50H361.2z"/><path d="M591.7 988.8H60V221h531.7v111.3c12.4-8.1 26.9-12.5 41.8-12.5l18.2-.1V191c0-16.5-13.5-30-30-30H30c-16.5 0-30 13.5-30 30v827.8c0 16.5 13.5 30 30 30h591.7c16.5 0 30-13.5 30-30V949c-20.3-1.2-40.4-4.7-60-10.4v50.2z"/><path d="M844.9 528.6l22.1-22.1c9.8-9.8 9.8-25.6 0-35.4s-25.6-9.8-35.4 0l-22.4 22.5c-33.2-26.1-73-42.3-115-46.9v-24.9h10.5c13.8 0 25-11.2 25-25s-11.2-25-25-25h-.1l-70.9.3c-13.8 0-25 11.2-25 25s11.2 25 25 25h10.4v24.7C530.5 459.2 442 555.5 442 672.5c0 125.4 101.7 227.1 227.1 227.1s227.1-101.7 227.1-227.1c.1-52.5-18-103.4-51.3-143.9zm-73.6 243.9c-9.8 9.8-25.6 9.8-35.4 0l-82.4-82.4c-5.9-4.7-9.4-11.9-9.4-19.5V542.5c0-13.8 11.2-25 25-25s25 11.2 25 25V660l77.1 77.1c9.8 9.8 9.9 25.6.1 35.4zM473.2 476.5c9.9-9.9 20.5-19 31.8-27.3H361.2v50h91.7c6.4-8 13.1-15.5 20.3-22.7zM361.2 629.8h34.1c2.6-17 6.9-33.8 12.6-50h-46.7v50zM120.2 760.5h286.2c-5.5-16.3-9.4-33-11.7-50H120.2v50zM473.2 868.4a281.8 281.8 0 0 1-23.9-27.2H120.2v50H499c-9.1-7.1-17.7-14.7-25.8-22.8z"/></svg>