<svg xmlns="http://www.w3.org/2000/svg" viewBox="0 0 1000 1200" class="cf-icon-svg"><path d="M664.4 723.7c-24.5 0-44.5 19.9-44.5 44.5s19.9 44.5 44.5 44.5 44.5-19.9 44.5-44.5c-.1-24.6-20-44.5-44.5-44.5z"/><path d="M500 105.2c-276.1 0-500 223.9-500 500s223.9 500 500 500 500-223.9 500-500-223.9-500-500-500zM221.9 443.6c0-63.2 51.2-114.5 114.4-114.5s114.5 51.2 114.5 114.4S399.6 558 336.4 558c-63.2-.1-114.4-51.2-114.5-114.4zM386.7 865c-15.3 23-46.4 29.1-69.3 13.8-23-15.3-29.1-46.4-13.8-69.3l311-465.6c15.3-23 46.4-29.1 69.4-13.8 23 15.3 29.1 46.4 13.8 69.4L386.7 865zm277.7 17.6c-63.2 0-114.5-51.2-114.4-114.5 0-63.2 51.2-114.5 114.5-114.4 63.2 0 114.4 51.2 114.4 114.5-.1 63.1-51.3 114.3-114.5 114.4z"/><path d="M380.8 443.6c0-24.5-19.9-44.5-44.4-44.5s-44.5 19.9-44.5 44.4 19.9 44.5 44.4 44.5c24.6 0 44.5-19.9 44.5-44.4z"/></svg>