<svg xmlns="http://www.w3.org/2000/svg" viewBox="0 0 806.3 1200" class="cf-icon-svg"><path d="M781.3 482.2h-77.5c-10.9-38.2-28.7-74-52.5-105.8-11.7-66.4.8-134.9 35.4-192.8 4.6-7.8 2.1-17.8-5.7-22.5-4.8-2.9-10.8-3.1-15.8-.5L644.8 171l-168 85.7c-28.6-8-58.2-12-87.9-12-162 0-296.5 117.6-322.8 272-30.6-5.4-59.8 15.1-65.2 45.7-5.4 30.6 15.1 59.8 45.7 65.2 6.4 1.1 13 1.1 19.5 0 9.8 57.5 34.8 111.3 72.5 155.8v151.7c0 13.8 11.2 25 25 25h100c13.8 0 25-11.2 25-25V884c65.5 21 136 20.9 201.5-.3v51.4c0 13.8 11.2 25 25 25h100c13.8 0 25-11.2 25-25V782.3c29.4-35.1 51.1-76 63.7-120.1h77.5c13.8 0 25-11.2 25-25v-130c0-13.8-11.2-25-25-25zM451.8 746.3c-11.5 7.3-24.1 12.4-37.4 15.2v18.3c0 13.8-11.2 25-25 25s-25-11.2-25-25v-18.1l-.4-.1c-9.5-1.7-17.7-4.8-24.7-7.5-11.3-4.5-21.7-12.1-30.7-22.5-9.2-10.3-8.3-26.1 2-35.3 10.3-9.2 26.1-8.3 35.3 2 .2.2.3.4.5.6 3.7 4.3 7.5 7.2 11.4 8.8 4.9 2 9.9 3.9 14.7 4.7 3 .5 10.9 1.9 15.8 1.9 15.3 0 28.7-5.2 36.2-10 12.4-8 12.4-15.3 12.4-18.4 0-5.2-1.9-10.2-5.3-14.1-3.5-4-7.6-7.3-12.3-9.9-4.7-2.4-9.7-4.2-14.9-5.4-4.8-1-9.7-1.5-14.6-1.5-7.8 0-15.7-.6-23.4-1.9-10.4-1.7-20.5-5-30-9.7-11-5.5-20.6-13.3-28.4-22.8-10.8-13.3-16.8-29.5-16.8-45.7 0-24.9 13.4-47.7 36.8-62.5 11.2-6.9 23.5-11.8 36.4-14.5v-17.7c0-13.8 11.2-25 25-25s25 11.2 25 25v18.4l.4.1c8.6 2 17 4.8 25 8.5 10 4.5 19.2 10.8 27 18.6 9.8 9.7 9.9 25.5.2 35.4-9.7 9.8-25.5 9.9-35.4.2l-.1-.1c-3.5-3.5-7.6-6.4-12.2-8.4-4.8-2.2-9.9-4-15.1-5.2l-1.5-.3c-5.2-1.1-9.7-2.1-12.5-2.1-12.8 0-26 3.5-35.5 9.5-11.2 7-13.5 14.9-13.5 20.2 0 4.6 2.1 9.9 5.6 14.2 3.3 4 7.3 7.3 12 9.6 5 2.5 10.3 4.2 15.9 5.1 5 .8 10.1 1.2 15.2 1.2 8.5 0 17 .9 25.3 2.6 9.6 2.1 18.9 5.5 27.6 10 10 5.4 19 12.6 26.6 21.2 11.4 13 17.7 29.7 17.7 47-.2 24.6-12.3 45.5-35.3 60.4zm91.7-356c-7.8 11.4-23.4 14.3-34.8 6.5-72.3-49.4-167.5-49.4-239.8 0-11.4 7.8-27 4.9-34.8-6.5s-4.9-27 6.5-34.8c89.3-61.1 207-61.1 296.4 0 11.4 7.8 14.3 23.4 6.5 34.8z"/></svg>