<svg xmlns="http://www.w3.org/2000/svg" viewBox="0 0 1000 1200" class="cf-icon-svg"><path d="M271.8 675h205.4v40H271.8zM732.9 519.8c-5.8-3-12-5.2-18.3-6.6-5.5-1.2-11.1-1.8-16.7-1.7-2.9 0-5.9-.2-8.8-.7-3-.5-5.9-1.4-8.7-2.8-2.3-1.2-4.4-2.8-6-4.8-1.5-1.7-2.3-3.8-2.5-6.1 0-3.2 2.2-6.2 6.4-8.9 5.1-3.2 12.7-5.2 19.8-5.2 2.3.2 4.6.6 6.9 1.2l1 .2c3 .7 5.8 1.7 8.6 3 2.3 1.1 4.5 2.5 6.3 4.3 7.8 7.8 20.5 7.8 28.3 0 7.8-7.8 7.8-20.5 0-28.3-5.3-5.2-11.4-9.4-18.2-12.5-4.3-2-8.8-3.6-13.3-4.8v-8c0-11-9-20-20-20s-20 9-20 20v7.6c-7.3 1.8-14.3 4.8-20.7 8.7-15.9 10-25 25.6-25 42.7.1 11.4 4.2 22.5 11.5 31.3 5.2 6.4 11.8 11.7 19.2 15.4 6.3 3.1 13 5.3 20 6.5 5.1.8 10.2 1.2 15.3 1.2 2.8 0 5.5.3 8.2.8 2.9.6 5.6 1.6 8.2 2.9 2.4 1.3 4.6 3.1 6.4 5.2 1.4 1.6 2.2 3.7 2.2 5.9 0 1.4 0 4.1-5.7 7.8-6.1 3.6-13.1 5.5-20.2 5.5-3.1-.2-6.1-.5-9.1-1.1-2.8-.6-5.6-1.5-8.3-2.7-2.1-1-4-2.4-5.4-4.3-7.1-8.4-19.8-9.5-28.2-2.3-8.4 7.1-9.5 19.8-2.3 28.2l.3.3c5.6 6.7 12.8 11.9 20.8 15.2 4.2 1.7 8.5 3.2 12.9 4.3v7.7c0 11 9 20 20 20s20-9 20-20v-8c7.5-2 14.7-5.1 21.2-9.3 15.4-10 24-24.7 24-41.4 0-11.9-4.3-23.3-12.1-32.2-5.2-5.8-11.2-10.6-18-14.2z"/><path d="M500 105.2c-276.1 0-500 223.9-500 500s223.9 500 500 500 500-223.9 500-500-223.9-500-500-500zM159.4 460c.1-27.6 22.4-49.9 50-50h304.9c-17.6 26.7-29.1 56.9-33.7 88.5H159.4V460zm629 299.2c-.1 27.6-22.4 49.9-50 50h-529c-27.6-.1-49.9-22.4-50-50V548.5H479c10.1 120.6 116 210.1 236.6 200.1 23-1.9 45.6-7.5 66.9-16.5 2-.8 4-1.7 5.9-2.6v29.7zm-91.2-49.9c-98.9 0-179-80.1-179-179s80.1-179 179-179 179 80.1 179 179-80.1 179.1-179 179c0 .1 0 .1 0 0z"/></svg>