<svg xmlns="http://www.w3.org/2000/svg" viewBox="0 0 761.9 1200" class="cf-icon-svg"><path d="M203.7 889.9h355v50h-355zM203.7 788.4h355v50h-355z"/><path d="M670.9 368.4L477.3 174.8H122.1c-16.5 0-30 13.5-30 30V500H70c-38.5 0-70 31.5-70 70v305.5c0 38.5 31.5 70 70 70h22.1v60.5c0 16.5 13.5 30 30 30h518.8c16.5 0 30-13.5 30-30v-60.5h21c38.5 0 70-31.5 70-70V569.9c0-38.5-31.5-70-70-70h-21V368.4zm-60 607.6H152.1V742.7h458.8V976zM425 234.8v146.4c0 21.1 17.3 38.4 38.4 38.4h147.5V500H152.1V234.8H425zm237.9 403.9c-16.6 0-30-13.4-30-30s13.4-30 30-30 30 13.4 30 30-13.4 30-30 30z"/></svg>