<svg xmlns="http://www.w3.org/2000/svg" viewBox="0 0 503.6 1200" class="cf-icon-svg"><path d="M312.7 950.2c-7.8-7.5-16.9-13.5-26.8-17.8l-.3-.2c-10.1-4.3-21-6.5-31.9-6.5-11.4 0-22.7 2.2-33.2 6.6-10.2 4.2-19.4 10.3-27.4 17.9-24.1 24.1-31.2 60.3-17.9 91.7a87.3 87.3 0 0 0 18.1 26.9c16.1 15.8 37.8 24.7 60.4 24.7 11 0 21.8-2.2 31.9-6.5l.4-.2c10-4.2 19-10.4 26.7-18 7.7-7.7 13.9-16.8 18.1-26.9 8.8-20.9 8.8-44.4 0-65.3-4.3-10-10.4-18.9-18.1-26.4zM484.1 258.3c-13.2-31.1-30.7-57.5-53.6-80.7s-49-40.9-79.9-54.3-62.6-19.9-97.4-19.9c-35.3 0-67.6 6.5-98.6 19.9S97.1 154.5 74 177.7s-40.9 49.6-54.3 80.7C6.5 289.3 0 321.5 0 356.9v1.8c0 35.9 29.1 65 65 65s65-29.1 65-65v-1.8c0-17.6 3-32.5 9.2-47.2 6.9-16 15.4-28.8 26.9-40.3s24.1-19.9 40-26.8c14.6-6.3 29.6-9.2 47.1-9.2 16.9 0 31.4 2.9 45.7 9.1 14.7 6.2 28 15.2 39.2 26.5 11.2 11.4 19.6 24.1 26.3 39.9 6.3 14.9 9.3 30.2 9.3 48.1 0 20.8-2.5 34.1-4.6 41.7-3.5 12.3-7.6 22.9-12.4 31.3-5.8 10.4-12.5 20.2-20.1 29.3-11.3 13.5-22.4 26.3-32.8 38.1-12 12.6-23.2 24.9-33.2 36.6-15 17.4-28.3 36.2-39.7 56.2-13.1 23.2-23.2 48-30 73.8-7 26.5-10.6 55.9-10.6 87.5v3.1c0 35.9 29.1 65 65 65s65-29.1 65-65v-3.2c0-20.4 2.1-38.6 6.2-54.2 3.9-15 9.7-29.3 17.3-42.8 7.3-12.7 15.7-24.7 25.3-35.8 8.8-10.3 18.8-21.2 29.6-32.6.5-.5 1-1.1 1.5-1.7 11.5-12.9 23.5-26.9 35.9-41.6 12.7-15.2 24-31.5 33.7-48.8 10-17.6 18.3-38 24.6-60.5 6.2-22.4 9.4-48.1 9.4-76.6-.2-35.1-6.5-67.4-19.7-98.5z"/></svg>