<svg xmlns="http://www.w3.org/2000/svg" viewBox="0 0 1000 1200" class="cf-icon-svg"><path d="M499.4 388c-134.6 0-243.7 109.1-243.7 243.7s109.1 243.7 243.7 243.7S743 766.2 743 631.7 634 388 499.4 388zm144 387.7c-79.5 79.5-208.5 79.5-288 0s-79.5-208.5 0-288 208.5-79.5 288 0c38.2 38.2 59.7 90 59.7 144 .1 54-21.4 105.9-59.7 144z"/><path d="M547.4 619.6c-7.8-4-16.1-7-24.6-8.9-7.4-1.6-14.9-2.3-22.5-2.3-4.2 0-8.4-.3-12.5-1-4.4-.7-8.6-2.1-12.6-4.1-3.5-1.8-6.7-4.3-9.2-7.3-2.4-2.8-3.8-6.3-4-10 0-5.4 3.4-10.2 10-14.4 7.5-4.7 18.4-7.6 28.6-7.6 2.1 0 5.9.8 10 1.7l1.4.3c4.2 1 8.4 2.5 12.3 4.3 3.5 1.6 6.7 3.8 9.5 6.5 9.7 9.8 25.6 9.8 35.4.1 9.8-9.7 9.8-25.6.1-35.4l-.1-.1c-7-7-15.2-12.6-24.2-16.7-6.4-2.9-13-5.3-19.8-7v-19c0-13.8-11.2-25-25-25s-25 11.2-25 25V517c-10.5 2.5-20.5 6.6-29.7 12.3-21.2 13.4-33.3 34-33.3 56.7.2 15.2 5.5 29.8 15.2 41.5 7 8.6 15.7 15.5 25.6 20.5 8.4 4.2 17.5 7.1 26.8 8.7 6.8 1.1 13.8 1.7 20.7 1.7 4 0 7.9.4 11.8 1.2 4.2.9 8.2 2.3 12 4.3 3.6 2 6.8 4.6 9.5 7.7 2.4 2.7 3.7 6.2 3.7 9.8 0 2.3 0 7.1-9 12.9-7.5 4.9-19 8.1-29.2 8.1-4.4-.2-8.7-.8-13-1.6-4.1-.9-8.1-2.2-11.9-3.9-3.3-1.5-6.2-3.8-8.5-6.6-9.1-10.4-24.9-11.6-35.3-2.5-10.4 9.1-11.6 24.9-2.5 35.3 8.1 9.4 17.5 16.2 27.7 20.3 6.3 2.6 12.7 4.7 19.4 6.2v18.7c0 13.8 11.2 25 25 25s25-11.2 25-25v-19c10.8-2.6 21.1-7 30.5-12.9 26.3-17.1 31.8-39.3 31.8-54.9 0-15.7-5.7-30.9-16.1-42.7-6.9-7.9-15-14.3-24-19.2z"/><path d="M500 105.2c-276.1 0-500 223.9-500 500s223.9 500 500 500 500-223.9 500-500-223.9-500-500-500zm-.6 817.1c-160.5 0-290.7-130.1-290.7-290.7 0-152.1 116.9-276.9 265.7-289.6v-38l-20.2.1h-.2c-13.8 0-25-11.1-25-25 0-13.8 11.1-25 25-25l90.7-.3h.1c13.8 0 25 11.1 25 25 0 13.8-11.1 25-25 25l-20.4.1v38.2c58.6 5 114.3 27.7 159.7 65.1l28.2-28.2c9.8-9.8 25.6-9.8 35.4 0s9.8 25.6 0 35.4l-27.8 27.8c45.4 52.7 70.3 119.9 70.2 189.5 0 160.5-130.2 290.6-290.7 290.6z"/></svg>