<svg xmlns="http://www.w3.org/2000/svg" viewBox="0 0 1000 1200" class="cf-icon-svg"><path d="M500 105.2c-276.1 0-500 223.9-500 500s223.9 500 500 500 500-223.9 500-500-223.9-500-500-500zM356.1 841.1c-25.7 25.7-67.3 25.7-93 0s-25.7-67.3 0-93 67.3-25.7 93 0c25.7 25.6 25.7 67.3 0 93zm188.1 19.3c-27.6 0-50-22.4-50-50 0-110.2-89.7-199.9-199.9-199.9-27.6 0-50-22.4-50-50s22.4-50 50-50c80.1 0 155.4 31.2 212 87.8s87.8 131.9 87.8 212c.1 27.7-22.3 50.1-49.9 50.1zm212.7 0c-27.6 0-50-22.4-50-50 0-55.7-10.9-109.7-32.4-160.6-20.8-49.1-50.5-93.2-88.4-131.2-37.9-37.9-82-67.7-131.2-88.4-50.8-21.5-104.9-32.4-160.6-32.4-27.6 0-50-22.4-50-50s22.4-50 50-50c69.2 0 136.3 13.6 199.5 40.3 61 25.8 115.9 62.8 162.9 109.8 47.1 47.1 84 101.9 109.8 162.9 26.7 63.2 40.3 130.4 40.3 199.5.1 27.7-22.3 50.1-49.9 50.1z"/></svg>