<svg xmlns="http://www.w3.org/2000/svg" viewBox="0 0 1000 1200" class="cf-icon-svg"><path d="M629.8 655.5H367.4c-11 0-20 9-20 20v160.6c0 11 9 20 20 20h262.4c11 0 20-9 20-20V675.5c0-11-9-20-20-20zm-179 151.2h-55.3V706.2h55.3v100.5zM652.6 373H345c-11 0-20 9-20 20v150.1c0 11 9 20 20 20h307.6c11 0 20-9 20-20V393c0-11-9-20-20-20z"/><path d="M500 105.2c-276.1 0-500 223.9-500 500s223.9 500 500 500 500-223.9 500-500-223.9-500-500-500zm273.4 756c0 11-9 20-20 20H324.2c-11 0-26.4-6.3-34.3-14l-51.5-50.5c-7.9-7.7-14.3-23-14.3-34v-48.3-385c0-11 9-20 20-20h509.3c11 0 20 9 20 20v511.8z"/></svg>