<svg xmlns="http://www.w3.org/2000/svg" viewBox="0 0 871 1200" class="cf-icon-svg"><path d="M704.2 768.2c-39.4-.1-77.6 13.9-107.7 39.5l-267-168.8c6.1-25.6 6.1-52.2 0-77.8l267-168.8c70.2 59.3 175.1 50.4 234.4-19.8 59.3-70.2 50.4-175.1-19.8-234.4S636 87.8 576.7 158c-35 41.5-47.6 97.4-33.7 149.9L278.2 475.3c-68.9-61.4-174.5-55.3-235.9 13.6S-13 663.4 55.9 724.7c63.3 56.4 158.9 56.4 222.3 0l264.9 167.5c-23.6 89 29.4 180.3 118.4 203.9s180.3-29.4 203.9-118.4S836 797.4 747 773.8c-14-3.7-28.4-5.6-42.8-5.6z"/></svg>