<svg xmlns="http://www.w3.org/2000/svg" viewBox="0 0 761.5 1200" class="cf-icon-svg"><path d="M238.6 319.6h50v-50.4h295.5v50.4h50v-50.4h47.8c16.6 0 30-13.4 30-30s-13.4-30-30-30H60v-31.3c0-16.6-13.4-30-30-30s-30 13.4-30 30v842.4c0 16.6 13.4 30 30 30s30-13.4 30-30V269.2h178.6v50.4zM669 513.4c-4.7-3.3-10-5.7-15.6-7-5.9-1.4-11.9-2.1-18-2.1h-17.9v87.2h17.1c6.3 0 12.5-.7 18.6-2.2 5.7-1.4 11.1-3.8 15.8-7.3 4.7-3.5 8.5-8.2 11-13.5 2.7-5.6 4.1-12.6 4.1-20.8 0-8.4-1.4-15.4-4.1-21-2.5-5.4-6.3-9.9-11-13.3z"/><path d="M397.4 514.8c-3.8-4.1-8.4-7.3-13.5-9.5-5.5-2.4-11.4-3.5-17.4-3.5-11.6-.2-22.8 4.5-30.8 13-3.9 4.2-6.9 9.1-8.7 14.4-2.1 5.8-3.1 11.9-3 18.1-.1 6.3 1 12.6 3.2 18.6 1.9 5.4 4.9 10.4 8.7 14.6 3.7 4.1 8.3 7.4 13.4 9.6 11 4.6 23.5 4.6 34.5 0 5.1-2.2 9.7-5.5 13.5-9.6 3.9-4.2 6.9-9.2 8.8-14.6 2.2-6 3.2-12.3 3.2-18.6 0-6.2-1-12.3-3.2-18.1-1.9-5.3-4.9-10.2-8.7-14.4z"/><path d="M731.5 359.6H141.3c-16.5 0-30 13.5-30 30v316.7c0 16.5 13.5 30 30 30h590.2c16.5 0 30-13.5 30-30V389.6c-.1-16.5-13.5-29.9-30-30zm-530.6 161c1.2 1.8 2.8 3.3 4.6 4.4 2.3 1.4 4.7 2.6 7.3 3.5 2.8 1.1 6 2.1 9.5 3.3 5.1 1.7 10.3 3.5 15.8 5.6 5.4 2 10.4 4.7 15 8.1 4.5 3.4 8.3 7.7 11.1 12.5 2.9 5 4.4 11.2 4.4 18.6 0 8.6-1.6 16-4.7 22.2-3 6.1-7.4 11.4-12.7 15.5-5.5 4.1-11.7 7.2-18.4 9.1-6.9 2-14.1 3-21.3 3-10.6 0-21.1-1.9-31-5.6-9.3-3.4-17.8-8.8-24.7-15.9l23.6-24c4 4.7 8.9 8.6 14.4 11.2 5.5 2.9 11.6 4.5 17.8 4.5 2.6 0 5.2-.3 7.8-.8 2.4-.5 4.6-1.4 6.6-2.7 1.9-1.3 3.5-3 4.5-5 1.2-2.3 1.8-5 1.7-7.6.1-2.6-.7-5.1-2.1-7.2-1.6-2.2-3.7-4-6-5.4-3.1-1.8-6.3-3.3-9.7-4.4-3.9-1.3-8.2-2.8-13.2-4.3-4.8-1.5-9.4-3.4-14-5.5-4.5-2-8.6-4.8-12.2-8.1-3.6-3.4-6.6-7.5-8.6-12-2.2-4.7-3.3-10.4-3.3-17.2 0-8.3 1.7-15.4 5-21.3 3.3-5.8 7.8-10.8 13.3-14.5 5.6-3.9 11.9-6.7 18.5-8.3 6.8-1.7 13.8-2.6 20.8-2.6 8.8.1 17.5 1.6 25.8 4.6 8.5 3 16.4 7.6 23.1 13.7l-23 24.2c-3.2-4-7.4-7.3-12.1-9.4-4.5-2.2-9.4-3.4-14.4-3.5-2.4 0-4.9.2-7.3.6-2.3.4-4.6 1.2-6.6 2.4s-3.6 2.8-5 4.6c-1.4 2.2-2.1 4.7-2 7.3 0 2.3.6 4.5 1.7 6.4zm240.8 59.1c-3.9 9.4-9.7 18-17 25.1-7.4 7.1-16.2 12.5-25.8 16.1-20.9 7.6-43.8 7.6-64.8 0-9.6-3.6-18.3-9.1-25.7-16.1-7.3-7.1-13.1-15.6-17-25.1-4.2-10.3-6.2-21.3-6.1-32.3-.1-11.1 2-22.1 6.2-32.4 3.9-9.3 9.7-17.7 17-24.5 7.4-6.9 16.2-12.2 25.7-15.6 21-7.3 43.8-7.3 64.8 0 9.6 3.4 18.3 8.7 25.8 15.6 7.3 6.9 13.1 15.2 17 24.5 4.2 10.3 6.3 21.3 6.1 32.3.1 11.2-2 22.1-6.2 32.4zm123.8 42.9h-93.9V473.5h36.2v117.7h57.7v31.4zm148.8-41.2c-4.6 9.1-11.1 17.1-19.2 23.4-8 6.2-17.1 10.7-26.8 13.5-9.9 2.9-20.1 4.3-30.3 4.3h-55.6V473.5h53.9c10.5 0 21 1.2 31.2 3.7 9.8 2.3 19.1 6.4 27.4 12.2a62.3 62.3 0 0 1 19.4 22.9c4.9 9.5 7.4 21.3 7.4 35.4-.1 12.9-2.5 24.2-7.4 33.7z"/></svg>