<svg xmlns="http://www.w3.org/2000/svg" viewBox="0 0 1000 1200" class="cf-icon-svg"><path d="M500 105.2c-276.1 0-500 223.9-500 500s223.9 500 500 500 500-223.9 500-500-223.9-500-500-500zm-78.4 646L231.8 860.8c-9.6 5.5-21.8 2.2-27.3-7.3l-5-8.7-10-17.3 17.3-10L396.6 708l17.3-10 10 17.3 5 8.7c5.5 9.5 2.2 21.7-7.3 27.2zm153.7-279.4c-84.9 32-163.9 77.7-234.1 135.2 19.9 11.4 36.3 27.8 47.8 47.6L164.5 784.2c-23.3-40.3-23.1-90 .4-130.2 11.7-21 88.6-126 237.2-211.8s277.9-99.9 302-99.6c46.6-.3 89.7 24.5 113 64.8L592.6 537c-11.4-19.8-17.4-42.3-17.3-65.2zM849.7 504L660 613.6c-9.6 5.5-21.8 2.2-27.3-7.3l-5-8.7-10-17.3 17.3-10 189.7-109.6 17.3-10 10 17.3 5 8.7c5.5 9.6 2.3 21.8-7.3 27.3z"/></svg>