<svg xmlns="http://www.w3.org/2000/svg" viewBox="0 0 1000 1200" class="cf-icon-svg"><path d="M480.1 302.5H352v568.4l115.9-104.4c19-17.1 47.9-17.1 66.9 0l44.2 39.7 71.8 64.7V302.5H480.1z"/><path d="M500 105.2c-276.1 0-500 223.9-500 500s223.9 500 500 500 500-223.9 500-500-223.9-500-500-500zM700.8 302v631.6c0 17.1-6.5 26.4-16.4 26.4-5.8 0-12.8-3.2-20.4-10L545.5 843.3l-44.1-39.7-155.3 139.8-7.3 6.6c-7.5 6.8-14.5 10-20.4 10-9.9 0-16.4-9.3-16.4-26.4V273.7c0-11.7 9.5-21.2 21.2-21.2h356.3c11.7 0 21.2 9.5 21.2 21.2l.1 28.3z"/></svg>