<svg xmlns="http://www.w3.org/2000/svg" viewBox="0 0 654.5 1200" class="cf-icon-svg"><path d="M604.5 513.8H180.1l-26.8-89.3c-21.9-73 19.6-150.2 92.6-172.1S396 272 417.9 345c8 26.4 35.8 41.4 62.3 33.5 26.4-8 41.4-35.8 33.5-62.3-38.6-125.8-171.9-196.4-297.6-157.8C91.4 196.7 20.7 328.2 57.5 453.3l18.2 60.5H50c-27.6.1-49.9 22.4-50 50v436.5c.1 27.6 22.4 49.9 50 50h554.5c27.6-.1 49.9-22.4 50-50V563.8c0-27.6-22.4-49.9-50-50zm-252.2 276v114.6c0 13.8-11.2 25-25 25s-25-11.2-25-25V789.8c-36.1-13.8-54.2-54.3-40.4-90.4s54.3-54.2 90.4-40.4 54.2 54.3 40.4 90.4c-7.2 18.6-21.8 33.3-40.4 40.4z"/></svg>