<svg xmlns="http://www.w3.org/2000/svg" viewBox="0 0 969.7 1200" class="cf-icon-svg"><path d="M484.9 161.1l27 58.4L593.3 396c8.7 18.9 26.7 32 47.4 34.5l128.9 15.3h.2L897.6 461l-94.4 87.3-.1.1-95.4 88.3c-15.3 14.2-22.2 35.3-18.1 55.7l37.9 190.7 12.5 63.1-225.8-126.4a59.935 59.935 0 0 0-58.6 0L229.8 946.2l12.5-63.1 12.6-63.2v-.2l25.3-127.4a59.8 59.8 0 0 0-18.1-55.7l-95.4-88.3-47.3-43.8L72.1 461 200 445.8h.2l128.9-15.3c20.7-2.5 38.7-15.5 47.4-34.5l81.4-176.6 27-58.3m0-73.9c-19.7 0-39.5 16.2-54.5 48.7l-27 58.5L322 371l-129.1 15.3-128 15.2c-71 8.4-86.1 55-33.6 103.6l47.3 43.7 47.3 43.7 95.4 88.3L196 808.2l-12.6 63.2-12.6 63.2c-9.9 49.9 7.3 78.9 40.5 78.9 13.5 0 29.6-4.8 47.6-14.8l225.9-126.4 225.9 126.4c18 10.1 34.1 14.8 47.6 14.8 33.2 0 50.4-29 40.5-78.9l-12.6-63.2-37.9-190.7 95.4-88.3 94.6-87.5c52.5-48.5 37.3-95.1-33.7-103.6l-128-15.2-129-15.3-81.5-176.6-27-58.5c-14.8-32.2-34.5-48.5-54.2-48.5z"/></svg>