<svg xmlns="http://www.w3.org/2000/svg" viewBox="0 0 1000 1200" class="cf-icon-svg cf-icon-svg__updating"><path d="M500 105.2c-276.1 0-500 223.9-500 500s223.9 500 500 500 500-223.9 500-500-223.9-500-500-500zm218.7 331.3c24-13.7 54.5-5.3 68.2 18.6l.4.8c14.2 23.7 6.6 54.4-17 68.6-23.7 14.2-54.4 6.6-68.6-17-.5-.8-.9-1.6-1.3-2.4l-.2-.4c-13.8-24-5.4-54.5 18.5-68.2zm-115.8-81.8c14.2-23.7 44.9-31.5 68.6-17.3l.6.4c23.7 14.1 31.6 44.8 17.5 68.5-14.1 23.7-44.8 31.6-68.5 17.5-.1-.1-.2-.1-.4-.2l-.5-.3c-23.7-14.2-31.4-44.9-17.3-68.6zM258.6 774.5c-19.8 0-37.7-11.6-45.7-29.7-6.4-14.5-11.8-29.4-16-44.7-7.4-26.6 8.2-54.2 34.8-61.5 26.6-7.4 54.2 8.2 61.5 34.8 2.9 10.5 6.6 20.8 11 30.8 11.2 25.2-.2 54.8-25.4 66-6.4 2.9-13.3 4.3-20.2 4.3zm145.8 96.2c-14.7 23.4-45.6 30.4-68.9 15.7h-.1c-13.4-8.4-26.1-17.8-38.2-28.1-21.1-17.8-23.8-49.4-5.9-70.5s49.4-23.8 70.5-5.9c.2.2.4.3.6.5 8.3 7.1 17.1 13.6 26.4 19.4 23.3 14.7 30.3 45.5 15.6 68.9zM420 515.2c0 27.6-22.4 50-50 50s-50-22.4-50-50v-20.4c-15.8 24.8-26.5 52.5-31.5 81.4-4.9 27.2-31 45.2-58.1 40.2-26.8-4.9-44.8-30.3-40.4-57.2 8.4-48.9 28-95.1 57.3-135.1H229c-27.6 0-50-22.4-50-50s22.4-50 50-50h141c27.6 0 50 22.4 50 50v141.1zm91.2 421.2H507c-11.8 0-23.6-.7-35.4-2-27.4-3.3-47-28.1-43.8-55.5 3.2-27.1 27.6-46.6 54.8-43.8 9 1 18.1 1.4 27.2 1.3h.6c27.6-.2 50.1 22.1 50.3 49.7.3 27.5-21.9 50-49.5 50.3zm1.1-544.1h-1.6c-27.6-.5-49.6-23.3-49.1-50.9s23.3-49.6 50.9-49.1h.9c27.6.3 49.8 22.9 49.5 50.5-.4 27.6-23 49.8-50.6 49.5zM683 884.2c-11.1 7.2-22.6 13.7-34.4 19.5-24.7 12.3-54.7 2.2-67-22.5-12.3-24.7-2.2-54.7 22.5-67 .2-.1.4-.2.7-.3 8.2-4 16.1-8.5 23.7-13.4 23.1-15.1 54.1-8.5 69.2 14.6s8.4 54-14.7 69.1zm111.3-124.3c-4.2 8.2-8.7 16.3-13.6 24.2-14.6 23.5-45.4 30.7-68.9 16.1s-30.7-45.4-16.1-68.9c3.3-5.4 6.5-11 9.3-16.6 12.5-24.6 42.6-34.5 67.2-22s34.5 42.6 22.1 67.2zM829 622.1c-.7 27.1-22.9 48.8-50 48.8h-1.2c-27.6-.7-49.4-23.6-48.8-51.2 0-1.8.1-3.6.1-5.4s0-3.7-.1-5.5c-.7-27.6 21.2-50.6 48.8-51.2s50.6 21.2 51.2 48.8c.1 2.7.1 5.4.1 8s-.1 5.1-.1 7.7z"/></svg>
