<svg xmlns="http://www.w3.org/2000/svg" viewBox="0 0 952.7 1200" class="cf-icon-svg cf-icon-svg__updating"><path d="M952.5 592.6c-.9-35.3-29.7-63.4-65-63.4h-1.6c-35.9.9-64.3 30.7-63.4 66.6.1 2.8.1 5.7.1 8.5s0 5.6-.1 8.3c-.9 35.9 27.5 65.7 63.4 66.6h1.6c35.3 0 64.1-28.1 65-63.4.1-3.8.1-7.6.1-11.5s0-7.8-.1-11.7zM873.1 730.4c-32-16.2-71.1-3.4-87.4 28.6-4.4 8.7-9.3 17.3-14.4 25.6-19.1 30.4-10 70.5 20.4 89.6 30.4 19.1 70.5 10 89.6-20.4.1-.2.3-.4.4-.7 7.1-11.5 13.8-23.4 19.9-35.4 16.3-31.9 3.5-71.1-28.5-87.3zM668.2 890.5c-11.7 7.6-23.9 14.6-36.5 20.7-32.6 15-46.9 53.6-31.9 86.2s53.6 46.9 86.2 31.9c1-.4 1.9-.9 2.9-1.4 17.4-8.5 34.2-18.1 50.4-28.6 29.8-20.1 37.6-60.5 17.5-90.2-19.7-29.1-58.9-37.3-88.6-18.6zM486.6 946.2h-.9c-14 .2-28-.5-41.9-2-35.7-3.7-67.6 22.3-71.3 58-3.6 35.4 21.8 67.1 57.1 71.2 17 1.9 34.1 2.8 51.3 2.8h6.6c35.9-.2 64.8-29.5 64.6-65.4-.3-35.9-29.6-64.8-65.5-64.6zM655.2 310.3l.6.4c30.8 18.5 70.7 8.6 89.2-22.2 18.5-30.8 8.6-70.7-22.2-89.2l-1.1-.7c-30.8-18.4-70.7-8.2-89.1 22.6-18.4 30.9-8.2 70.7 22.6 89.1zM490 132.6h-2.3c-35.9-.3-65.2 28.6-65.5 64.5s28.6 65.2 64.5 65.5h2.1c35.9.3 65.3-28.5 65.6-64.4.3-35.8-28.5-65.2-64.4-65.6zM778.5 436.4c17.7 31.2 57.4 42.2 88.6 24.4s42.2-57.4 24.4-88.6l-.5-.9c-17.1-31.6-56.6-43.3-88.1-26.2-31.6 17.1-43.3 56.6-26.2 88.1.4.7.8 1.5 1.3 2.2l.5 1zM298.8 893c-14.3-9-27.8-19-40.6-30-27.4-23.2-68.4-19.7-91.6 7.7-22.9 27.1-19.8 67.7 7 91 17.6 15.1 36.3 28.9 55.9 41.3 30.4 19.1 70.5 10 89.6-20.4 19.2-30.3 10.1-70.5-20.3-89.6zM168.8 742.8c-6.8-15.4-12.5-31.2-17-47.4-10.2-34.4-46.4-54.1-80.8-43.9-33.6 9.9-53.2 44.7-44.5 78.6 6.2 22.3 14 44.2 23.4 65.4 14.6 32.8 53 47.6 85.8 33.1 32.8-14.6 47.6-53 33.1-85.8zM275.9 180.2H65c-35.9 0-65 29.1-65 65s29.1 65 65 65h47.2c-47.2 59.2-79.4 128.9-94 203.1-6.9 35.2 16.1 69.4 51.3 76.3s69.4-16.1 76.3-51.3C156 486.1 178.3 437 211 395v61.3c0 35.9 29.1 65 65 65s65-29.1 65-65v-211c0-36-29.1-65.1-65.1-65.1.1 0 .1 0 0 0z"/></svg>
