<svg xmlns="http://www.w3.org/2000/svg" viewBox="0 0 651.7 1200" class="cf-icon-svg"><path d="M507.1 591.6L353.7 438.3c-15.6-15.6-40.9-15.6-56.6 0L143.8 591.6c-15.6 15.6-15.6 40.9 0 56.6 15.6 15.6 40.9 15.6 56.6 0l85.1-85.1v311.4c0 22.1 17.9 40 40 40s40-17.9 40-40V563.1l85.1 85.1c7.8 7.8 18 11.7 28.3 11.7s20.5-3.9 28.3-11.7c15.5-15.6 15.5-41-.1-56.6z"/><path d="M30 161c-16.5 0-30 13.5-30 30v827.8c0 16.5 13.5 30 30 30h591.7c16.5 0 30-13.5 30-30V343.7L469 161H30zm389.6 60v134.8c0 19.9 16.3 36.2 36.2 36.2h135.9V988.8H60V221h359.6z"/></svg>