<svg xmlns="http://www.w3.org/2000/svg" viewBox="0 0 1000 1200" class="cf-icon-svg"><path d="M429.1 307.8c-111.2 0-201.4 90.2-201.4 201.4s90.2 201.4 201.4 201.4 201.4-90.2 201.4-201.4c0-53.4-21.2-104.6-59-142.4a199.57 199.57 0 0 0-142.4-59z"/><path d="M500 105.2c-276.1 0-500 223.9-500 500s223.9 500 500 500 500-223.9 500-500-223.9-500-500-500zm291.8 766.7c-19.6 19.4-51.1 19.4-70.7 0L568 718.8c-99.7 66-232.1 52.7-316.6-31.8-98.2-98.2-98.2-257.4 0-355.5 98.2-98.2 257.4-98.2 355.5 0 86.1 86.1 96.7 219 31.8 316.7l153.1 153c19.4 19.5 19.4 51.1 0 70.7z"/></svg>