<?xml version="1.0" encoding="utf-8"?>
<!-- Generator: Adobe Illustrator 16.0.3, SVG Export Plug-In . SVG Version: 6.00 Build 0)  -->
<!DOCTYPE svg PUBLIC "-//W3C//DTD SVG 1.1//EN" "http://www.w3.org/Graphics/SVG/1.1/DTD/svg11.dtd">
<svg version="1.1" id="Layer_1" xmlns="http://www.w3.org/2000/svg" xmlns:xlink="http://www.w3.org/1999/xlink" x="0px" y="0px"
	 width="732.7px" height="613px" viewBox="20.7 89.5 732.7 613" style="enable-background:new 20.7 89.5 732.7 613;"
	 xml:space="preserve">
<style type="text/css">
<![CDATA[
	.st0{fill:#101820;}
	.st1{fill:none;stroke:#101820;stroke-width:2;stroke-miterlimit:10;}
	.st2{fill:#BABBBD;}
	.st3{font-family:Arial, sans-serif;}
	.st4{font-size:12;}
	.st5{font-size:14;}
]]>
</style>
<text transform="matrix(1 0 0 1 215.9858 106.6289)" class="st0 st3 st5">Guides</text>
<line class="st1" x1="216" y1="90" x2="364" y2="90"/>
<g>
	<path class="st0" d="M245.8,263.9V290c0,0.5-0.2,0.9-0.5,1.2c-0.3,0.3-0.7,0.5-1.2,0.5h-26.4c-0.5,0-0.8-0.2-1.2-0.5
		c-0.3-0.3-0.5-0.7-0.5-1.2v-34.3c0-0.5,0.2-0.9,0.5-1.2c0.3-0.3,0.7-0.5,1.2-0.5h18.2c0.2,0,0.3,0,0.3,0c0.1,0,0.3,0,0.4,0.2
		c0.1,0,0.1,0,0.1,0.1c0.1,0,0.1,0.1,0.2,0.1c0,0,0.1,0.1,0.1,0.1l8.2,8.1c0.1,0.1,0.1,0.1,0.1,0.2c0,0,0.1,0.1,0.1,0.2
		c0,0,0.1,0,0.1,0.1c0.1,0.2,0.1,0.3,0.1,0.5C245.8,263.6,245.8,263.7,245.8,263.9z M235.9,265.6c-0.5,0-0.8-0.2-1.2-0.5
		c-0.3-0.3-0.5-0.7-0.5-1.2v-6.4h-14.8v30.9h22.9v-22.7L235.9,265.6L235.9,265.6z"/>
</g>
<text transform="matrix(1 0 0 1 259.1143 277.1201)" class="st0 st3 st4">Accessible interfaces</text>
<g>
	<path class="st0" d="M245.8,314.4v26.1c0,0.5-0.2,0.9-0.5,1.2c-0.3,0.3-0.7,0.5-1.2,0.5h-26.4c-0.5,0-0.8-0.2-1.2-0.5
		c-0.3-0.3-0.5-0.7-0.5-1.2v-34.3c0-0.5,0.2-0.9,0.5-1.2c0.3-0.3,0.7-0.5,1.2-0.5h18.2c0.2,0,0.3,0,0.3,0c0.1,0,0.3,0,0.4,0.2
		c0.1,0,0.1,0,0.1,0.1c0.1,0,0.1,0.1,0.2,0.1c0,0,0.1,0.1,0.1,0.1l8.2,8.1c0.1,0.1,0.1,0.1,0.1,0.2c0,0,0.1,0.1,0.1,0.2
		c0,0,0.1,0,0.1,0.1c0.1,0.2,0.1,0.3,0.1,0.5C245.8,314.1,245.8,314.2,245.8,314.4z M235.9,316.1c-0.5,0-0.8-0.2-1.2-0.5
		c-0.3-0.3-0.5-0.7-0.5-1.2v-6.4h-14.8v30.9h22.9v-22.7L235.9,316.1L235.9,316.1z"/>
</g>
<text transform="matrix(1 0 0 1 259.1143 331.1328)" class="st0 st3 st4">Effective forms</text>
<g>
	<path class="st2" d="M245.8,366.3v26.1c0,0.5-0.2,0.9-0.5,1.2c-0.3,0.3-0.7,0.5-1.2,0.5h-26.4c-0.5,0-0.8-0.2-1.2-0.5
		c-0.3-0.3-0.5-0.7-0.5-1.2v-34.3c0-0.5,0.2-0.9,0.5-1.2c0.3-0.3,0.7-0.5,1.2-0.5h18.2c0.2,0,0.3,0,0.3,0c0.1,0,0.3,0,0.4,0.2
		c0.1,0,0.1,0,0.1,0.1c0.1,0,0.1,0.1,0.2,0.1c0,0,0.1,0.1,0.1,0.1l8.2,8.1c0.1,0.1,0.1,0.1,0.1,0.2c0,0,0.1,0.1,0.1,0.2
		c0,0,0.1,0,0.1,0.1c0.1,0.2,0.1,0.3,0.1,0.5C245.8,366,245.8,366.1,245.8,366.3z M235.9,368c-0.5,0-0.8-0.2-1.2-0.5
		c-0.3-0.3-0.5-0.7-0.5-1.2v-6.4h-14.8v30.9h22.9V368L235.9,368L235.9,368z"/>
</g>
<text transform="matrix(1 0 0 1 259.1143 383.0195)" class="st2 st3 st4">Filtering patterns</text>
<g>
	<path class="st0" d="M245.8,212.7v26.1c0,0.5-0.2,0.9-0.5,1.2c-0.3,0.3-0.7,0.5-1.2,0.5h-26.4c-0.5,0-0.8-0.2-1.2-0.5
		c-0.3-0.3-0.5-0.7-0.5-1.2v-34.3c0-0.5,0.2-0.9,0.5-1.2c0.3-0.3,0.7-0.5,1.2-0.5h18.2c0.2,0,0.3,0,0.3,0c0.1,0,0.3,0,0.4,0.2
		c0.1,0,0.1,0,0.1,0.1c0.1,0,0.1,0.1,0.2,0.1c0,0,0.1,0.1,0.1,0.1l8.2,8.1c0.1,0.1,0.1,0.1,0.1,0.2c0,0,0.1,0.1,0.1,0.2
		c0,0,0.1,0,0.1,0.1c0.1,0.2,0.1,0.3,0.1,0.5C245.8,212.4,245.8,212.5,245.8,212.7z M235.9,214.4c-0.5,0-0.8-0.2-1.2-0.5
		c-0.3-0.3-0.5-0.7-0.5-1.2v-6.4h-14.8v30.9h22.9v-22.7L235.9,214.4L235.9,214.4z"/>
</g>
<text transform="matrix(1 0 0 1 259.1143 228.0039)" class="st0 st3 st4">Design principles</text>
<text transform="matrix(1 0 0 1 20.7383 106.1543)" class="st0 st3 st5">Overview</text>
<text transform="matrix(1 0 0 1 20.7383 128.5957)" class="st0 st3 st4">introduces the manual and </text>
<text transform="matrix(1 0 0 1 20.7383 142.9961)" class="st0 st3 st4">the CFPB design </text>
<text transform="matrix(1 0 0 1 20.7383 157.3965)" class="st0 st3 st4">philosophy (goals and </text>
<text transform="matrix(1 0 0 1 20.7383 171.7969)" class="st0 st3 st4">design principles)</text>
<line class="st1" x1="20.7" y1="89.5" x2="168.7" y2="89.5"/>
<g>
	<path class="st0" d="M51,210.3v26.1c0,0.5-0.2,0.9-0.5,1.2c-0.3,0.3-0.7,0.5-1.2,0.5H22.9c-0.5,0-0.8-0.2-1.2-0.5
		c-0.3-0.3-0.5-0.7-0.5-1.2v-34.3c0-0.5,0.2-0.9,0.5-1.2c0.3-0.3,0.7-0.5,1.2-0.5h18.2c0.2,0,0.3,0,0.3,0c0.1,0,0.3,0.1,0.4,0.2
		c0.1,0,0.1,0,0.1,0.1c0.1,0,0.1,0.1,0.2,0.1c0,0,0.1,0.1,0.1,0.1l8.2,8.1c0,0.1,0.1,0.1,0.1,0.2c0,0.1,0.1,0.1,0.1,0.2
		c0,0,0.1,0,0.1,0.1c0.1,0.2,0.1,0.3,0.1,0.5C51,210,51,210.2,51,210.3z M41.1,212c-0.5,0-0.8-0.2-1.2-0.5c-0.3-0.3-0.5-0.7-0.5-1.2
		v-6.5H24.7v30.9h22.9V212L41.1,212L41.1,212z"/>
</g>
<text transform="matrix(1 0 0 1 64.3555 226.4336)" class="st0 st3 st4">Homepage</text>
<text transform="matrix(1 0 0 1 411.2344 106.6289)" class="st0 st3 st5">Visual Identity</text>
<line class="st1" x1="411.2" y1="90" x2="559.2" y2="90"/>
<g>
	<path class="st0" d="M441,210.3v26.1c0,0.5-0.2,0.9-0.5,1.2c-0.3,0.3-0.7,0.5-1.2,0.5h-26.4c-0.4,0-0.8-0.2-1.2-0.5
		c-0.3-0.3-0.5-0.7-0.5-1.2v-34.3c0-0.5,0.2-0.9,0.5-1.2c0.3-0.3,0.7-0.5,1.2-0.5h18.2c0.2,0,0.3,0,0.3,0c0.1,0,0.3,0.1,0.4,0.2
		c0.1,0,0.1,0,0.1,0.1c0.1,0,0.1,0.1,0.2,0.1c0,0,0.1,0.1,0.2,0.1l8.2,8.1c0,0.1,0.1,0.1,0.1,0.2c0,0.1,0.1,0.1,0.1,0.2
		c0.1,0,0.1,0,0.1,0.1c0.1,0.2,0.2,0.3,0.2,0.5C441,210,441,210.1,441,210.3z M431.2,212c-0.5,0-0.9-0.2-1.2-0.5
		c-0.3-0.3-0.5-0.7-0.5-1.2v-6.5h-14.8v30.9h22.9V212H431.2L431.2,212z"/>
</g>
<text transform="matrix(1 0 0 1 454.3623 226.4336)" class="st0 st3 st4">Logo </text>
<g>
	<path class="st0" d="M441,314.4v26.1c0,0.5-0.2,0.9-0.5,1.2c-0.3,0.3-0.7,0.5-1.2,0.5h-26.4c-0.4,0-0.8-0.2-1.2-0.5
		c-0.3-0.3-0.5-0.7-0.5-1.2v-34.3c0-0.5,0.2-0.9,0.5-1.2c0.3-0.3,0.7-0.5,1.2-0.5h18.2c0.2,0,0.3,0,0.3,0c0.1,0,0.3,0,0.4,0.2
		c0.1,0,0.1,0,0.1,0.1c0.1,0,0.1,0.1,0.2,0.1c0,0,0.1,0.1,0.2,0.1l8.2,8.1c0,0.1,0.1,0.1,0.1,0.2s0.1,0.1,0.1,0.2
		c0.1,0,0.1,0,0.1,0.1c0.1,0.2,0.2,0.3,0.2,0.5C441,314.1,441,314.2,441,314.4z M431.2,316.1c-0.5,0-0.9-0.2-1.2-0.5
		c-0.3-0.3-0.5-0.7-0.5-1.2v-6.5h-14.8v30.9h22.9v-22.7L431.2,316.1L431.2,316.1z"/>
</g>
<text transform="matrix(1 0 0 1 454.3623 323.4941)" class="st0 st3 st4">Typography</text>
<g>
	<path class="st0" d="M441,263.9V290c0,0.5-0.2,0.9-0.5,1.2c-0.3,0.3-0.7,0.5-1.2,0.5h-26.4c-0.4,0-0.8-0.2-1.2-0.5
		c-0.3-0.3-0.5-0.7-0.5-1.2v-34.3c0-0.5,0.2-0.9,0.5-1.2c0.3-0.3,0.7-0.5,1.2-0.5h18.2c0.2,0,0.3,0,0.3,0c0.1,0,0.3,0,0.4,0.1
		c0.1,0,0.1,0,0.1,0.1c0.1,0,0.1,0.1,0.2,0.1s0.1,0.1,0.2,0.1l8.2,8.1c0,0.1,0.1,0.1,0.1,0.2c0,0,0.1,0.1,0.1,0.2
		c0.1,0,0.1,0,0.1,0.1c0.1,0.2,0.2,0.3,0.2,0.5C441,263.6,441,263.7,441,263.9z M431.2,265.6c-0.5,0-0.9-0.2-1.2-0.5
		c-0.3-0.3-0.5-0.7-0.5-1.2v-6.4h-14.8v30.9h22.9v-22.7H431.2L431.2,265.6z"/>
</g>
<text transform="matrix(1 0 0 1 454.3623 279.9883)" class="st0 st3 st4">Color</text>
<g>
	<path class="st0" d="M441,366.3v26.1c0,0.5-0.2,0.9-0.5,1.2c-0.3,0.3-0.7,0.5-1.2,0.5h-26.4c-0.4,0-0.8-0.2-1.2-0.5
		c-0.3-0.3-0.5-0.7-0.5-1.2v-34.3c0-0.5,0.2-0.9,0.5-1.2c0.3-0.3,0.7-0.5,1.2-0.5h18.2c0.2,0,0.3,0,0.3,0c0.1,0,0.3,0,0.4,0.2
		c0.1,0,0.1,0,0.1,0.1c0.1,0,0.1,0.1,0.2,0.1s0.1,0.1,0.2,0.1l8.2,8.1c0,0.1,0.1,0.1,0.1,0.2c0,0,0.1,0.1,0.1,0.2
		c0.1,0,0.1,0,0.1,0.1c0.1,0.2,0.2,0.3,0.2,0.5C441,366,441,366.1,441,366.3z M431.2,368c-0.5,0-0.9-0.2-1.2-0.5
		c-0.3-0.3-0.5-0.7-0.5-1.2v-6.4h-14.8v30.9h22.9V368H431.2z"/>
</g>
<text transform="matrix(1 0 0 1 454.3623 382.3838)" class="st0 st3 st4">Minicons</text>
<g>
	<path class="st0" d="M441,418.3v26.1c0,0.5-0.2,0.9-0.5,1.2c-0.3,0.3-0.7,0.5-1.2,0.5h-26.4c-0.4,0-0.8-0.2-1.2-0.5
		c-0.3-0.3-0.5-0.7-0.5-1.2v-34.3c0-0.5,0.2-0.9,0.5-1.2c0.3-0.3,0.7-0.5,1.2-0.5h18.2c0.2,0,0.3,0,0.3,0c0.1,0,0.3,0,0.4,0.2
		c0.1,0,0.1,0,0.1,0.1c0.1,0,0.1,0.1,0.2,0.1c0,0,0.1,0.1,0.2,0.1l8.2,8.1c0,0.1,0.1,0.1,0.1,0.2s0.1,0.1,0.1,0.2
		c0.1,0,0.1,0,0.1,0.1c0.1,0.2,0.2,0.3,0.2,0.5C441,418,441,418.1,441,418.3z M431.2,420c-0.5,0-0.9-0.2-1.2-0.5
		c-0.3-0.3-0.5-0.7-0.5-1.2v-6.5h-14.8v30.9h22.9V420L431.2,420L431.2,420z"/>
</g>
<text transform="matrix(1 0 0 1 454.3623 434.3672)" class="st0 st3 st4">Isocons</text>
<g>
	<path class="st0" d="M441,470.2v26.1c0,0.5-0.2,0.9-0.5,1.2c-0.3,0.3-0.7,0.5-1.2,0.5h-26.4c-0.4,0-0.8-0.2-1.2-0.5
		c-0.3-0.3-0.5-0.7-0.5-1.2v-34.3c0-0.5,0.2-0.9,0.5-1.2c0.3-0.3,0.7-0.5,1.2-0.5h18.2c0.2,0,0.3,0,0.3,0c0.1,0,0.3,0,0.4,0.1
		c0.1,0,0.1,0,0.1,0.1c0.1,0,0.1,0.1,0.2,0.1s0.1,0.1,0.2,0.1l8.2,8.1c0,0.1,0.1,0.1,0.1,0.2c0,0.1,0.1,0.1,0.1,0.2
		c0.1,0,0.1,0,0.1,0.1c0.1,0.1,0.2,0.3,0.2,0.5C441,470,441,470.1,441,470.2z M431.2,471.9c-0.5,0-0.9-0.2-1.2-0.5
		c-0.3-0.3-0.5-0.7-0.5-1.2v-6.5h-14.8v30.9h22.9v-22.7H431.2z"/>
</g>
<text transform="matrix(1 0 0 1 454.3623 486.3506)" class="st0 st3 st4">Illustration</text>
<g>
	<path class="st0" d="M441,522.2v26.1c0,0.5-0.2,0.9-0.5,1.2c-0.3,0.3-0.7,0.5-1.2,0.5h-26.4c-0.4,0-0.8-0.2-1.2-0.5
		c-0.3-0.3-0.5-0.7-0.5-1.2V514c0-0.5,0.2-0.9,0.5-1.2c0.3-0.3,0.7-0.5,1.2-0.5h18.2c0.2,0,0.3,0,0.3,0c0.1,0,0.3,0,0.4,0.2
		c0.1,0,0.1,0,0.1,0.1c0.1,0,0.1,0.1,0.2,0.1s0.1,0.1,0.2,0.1l8.2,8.1c0,0.1,0.1,0.1,0.1,0.2s0.1,0.1,0.1,0.2c0.1,0,0.1,0,0.1,0.1
		c0.1,0.2,0.2,0.3,0.2,0.5C441,521.9,441,522.1,441,522.2z M431.2,523.9c-0.5,0-0.9-0.2-1.2-0.5c-0.3-0.3-0.5-0.7-0.5-1.2v-6.4
		h-14.8v30.9h22.9v-22.7L431.2,523.9L431.2,523.9z"/>
</g>
<text transform="matrix(1 0 0 1 454.3623 538.334)" class="st0 st3 st4">Photography</text>
<g>
	<path class="st0" d="M441,574.2v26.1c0,0.5-0.2,0.9-0.5,1.2c-0.3,0.3-0.7,0.5-1.2,0.5h-26.4c-0.4,0-0.8-0.2-1.2-0.5
		c-0.3-0.3-0.5-0.7-0.5-1.2V566c0-0.5,0.2-0.9,0.5-1.2c0.3-0.3,0.7-0.5,1.2-0.5h18.2c0.2,0,0.3,0,0.3,0c0.1,0,0.3,0,0.4,0.1
		c0.1,0,0.1,0,0.1,0.1c0.1,0,0.1,0.1,0.2,0.1c0,0,0.1,0.1,0.2,0.1l8.2,8.1c0,0.1,0.1,0.1,0.1,0.2s0.1,0.1,0.1,0.2
		c0.1,0,0.1,0,0.1,0.1c0.1,0.1,0.2,0.3,0.2,0.5C441,573.9,441,574,441,574.2z M431.2,575.9c-0.5,0-0.9-0.2-1.2-0.5
		c-0.3-0.3-0.5-0.7-0.5-1.2v-6.5h-14.8v30.9h22.9v-22.7H431.2z"/>
</g>
<text transform="matrix(1 0 0 1 454.3623 590.3174)" class="st0 st3 st4">Video</text>
<text transform="matrix(1 0 0 1 605.4824 105.8535)" class="st0 st3 st5">UI Toolkit</text>
<text transform="matrix(1 0 0 1 605.4824 128.2969)" class="st0 st3 st4">presents common UI </text>
<text transform="matrix(1 0 0 1 605.4824 142.6963)" class="st0 st3 st4">elements along with code </text>
<text transform="matrix(1 0 0 1 605.4824 157.0967)" class="st0 st3 st4">snippets and guidelines</text>
<line class="st1" x1="605.5" y1="89.2" x2="753.5" y2="89.2"/>
<g>
	<path class="st0" d="M635.3,211.9V238c0,0.5-0.2,0.9-0.5,1.2c-0.3,0.3-0.7,0.5-1.2,0.5h-26.4c-0.5,0-0.8-0.2-1.2-0.5
		c-0.3-0.3-0.5-0.7-0.5-1.2v-34.3c0-0.5,0.2-0.9,0.5-1.2c0.3-0.3,0.7-0.5,1.2-0.5h18.2c0.2,0,0.3,0,0.3,0c0.1,0,0.3,0.1,0.4,0.2
		c0.1,0,0.1,0,0.1,0.1c0.1,0,0.1,0.1,0.2,0.1c0,0,0.1,0.1,0.2,0.1l8.2,8.1c0,0.1,0.1,0.1,0.1,0.2c0,0,0.1,0.1,0.1,0.2
		c0.1,0,0.1,0,0.1,0.1c0.1,0.2,0.2,0.3,0.2,0.5C635.3,211.6,635.3,211.7,635.3,211.9z M625.4,213.6c-0.5,0-0.9-0.2-1.2-0.5
		c-0.3-0.3-0.5-0.7-0.5-1.2v-6.4h-14.8v30.9h22.9v-22.7L625.4,213.6L625.4,213.6z"/>
</g>
<text transform="matrix(1 0 0 1 648.6113 228.0039)" class="st0 st3 st4">Buttons</text>
<g>
	<path class="st0" d="M635.3,418.3v26.1c0,0.5-0.2,0.9-0.5,1.2c-0.3,0.3-0.7,0.5-1.2,0.5h-26.4c-0.5,0-0.8-0.2-1.2-0.5
		c-0.3-0.3-0.5-0.7-0.5-1.2v-34.3c0-0.5,0.2-0.9,0.5-1.2c0.3-0.3,0.7-0.5,1.2-0.5h18.2c0.2,0,0.3,0,0.3,0c0.1,0,0.3,0,0.4,0.1
		c0.1,0,0.1,0,0.1,0.1c0.1,0,0.1,0.1,0.2,0.1c0,0,0.1,0.1,0.2,0.1l8.2,8.1c0,0.1,0.1,0.1,0.1,0.2s0.1,0.1,0.1,0.2
		c0.1,0,0.1,0,0.1,0.1c0.1,0.1,0.2,0.3,0.2,0.5C635.3,418,635.3,418.1,635.3,418.3z M625.4,420c-0.5,0-0.9-0.2-1.2-0.5
		c-0.3-0.3-0.5-0.7-0.5-1.2v-6.4h-14.8v30.9h22.9V420H625.4L625.4,420z"/>
</g>
<text transform="matrix(1 0 0 1 648.6113 434.3672)" class="st0 st3 st4">Links</text>
<g>
	<path class="st2" d="M635.3,625.5v26.1c0,0.5-0.2,0.9-0.5,1.2c-0.3,0.3-0.7,0.5-1.2,0.5h-26.4c-0.5,0-0.8-0.2-1.2-0.5
		c-0.3-0.3-0.5-0.7-0.5-1.2v-34.3c0-0.5,0.2-0.9,0.5-1.2c0.3-0.3,0.7-0.5,1.2-0.5h18.2c0.2,0,0.3,0,0.3,0c0.1,0,0.3,0.1,0.4,0.2
		c0.1,0,0.1,0,0.1,0.1c0.1,0,0.1,0.1,0.2,0.1c0,0,0.1,0.1,0.2,0.1l8.2,8.1c0,0.1,0.1,0.1,0.1,0.2c0,0,0.1,0.1,0.1,0.2
		c0.1,0,0.1,0,0.1,0.1c0.1,0.1,0.2,0.3,0.2,0.5C635.3,625.2,635.3,625.4,635.3,625.5z M625.4,627.2c-0.5,0-0.9-0.2-1.2-0.5
		c-0.3-0.3-0.5-0.7-0.5-1.2v-6.5h-14.8V650h22.9v-22.7L625.4,627.2L625.4,627.2z"/>
</g>
<text transform="matrix(1 0 0 1 648.6113 641.6436)" class="st2 st3 st4">Tables</text>
<g>
	<path class="st2" d="M635.3,674.7v26.1c0,0.5-0.2,0.9-0.5,1.2c-0.3,0.3-0.7,0.5-1.2,0.5h-26.4c-0.5,0-0.8-0.2-1.2-0.5
		c-0.3-0.3-0.5-0.7-0.5-1.2v-34.3c0-0.5,0.2-0.9,0.5-1.2c0.3-0.3,0.7-0.5,1.2-0.5h18.2c0.2,0,0.3,0,0.3,0c0.1,0,0.3,0.1,0.4,0.2
		c0.1,0,0.1,0,0.1,0.1c0.1,0,0.1,0.1,0.2,0.1c0,0,0.1,0.1,0.2,0.1l8.2,8.1c0,0.1,0.1,0.1,0.1,0.2s0.1,0.1,0.1,0.2
		c0.1,0,0.1,0,0.1,0.1c0.1,0.2,0.2,0.3,0.2,0.5C635.3,674.4,635.3,674.5,635.3,674.7z M625.4,676.4c-0.5,0-0.9-0.2-1.2-0.5
		c-0.3-0.3-0.5-0.7-0.5-1.2v-6.5h-14.8v30.9h22.9v-22.7L625.4,676.4L625.4,676.4z"/>
</g>
<text transform="matrix(1 0 0 1 648.6113 690.7812)" class="st2 st3 st4">Tooltips</text>
<g>
	<path class="st0" d="M635.3,366.3v26.1c0,0.5-0.2,0.9-0.5,1.2c-0.3,0.3-0.7,0.5-1.2,0.5h-26.4c-0.5,0-0.8-0.2-1.2-0.5
		c-0.3-0.3-0.5-0.7-0.5-1.2v-34.3c0-0.5,0.2-0.9,0.5-1.2c0.3-0.3,0.7-0.5,1.2-0.5h18.2c0.2,0,0.3,0,0.3,0c0.1,0,0.3,0,0.4,0.1
		c0.1,0,0.1,0,0.1,0.1c0.1,0,0.1,0.1,0.2,0.1c0,0,0.1,0.1,0.2,0.1l8.2,8.1c0,0.1,0.1,0.1,0.1,0.2c0,0.1,0.1,0.1,0.1,0.2
		c0.1,0,0.1,0,0.1,0.1c0.1,0.1,0.2,0.3,0.2,0.5C635.3,366,635.3,366.1,635.3,366.3z M625.4,368c-0.5,0-0.9-0.2-1.2-0.5
		c-0.3-0.3-0.5-0.7-0.5-1.2v-6.4h-14.8v30.9h22.9V368H625.4L625.4,368z"/>
</g>
<text transform="matrix(1 0 0 1 648.6113 382.3848)" class="st0 st3 st4">Grid and layout</text>
<g>
	<path class="st0" d="M635.3,314.4v26.1c0,0.5-0.2,0.9-0.5,1.2c-0.3,0.3-0.7,0.5-1.2,0.5h-26.4c-0.5,0-0.8-0.2-1.2-0.5
		c-0.3-0.3-0.5-0.7-0.5-1.2v-34.3c0-0.5,0.2-0.9,0.5-1.2c0.3-0.3,0.7-0.5,1.2-0.5h18.2c0.2,0,0.3,0,0.3,0c0.1,0,0.3,0,0.4,0.1
		c0.1,0,0.1,0,0.1,0.1c0.1,0,0.1,0.1,0.2,0.1c0,0,0.1,0.1,0.2,0.1l8.2,8.1c0,0.1,0.1,0.1,0.1,0.2c0,0.1,0.1,0.1,0.1,0.2
		c0.1,0,0.1,0,0.1,0.1c0.1,0.1,0.2,0.3,0.2,0.5C635.3,314.1,635.3,314.2,635.3,314.4z M625.4,316.1c-0.5,0-0.9-0.2-1.2-0.5
		c-0.3-0.3-0.5-0.7-0.5-1.2v-6.4h-14.8v30.9h22.9v-22.7L625.4,316.1L625.4,316.1z"/>
</g>
<text transform="matrix(1 0 0 1 648.6113 330.498)" class="st0 st3 st4">Form fields</text>
<g>
	<path class="st2" d="M635.3,522.2v26.1c0,0.5-0.2,0.9-0.5,1.2c-0.3,0.3-0.7,0.5-1.2,0.5h-26.4c-0.5,0-0.8-0.2-1.2-0.5
		c-0.3-0.3-0.5-0.7-0.5-1.2V514c0-0.5,0.2-0.9,0.5-1.2c0.3-0.3,0.7-0.5,1.2-0.5h18.2c0.2,0,0.3,0,0.3,0c0.1,0,0.3,0.1,0.4,0.2
		c0.1,0,0.1,0,0.1,0.1c0.1,0,0.1,0.1,0.2,0.1c0,0,0.1,0.1,0.2,0.1l8.2,8.1c0,0.1,0.1,0.1,0.1,0.2c0,0,0.1,0.1,0.1,0.2
		c0.1,0,0.1,0,0.1,0.1c0.1,0.1,0.2,0.3,0.2,0.5C635.3,521.9,635.3,522,635.3,522.2z M625.4,523.9c-0.5,0-0.9-0.2-1.2-0.5
		c-0.3-0.3-0.5-0.7-0.5-1.2v-6.5h-14.8v30.9h22.9v-22.7H625.4L625.4,523.9z"/>
</g>
<text transform="matrix(1 0 0 1 648.6113 538.333)" class="st2 st3 st4">Pagination</text>
<g>
	<path class="st2" d="M635.3,470.2v26.1c0,0.5-0.2,0.9-0.5,1.2c-0.3,0.3-0.7,0.5-1.2,0.5h-26.4c-0.5,0-0.8-0.2-1.2-0.5
		c-0.3-0.3-0.5-0.7-0.5-1.2v-34.3c0-0.5,0.2-0.9,0.5-1.2c0.3-0.3,0.7-0.5,1.2-0.5h18.2c0.2,0,0.3,0,0.3,0c0.1,0,0.3,0,0.4,0.1
		c0.1,0,0.1,0,0.1,0.1c0.1,0,0.1,0.1,0.2,0.1c0,0,0.1,0.1,0.2,0.1l8.2,8.1c0,0.1,0.1,0.1,0.1,0.2c0,0.1,0.1,0.1,0.1,0.2
		c0.1,0,0.1,0,0.1,0.1c0.1,0.1,0.2,0.3,0.2,0.5C635.3,470,635.3,470.1,635.3,470.2z M625.4,471.9c-0.5,0-0.9-0.2-1.2-0.5
		c-0.3-0.3-0.5-0.7-0.5-1.2v-6.4h-14.8v30.9h22.9v-22.7L625.4,471.9L625.4,471.9z"/>
</g>
<text transform="matrix(1 0 0 1 648.6113 486.3535)" class="st2 st3 st4">Modals</text>
<g>
	<path class="st0" d="M635.3,263.9V290c0,0.5-0.2,0.9-0.5,1.2c-0.3,0.3-0.7,0.5-1.2,0.5h-26.4c-0.5,0-0.8-0.2-1.2-0.5
		c-0.3-0.3-0.5-0.7-0.5-1.2v-34.3c0-0.5,0.2-0.9,0.5-1.2c0.3-0.3,0.7-0.5,1.2-0.5h18.2c0.2,0,0.3,0,0.3,0c0.1,0,0.3,0.1,0.4,0.2
		c0.1,0,0.1,0,0.1,0.1c0.1,0,0.1,0.1,0.2,0.1c0,0,0.1,0.1,0.2,0.1l8.2,8.1c0,0.1,0.1,0.1,0.1,0.2s0.1,0.1,0.1,0.2
		c0.1,0,0.1,0,0.1,0.1c0.1,0.2,0.2,0.3,0.2,0.5C635.3,263.6,635.3,263.7,635.3,263.9z M625.4,265.6c-0.5,0-0.9-0.2-1.2-0.5
		c-0.3-0.3-0.5-0.7-0.5-1.2v-6.5h-14.8v30.9h22.9v-22.7L625.4,265.6L625.4,265.6z"/>
</g>
<text transform="matrix(1 0 0 1 648.6113 279.9893)" class="st0 st3 st4">Expandables</text>
<g>
	<path class="st2" d="M635.3,574.2v26.1c0,0.5-0.2,0.9-0.5,1.2c-0.3,0.3-0.7,0.5-1.2,0.5h-26.4c-0.5,0-0.8-0.2-1.2-0.5
		c-0.3-0.3-0.5-0.7-0.5-1.2V566c0-0.5,0.2-0.9,0.5-1.2c0.3-0.3,0.7-0.5,1.2-0.5h18.2c0.2,0,0.3,0,0.3,0c0.1,0,0.3,0,0.4,0.1
		c0.1,0,0.1,0,0.1,0.1c0.1,0,0.1,0.1,0.2,0.1c0,0,0.1,0.1,0.2,0.1l8.2,8.1c0,0.1,0.1,0.1,0.1,0.2c0,0.1,0.1,0.1,0.1,0.2
		c0.1,0,0.1,0,0.1,0.1c0.1,0.1,0.2,0.3,0.2,0.4C635.3,573.9,635.3,574,635.3,574.2z M625.4,575.9c-0.5,0-0.9-0.2-1.2-0.5
		c-0.3-0.3-0.5-0.7-0.5-1.2v-6.4h-14.8v30.9h22.9v-22.7H625.4L625.4,575.9z"/>
</g>
<text transform="matrix(1 0 0 1 648.6113 590.3193)" class="st2 st3 st4">Tabs</text>
<text transform="matrix(1 0 0 1 215.9858 129.4336)" class="st0 st3 st4">strategies and guiding </text>
<text transform="matrix(1 0 0 1 215.9858 143.834)" class="st0 st3 st4">principles for building </text>
<text transform="matrix(1 0 0 1 215.9858 158.2334)" class="st0 st3 st4">effective, accessible, and </text>
<text transform="matrix(1 0 0 1 215.9858 172.6338)" class="st0 st3 st4">user-centered products </text>
<text transform="matrix(1 0 0 1 215.9858 187.0332)" class="st0 st3 st4">and services</text>
<text transform="matrix(1 0 0 1 411.4883 129.4336)" class="st0 st3 st4">visual expression of the CFPB</text>
</svg>
