<?xml version="1.0" encoding="utf-8"?>
<!-- Generator: Adobe Illustrator 16.0.4, SVG Export Plug-In . SVG Version: 6.00 Build 0)  -->
<!DOCTYPE svg PUBLIC "-//W3C//DTD SVG 1.1//EN" "http://www.w3.org/Graphics/SVG/1.1/DTD/svg11.dtd">
<svg version="1.1" id="Layer_1" xmlns="http://www.w3.org/2000/svg" xmlns:xlink="http://www.w3.org/1999/xlink" x="0px" y="0px"
	 width="1498px" height="792px" viewBox="0 0 1498 792" enable-background="new 0 0 1498 792" xml:space="preserve">
<g>
	<g>
		<path fill="#202020" d="M245.307,315.863v26.14c0,0.479-0.164,0.88-0.49,1.207c-0.327,0.327-0.742,0.49-1.245,0.49h-26.367
			c-0.452,0-0.849-0.163-1.188-0.49c-0.34-0.327-0.51-0.729-0.51-1.207v-34.325c0-0.478,0.17-0.88,0.51-1.207
			c0.339-0.327,0.735-0.491,1.188-0.491h18.219c0.176,0,0.289,0.013,0.34,0.038c0.125,0,0.264,0.05,0.414,0.151
			c0.076,0,0.113,0.025,0.113,0.075c0.076,0.025,0.139,0.057,0.189,0.094c0.05,0.038,0.1,0.082,0.15,0.132l8.186,8.11
			c0.05,0.075,0.094,0.138,0.132,0.188c0.038,0.05,0.069,0.112,0.095,0.188c0.05,0,0.075,0.038,0.075,0.113
			c0.101,0.15,0.15,0.302,0.15,0.453C245.294,315.574,245.307,315.688,245.307,315.863z M235.424,317.561
			c-0.453,0-0.849-0.169-1.188-0.51c-0.34-0.339-0.51-0.734-0.51-1.188v-6.45h-14.785v30.894h22.896v-22.746H235.424z"/>
	</g>
	<text transform="matrix(1 0 0 1 258.6362 331.9707)" fill="#202020" font-family="'AvenirNext-DemiBold'" font-size="12">UX Checklist</text>
</g>
<g>
	<text transform="matrix(1 0 0 1 795.9785 105.6973)" fill="#231F20" font-family="'AvenirNext-Regular'" font-size="14">Downloads</text>
	<rect x="795.979" y="119.068" fill="none" width="148" height="75"/>
	<text transform="matrix(1 0 0 1 795.9785 128.1396)"><tspan x="0" y="0" fill="#231F20" font-family="'AvenirNext-Regular'" font-size="12">offers icon sets, logo </tspan><tspan x="0" y="14.4" fill="#231F20" font-family="'AvenirNext-Regular'" font-size="12">assets, mockup templates, </tspan><tspan x="0" y="28.8" fill="#231F20" font-family="'AvenirNext-Regular'" font-size="12">and a PDF version of our </tspan><tspan x="0" y="43.2" fill="#231F20" font-family="'AvenirNext-Regular'" font-size="12">brand guidelines</tspan></text>
	<line fill="none" stroke="#231F20" stroke-width="2" stroke-miterlimit="10" x1="795.979" y1="89.068" x2="943.979" y2="89.068"/>
</g>
<g>
	<g>
		<path fill="#202020" d="M823.55,209.803v26.14c0,0.478-0.164,0.88-0.49,1.207c-0.327,0.327-0.742,0.49-1.245,0.49h-26.366
			c-0.452,0-0.849-0.163-1.188-0.49c-0.34-0.327-0.51-0.729-0.51-1.207v-34.325c0-0.478,0.17-0.88,0.51-1.207
			c0.339-0.326,0.735-0.49,1.188-0.49h18.219c0.176,0,0.289,0.013,0.34,0.038c0.125,0,0.264,0.05,0.414,0.151
			c0.076,0,0.113,0.024,0.113,0.074c0.076,0.025,0.139,0.057,0.189,0.095c0.05,0.038,0.1,0.082,0.15,0.132l8.186,8.11
			c0.05,0.075,0.094,0.138,0.132,0.188s0.069,0.113,0.095,0.188c0.05,0,0.075,0.038,0.075,0.113c0.101,0.151,0.15,0.302,0.15,0.452
			C823.537,209.514,823.55,209.627,823.55,209.803z M813.667,211.5c-0.453,0-0.849-0.17-1.188-0.51
			c-0.34-0.339-0.51-0.734-0.51-1.188v-6.45h-14.786v30.893h22.896V211.5H813.667z"/>
	</g>
	<text transform="matrix(1 0 0 1 836.8789 225.9102)" fill="#202020" font-family="'AvenirNext-DemiBold'" font-size="12">Minicon font/assets</text>
</g>
<g>
	<g>
		<path fill="#202020" d="M823.55,261.787v26.139c0,0.479-0.164,0.881-0.49,1.207c-0.327,0.328-0.742,0.491-1.245,0.491h-26.366
			c-0.452,0-0.849-0.163-1.188-0.491c-0.34-0.326-0.51-0.729-0.51-1.207v-34.324c0-0.479,0.17-0.881,0.51-1.207
			c0.339-0.327,0.735-0.49,1.188-0.49h18.219c0.176,0,0.289,0.012,0.34,0.037c0.125,0,0.264,0.051,0.414,0.151
			c0.076,0,0.113,0.024,0.113,0.075c0.076,0.025,0.139,0.057,0.189,0.094c0.05,0.039,0.1,0.082,0.15,0.133l8.186,8.109
			c0.05,0.076,0.094,0.139,0.132,0.189c0.038,0.05,0.069,0.113,0.095,0.188c0.05,0,0.075,0.038,0.075,0.113
			c0.101,0.151,0.15,0.303,0.15,0.453C823.537,261.498,823.55,261.611,823.55,261.787z M813.667,263.484
			c-0.453,0-0.849-0.17-1.188-0.51c-0.34-0.34-0.51-0.735-0.51-1.188v-6.451h-14.786v30.893h22.896v-22.744H813.667z"/>
	</g>
	<text transform="matrix(1 0 0 1 836.8789 277.894)" fill="#202020" font-family="'AvenirNext-DemiBold'" font-size="12">Logo suite</text>
</g>
<g>
	<path fill="#231F20" d="M823.55,314.162v26.141c0,0.477-0.164,0.879-0.49,1.207c-0.328,0.326-0.742,0.49-1.246,0.49h-26.365
		c-0.453,0-0.85-0.164-1.188-0.49c-0.339-0.328-0.509-0.73-0.509-1.207v-34.326c0-0.477,0.17-0.879,0.509-1.207
		c0.339-0.326,0.735-0.49,1.188-0.49h18.219c0.176,0,0.289,0.014,0.34,0.039c0.125,0,0.264,0.049,0.414,0.15
		c0.076,0,0.113,0.025,0.113,0.074c0.076,0.025,0.139,0.057,0.188,0.096c0.05,0.037,0.101,0.082,0.151,0.131l8.186,8.111
		c0.049,0.074,0.094,0.137,0.131,0.188c0.038,0.051,0.07,0.113,0.095,0.189c0.05,0,0.075,0.037,0.075,0.113
		c0.102,0.15,0.15,0.301,0.15,0.451C823.536,313.873,823.55,313.986,823.55,314.162z M813.667,315.859
		c-0.453,0-0.85-0.17-1.188-0.51c-0.339-0.338-0.509-0.734-0.509-1.188v-6.449h-14.787v30.893h22.896v-22.746H813.667z
		 M804.368,319.084c0.314,0.314,0.473,0.699,0.473,1.15v3.66c0,0.453-0.158,0.836-0.473,1.15s-0.697,0.471-1.15,0.471h-1.885v4.867
		c0,0.176-0.063,0.326-0.189,0.451c-0.125,0.127-0.276,0.189-0.453,0.189c-0.201,0-0.37-0.062-0.509-0.189
		c-0.138-0.125-0.208-0.275-0.208-0.451v-11.09c0-0.201,0.07-0.365,0.208-0.49c0.139-0.127,0.308-0.189,0.509-0.189h2.527
		C803.671,318.613,804.054,318.77,804.368,319.084z M803.218,319.971h-1.885v4.188h1.885c0.176,0,0.265-0.088,0.265-0.264v-3.66
		C803.482,320.059,803.394,319.971,803.218,319.971z M811.063,319.406c0.479,0.527,0.717,1.193,0.717,1.998v6.865
		c0,0.779-0.238,1.434-0.717,1.961c-0.477,0.529-1.043,0.793-1.697,0.793h-2.414c-0.201,0-0.371-0.062-0.509-0.189
		c-0.138-0.125-0.208-0.275-0.208-0.451v-11.09c0-0.201,0.07-0.365,0.208-0.49c0.138-0.127,0.308-0.189,0.509-0.189h2.414
		C810.021,318.613,810.587,318.877,811.063,319.406z M810.064,320.404c-0.188-0.289-0.421-0.434-0.698-0.434h-1.772v9.695h1.772
		c0.277,0,0.51-0.139,0.698-0.416c0.188-0.275,0.282-0.604,0.282-0.98v-6.865C810.347,321.027,810.253,320.695,810.064,320.404z
		 M813.364,318.803c0.127-0.127,0.277-0.189,0.453-0.189h2.754c0.201,0,0.371,0.062,0.509,0.189c0.139,0.125,0.208,0.289,0.208,0.49
		s-0.069,0.363-0.208,0.49c-0.138,0.125-0.308,0.188-0.509,0.188h-2.037v4.188h2.037c0.201,0,0.371,0.062,0.509,0.189
		c0.139,0.125,0.208,0.275,0.208,0.451c0,0.479-0.239,0.717-0.717,0.717h-2.037v4.867c0,0.176-0.069,0.326-0.207,0.451
		c-0.139,0.127-0.309,0.189-0.51,0.189c-0.176,0-0.326-0.062-0.453-0.189c-0.125-0.125-0.188-0.275-0.188-0.451v-11.09
		C813.177,319.092,813.239,318.928,813.364,318.803z"/>
</g>
<text transform="matrix(1 0 0 1 836.8789 325.2686)"><tspan x="0" y="0" fill="#231F20" font-family="'AvenirNext-DemiBold'" font-size="12">Brand 2.0 Design </tspan><tspan x="0" y="14.4" fill="#231F20" font-family="'AvenirNext-DemiBold'" font-size="12">Style Guide</tspan></text>
<text transform="matrix(1 0 0 1 20.7378 43.8789)" font-family="'AvenirNext-DemiBold'" font-size="21">CFPB Design Manual Site Map</text>
<g>
	<text transform="matrix(1 0 0 1 215.9858 106.6289)" font-family="'AvenirNext-Regular'" font-size="14">Guides</text>
	<rect x="215.986" y="120" fill="none" width="148" height="69"/>
	<text transform="matrix(1 0 0 1 215.9858 129.0723)" font-family="'AvenirNext-Regular'" font-size="12">covers different design </text>
	<text transform="matrix(1 0 0 1 215.9858 143.4717)" font-family="'AvenirNext-Regular'" font-size="12">topics sharing best </text>
	<text transform="matrix(1 0 0 1 215.9858 157.8721)" font-family="'AvenirNext-Regular'" font-size="12">practices, experiences, </text>
	<text transform="matrix(1 0 0 1 215.9858 172.2715)" font-family="'AvenirNext-Regular'" font-size="12">and useful approaches</text>
	<line fill="none" stroke="#000000" stroke-width="2" stroke-miterlimit="10" x1="215.986" y1="90" x2="363.986" y2="90"/>
</g>
<g>
	<g>
		<path d="M245.785,264.656v26.14c0,0.478-0.164,0.88-0.49,1.207c-0.327,0.327-0.742,0.49-1.245,0.49h-26.366
			c-0.452,0-0.849-0.163-1.188-0.49c-0.34-0.327-0.51-0.729-0.51-1.207v-34.325c0-0.478,0.17-0.88,0.51-1.207
			c0.339-0.327,0.735-0.491,1.188-0.491h18.219c0.176,0,0.289,0.013,0.34,0.038c0.125,0,0.264,0.05,0.414,0.151
			c0.076,0,0.113,0.025,0.113,0.075c0.076,0.025,0.139,0.057,0.189,0.094c0.05,0.038,0.1,0.082,0.15,0.132l8.186,8.11
			c0.05,0.075,0.094,0.138,0.132,0.188c0.038,0.05,0.069,0.113,0.095,0.188c0.05,0,0.075,0.038,0.075,0.113
			c0.101,0.151,0.15,0.302,0.15,0.453C245.772,264.367,245.785,264.48,245.785,264.656z M235.902,266.354
			c-0.453,0-0.849-0.169-1.188-0.509c-0.34-0.339-0.51-0.735-0.51-1.188v-6.45h-14.786V289.1h22.896v-22.745L235.902,266.354
			L235.902,266.354z"/>
	</g>
	<text transform="matrix(1 0 0 1 259.1143 270.7637)" font-family="'AvenirNext-DemiBold'" font-size="12">Accessible interfaces</text>
	<text transform="matrix(1 0 0 1 259.1143 285.1641)" font-family="'AvenirNext-DemiBold'" font-size="12">(Accessibility)</text>
</g>
<g>
	<g>
		<path d="M245.785,372.979v26.141c0,0.478-0.164,0.88-0.49,1.207c-0.327,0.327-0.742,0.489-1.245,0.489h-26.366
			c-0.452,0-0.849-0.162-1.188-0.489c-0.34-0.327-0.51-0.729-0.51-1.207v-34.325c0-0.479,0.17-0.88,0.51-1.207
			c0.339-0.327,0.735-0.491,1.188-0.491h18.219c0.176,0,0.289,0.013,0.34,0.038c0.125,0,0.264,0.05,0.414,0.151
			c0.076,0,0.113,0.024,0.113,0.075c0.076,0.024,0.139,0.057,0.189,0.094c0.05,0.038,0.1,0.082,0.15,0.132l8.186,8.11
			c0.05,0.074,0.094,0.138,0.132,0.188c0.038,0.05,0.069,0.113,0.095,0.188c0.05,0,0.075,0.037,0.075,0.112
			c0.101,0.151,0.15,0.303,0.15,0.453C245.772,372.689,245.785,372.803,245.785,372.979z M235.902,374.676
			c-0.453,0-0.849-0.169-1.188-0.509c-0.34-0.339-0.51-0.735-0.51-1.188v-6.449h-14.786v30.893h22.896v-22.745L235.902,374.676
			L235.902,374.676z"/>
	</g>
	<text transform="matrix(1 0 0 1 259.1143 379.0859)" font-family="'AvenirNext-DemiBold'" font-size="12">Effective forms </text>
	<text transform="matrix(1 0 0 1 259.1143 393.4863)" font-family="'AvenirNext-DemiBold'" font-size="12">(Form guidelines)</text>
</g>
<g>
	<g>
		<path d="M245.785,424.962v26.14c0,0.479-0.164,0.88-0.49,1.207c-0.327,0.327-0.742,0.49-1.245,0.49h-26.366
			c-0.452,0-0.849-0.163-1.188-0.49c-0.34-0.327-0.51-0.729-0.51-1.207v-34.325c0-0.478,0.17-0.88,0.51-1.206
			c0.339-0.327,0.735-0.491,1.188-0.491h18.219c0.176,0,0.289,0.013,0.34,0.038c0.125,0,0.264,0.05,0.414,0.15
			c0.076,0,0.113,0.025,0.113,0.075c0.076,0.025,0.139,0.057,0.189,0.094c0.05,0.038,0.1,0.082,0.15,0.133l8.186,8.109
			c0.05,0.075,0.094,0.138,0.132,0.188c0.038,0.05,0.069,0.112,0.095,0.188c0.05,0,0.075,0.038,0.075,0.113
			c0.101,0.15,0.15,0.302,0.15,0.453C245.772,424.673,245.785,424.786,245.785,424.962z M235.902,426.659
			c-0.453,0-0.849-0.169-1.188-0.51c-0.34-0.339-0.51-0.734-0.51-1.188v-6.45h-14.786v30.894h22.896v-22.746H235.902z"/>
	</g>
	<text transform="matrix(1 0 0 1 259.1143 432.0693)" font-family="'AvenirNext-DemiBold'" font-size="12">Filtering patterns</text>
	<text transform="matrix(1 0 0 1 259.1143 446.4697)" font-family="'AvenirNext-DemiBold'" font-size="12">(Filtering)</text>
</g>
<g>
	<g>
		<path d="M245.785,212.672v26.14c0,0.478-0.164,0.88-0.49,1.207c-0.327,0.327-0.742,0.49-1.245,0.49h-26.366
			c-0.452,0-0.849-0.163-1.188-0.49c-0.34-0.327-0.51-0.729-0.51-1.207v-34.325c0-0.478,0.17-0.88,0.51-1.207
			c0.339-0.327,0.735-0.491,1.188-0.491h18.219c0.176,0,0.289,0.013,0.34,0.038c0.125,0,0.264,0.05,0.414,0.151
			c0.076,0,0.113,0.025,0.113,0.075c0.076,0.025,0.139,0.057,0.189,0.094c0.05,0.038,0.1,0.082,0.15,0.132l8.186,8.11
			c0.05,0.075,0.094,0.138,0.132,0.188c0.038,0.05,0.069,0.113,0.095,0.188c0.05,0,0.075,0.038,0.075,0.113
			c0.101,0.151,0.15,0.302,0.15,0.453C245.772,212.383,245.785,212.496,245.785,212.672z M235.902,214.369
			c-0.453,0-0.849-0.169-1.188-0.509c-0.34-0.339-0.51-0.735-0.51-1.188v-6.45h-14.786v30.893h22.896V214.37L235.902,214.369
			L235.902,214.369z"/>
	</g>
	<text transform="matrix(1 0 0 1 259.1143 218.7793)" font-family="'AvenirNext-DemiBold'" font-size="12">Design best practices</text>
	<text transform="matrix(1 0 0 1 259.1143 233.1797)" font-family="'AvenirNext-DemiBold'" font-size="12">(Design guidelines)</text>
</g>
<g>
	<text transform="matrix(1 0 0 1 20.7378 106.1543)" font-family="'AvenirNext-Regular'" font-size="14">Overview</text>
	<rect x="20.738" y="119.524" fill="none" width="148" height="38"/>
	<text transform="matrix(1 0 0 1 20.7378 128.5957)" font-family="'AvenirNext-Regular'" font-size="12">introduces the manual and </text>
	<text transform="matrix(1 0 0 1 20.7378 142.9961)" font-family="'AvenirNext-Regular'" font-size="12">the CFPB design </text>
	<text transform="matrix(1 0 0 1 20.7378 157.3965)" enable-background="new    "><tspan x="0" y="0" font-family="'AvenirNext-Regular'" font-size="12">philosophy (goals and </tspan><tspan x="0" y="14.4" font-family="'AvenirNext-Regular'" font-size="12">design principles)</tspan></text>
	<line fill="none" stroke="#000000" stroke-width="2" stroke-miterlimit="10" x1="20.738" y1="89.524" x2="168.738" y2="89.524"/>
</g>
<g>
	<g>
		<path fill="#202020" d="M51.026,210.327v26.14c0,0.478-0.164,0.88-0.49,1.207c-0.327,0.327-0.742,0.49-1.245,0.49H22.924
			c-0.452,0-0.849-0.163-1.188-0.49c-0.34-0.327-0.51-0.729-0.51-1.207v-34.325c0-0.478,0.17-0.88,0.51-1.207
			c0.339-0.327,0.735-0.491,1.188-0.491h18.219c0.176,0,0.289,0.013,0.34,0.038c0.125,0,0.264,0.05,0.414,0.151
			c0.076,0,0.113,0.025,0.113,0.075c0.076,0.025,0.139,0.057,0.189,0.094c0.05,0.038,0.1,0.082,0.15,0.132l8.186,8.11
			c0.05,0.075,0.094,0.138,0.132,0.188c0.038,0.05,0.069,0.113,0.095,0.188c0.05,0,0.075,0.038,0.075,0.113
			c0.101,0.151,0.15,0.302,0.15,0.453C51.013,210.038,51.026,210.151,51.026,210.327z M41.143,212.024
			c-0.453,0-0.849-0.169-1.188-0.509c-0.34-0.339-0.51-0.735-0.51-1.188v-6.45H24.66v30.893h22.896v-22.745L41.143,212.024
			L41.143,212.024z"/>
	</g>
	<text transform="matrix(1 0 0 1 64.3555 226.4336)" fill="#202020" font-family="'AvenirNext-DemiBold'" font-size="12">Homepage </text>
</g>
<g>
	<text transform="matrix(1 0 0 1 411.2339 106.6289)" font-family="'AvenirNext-Regular'" font-size="14">Identity</text>
	<rect x="411.234" y="120" fill="none" width="148" height="38"/>
	<text transform="matrix(1 0 0 1 411.2339 129.0723)" font-family="'AvenirNext-Regular'" font-size="12">covers the CFPB visual </text>
	<text transform="matrix(1 0 0 1 411.2339 143.4717)" font-family="'AvenirNext-Regular'" font-size="12">brand</text>
	<line fill="none" stroke="#000000" stroke-width="2" stroke-miterlimit="10" x1="411.234" y1="90" x2="559.234" y2="90"/>
</g>
<g>
	<g>
		<path fill="#202020" d="M441.033,262.405v26.14c0,0.478-0.164,0.88-0.49,1.207c-0.327,0.327-0.742,0.49-1.245,0.49h-26.366
			c-0.451,0-0.849-0.163-1.188-0.49c-0.34-0.327-0.51-0.729-0.51-1.207V254.22c0-0.478,0.17-0.88,0.51-1.207
			c0.339-0.326,0.734-0.49,1.188-0.49h18.22c0.176,0,0.289,0.013,0.34,0.038c0.125,0,0.264,0.05,0.414,0.151
			c0.075,0,0.112,0.024,0.112,0.074c0.076,0.025,0.14,0.057,0.189,0.095s0.1,0.082,0.15,0.132l8.186,8.11
			c0.05,0.075,0.094,0.138,0.132,0.188c0.038,0.05,0.069,0.113,0.095,0.188c0.051,0,0.075,0.038,0.075,0.113
			c0.102,0.151,0.15,0.302,0.15,0.452C441.02,262.116,441.033,262.229,441.033,262.405z M431.15,264.103
			c-0.453,0-0.85-0.17-1.188-0.51c-0.34-0.339-0.51-0.734-0.51-1.188v-6.45h-14.786v30.893h22.896v-22.745H431.15z"/>
	</g>
	<text transform="matrix(1 0 0 1 454.3623 278.5127)" fill="#202020" font-family="'AvenirNext-DemiBold'" font-size="12">Logo </text>
</g>
<g>
	<g>
		<path fill="#202020" d="M441.033,314.389v26.141c0,0.478-0.164,0.88-0.49,1.207c-0.327,0.326-0.742,0.489-1.245,0.489h-26.366
			c-0.451,0-0.849-0.163-1.188-0.489c-0.34-0.327-0.51-0.729-0.51-1.207v-34.325c0-0.478,0.17-0.88,0.51-1.207
			c0.339-0.326,0.734-0.49,1.188-0.49h18.22c0.176,0,0.289,0.013,0.34,0.038c0.125,0,0.264,0.05,0.414,0.151
			c0.075,0,0.112,0.024,0.112,0.074c0.076,0.025,0.14,0.057,0.189,0.095c0.05,0.038,0.1,0.082,0.15,0.132l8.186,8.11
			c0.05,0.074,0.094,0.138,0.132,0.188s0.069,0.113,0.095,0.188c0.051,0,0.075,0.037,0.075,0.112c0.102,0.151,0.15,0.303,0.15,0.452
			C441.02,314.1,441.033,314.213,441.033,314.389z M431.15,316.086c-0.453,0-0.85-0.17-1.188-0.51
			c-0.34-0.339-0.51-0.734-0.51-1.188v-6.45h-14.786v30.894h22.896v-22.745H431.15z"/>
	</g>
	<text transform="matrix(1 0 0 1 454.3623 323.4961)" fill="#202020" font-family="'AvenirNext-DemiBold'" font-size="12">Typography</text>
	<text transform="matrix(1 0 0 1 454.3623 337.8965)" fill="#202020" font-family="'AvenirNext-DemiBold'" font-size="12">Principles</text>
</g>
<g>
	<g>
		<path fill="#202020" d="M441.033,209.802v26.14c0,0.479-0.164,0.88-0.49,1.207c-0.327,0.327-0.742,0.49-1.245,0.49h-26.366
			c-0.451,0-0.849-0.163-1.188-0.49c-0.34-0.327-0.51-0.729-0.51-1.207v-34.324c0-0.479,0.17-0.881,0.51-1.207
			c0.339-0.326,0.734-0.49,1.188-0.49h18.22c0.176,0,0.289,0.013,0.34,0.038c0.125,0,0.264,0.05,0.414,0.15
			c0.075,0,0.112,0.024,0.112,0.074c0.076,0.025,0.14,0.057,0.189,0.095s0.1,0.082,0.15,0.133l8.186,8.109
			c0.05,0.075,0.094,0.138,0.132,0.188c0.038,0.05,0.069,0.112,0.095,0.188c0.051,0,0.075,0.038,0.075,0.113
			c0.102,0.151,0.15,0.302,0.15,0.452C441.019,209.513,441.033,209.626,441.033,209.802z M431.15,211.499
			c-0.453,0-0.85-0.17-1.188-0.511c-0.34-0.339-0.51-0.733-0.51-1.188v-6.45h-14.786v30.894h22.896v-22.745H431.15z"/>
	</g>
	<text transform="matrix(1 0 0 1 454.3618 225.9092)" fill="#202020" font-family="'AvenirNext-DemiBold'" font-size="12">Brand guidelines</text>
</g>
<g>
	<g>
		<path fill="#202020" d="M441.033,366.372v26.14c0,0.479-0.164,0.88-0.49,1.207c-0.327,0.327-0.742,0.49-1.245,0.49h-26.366
			c-0.451,0-0.849-0.163-1.188-0.49c-0.34-0.327-0.51-0.729-0.51-1.207v-34.324c0-0.479,0.17-0.881,0.51-1.207
			c0.339-0.326,0.734-0.49,1.188-0.49h18.22c0.176,0,0.289,0.013,0.34,0.038c0.125,0,0.264,0.05,0.414,0.15
			c0.075,0,0.112,0.024,0.112,0.074c0.076,0.025,0.14,0.057,0.189,0.095s0.1,0.082,0.15,0.133l8.186,8.109
			c0.05,0.075,0.094,0.138,0.132,0.188c0.038,0.05,0.069,0.112,0.095,0.188c0.051,0,0.075,0.038,0.075,0.113
			c0.102,0.151,0.15,0.302,0.15,0.452C441.02,366.083,441.033,366.196,441.033,366.372z M431.15,368.069
			c-0.453,0-0.85-0.17-1.188-0.511c-0.34-0.339-0.51-0.733-0.51-1.188v-6.45h-14.786v30.894h22.896v-22.745H431.15z"/>
	</g>
	<text transform="matrix(1 0 0 1 454.3623 382.4795)" fill="#202020" font-family="'AvenirNext-DemiBold'" font-size="12">Color Principles</text>
</g>
<g>
	<g>
		<path fill="#202020" d="M441.033,418.355v26.14c0,0.478-0.164,0.88-0.49,1.207c-0.327,0.327-0.742,0.49-1.245,0.49h-26.366
			c-0.451,0-0.849-0.163-1.188-0.49c-0.34-0.327-0.51-0.729-0.51-1.207V410.17c0-0.478,0.17-0.88,0.51-1.207
			c0.339-0.326,0.734-0.49,1.188-0.49h18.22c0.176,0,0.289,0.014,0.34,0.038c0.125,0,0.264,0.05,0.414,0.151
			c0.075,0,0.112,0.023,0.112,0.074c0.076,0.024,0.14,0.057,0.189,0.095s0.1,0.082,0.15,0.132l8.186,8.11
			c0.05,0.075,0.094,0.138,0.132,0.188s0.069,0.113,0.095,0.188c0.051,0,0.075,0.038,0.075,0.112c0.102,0.151,0.15,0.303,0.15,0.452
			C441.02,418.066,441.033,418.18,441.033,418.355z M431.15,420.053c-0.453,0-0.85-0.17-1.188-0.51
			c-0.34-0.339-0.51-0.734-0.51-1.188v-6.45h-14.786v30.893h22.896v-22.745H431.15z"/>
	</g>
	<text transform="matrix(1 0 0 1 454.3623 434.4629)" fill="#202020" font-family="'AvenirNext-DemiBold'" font-size="12">Minicons </text>
</g>
<g>
	<g>
		<path fill="#202020" d="M441.033,470.339v26.14c0,0.479-0.164,0.881-0.49,1.207c-0.327,0.327-0.742,0.49-1.245,0.49h-26.366
			c-0.451,0-0.849-0.163-1.188-0.49c-0.34-0.326-0.51-0.729-0.51-1.207v-34.324c0-0.479,0.17-0.88,0.51-1.207
			c0.339-0.326,0.734-0.49,1.188-0.49h18.22c0.176,0,0.289,0.013,0.34,0.038c0.125,0,0.264,0.05,0.414,0.151
			c0.075,0,0.112,0.023,0.112,0.073c0.076,0.025,0.14,0.058,0.189,0.096c0.05,0.037,0.1,0.082,0.15,0.132l8.186,8.109
			c0.05,0.075,0.094,0.139,0.132,0.188s0.069,0.113,0.095,0.188c0.051,0,0.075,0.038,0.075,0.113c0.102,0.151,0.15,0.302,0.15,0.452
			C441.02,470.05,441.033,470.163,441.033,470.339z M431.15,472.036c-0.453,0-0.85-0.17-1.188-0.51
			c-0.34-0.339-0.51-0.734-0.51-1.188v-6.45h-14.786v30.894h22.896v-22.745H431.15z"/>
	</g>
	<text transform="matrix(1 0 0 1 454.3623 486.4463)" fill="#202020" font-family="'AvenirNext-DemiBold'" font-size="12">Isocons </text>
</g>
<g>
	<g>
		<path fill="#202020" d="M441.033,522.322v26.14c0,0.479-0.164,0.88-0.49,1.207c-0.327,0.327-0.742,0.49-1.245,0.49h-26.366
			c-0.451,0-0.849-0.163-1.188-0.49c-0.34-0.327-0.51-0.729-0.51-1.207v-34.325c0-0.478,0.17-0.88,0.51-1.207
			c0.339-0.325,0.734-0.489,1.188-0.489h18.22c0.176,0,0.289,0.013,0.34,0.038c0.125,0,0.264,0.05,0.414,0.15
			c0.075,0,0.112,0.024,0.112,0.074c0.076,0.025,0.14,0.057,0.189,0.095s0.1,0.082,0.15,0.132l8.186,8.11
			c0.05,0.075,0.094,0.138,0.132,0.188c0.038,0.05,0.069,0.112,0.095,0.188c0.051,0,0.075,0.038,0.075,0.113
			c0.102,0.15,0.15,0.302,0.15,0.452C441.02,522.033,441.033,522.146,441.033,522.322z M431.15,524.02
			c-0.453,0-0.85-0.17-1.188-0.51c-0.34-0.339-0.51-0.733-0.51-1.188v-6.45h-14.786v30.893h22.896V524.02H431.15z"/>
	</g>
	<text transform="matrix(1 0 0 1 454.3623 538.4297)" fill="#202020" font-family="'AvenirNext-DemiBold'" font-size="12">Illustration </text>
</g>
<g>
	<g>
		<path fill="#202020" d="M441.033,574.306v26.141c0,0.478-0.164,0.88-0.49,1.207c-0.327,0.327-0.742,0.489-1.245,0.489h-26.366
			c-0.451,0-0.849-0.162-1.188-0.489c-0.34-0.327-0.51-0.729-0.51-1.207V566.12c0-0.479,0.17-0.88,0.51-1.207
			c0.339-0.326,0.734-0.49,1.188-0.49h18.22c0.176,0,0.289,0.013,0.34,0.038c0.125,0,0.264,0.05,0.414,0.151
			c0.075,0,0.112,0.023,0.112,0.073c0.076,0.025,0.14,0.058,0.189,0.096s0.1,0.082,0.15,0.132l8.186,8.11
			c0.05,0.074,0.094,0.138,0.132,0.188s0.069,0.113,0.095,0.188c0.051,0,0.075,0.038,0.075,0.112c0.102,0.151,0.15,0.303,0.15,0.452
			C441.02,574.017,441.033,574.13,441.033,574.306z M431.15,576.003c-0.453,0-0.85-0.17-1.188-0.51
			c-0.34-0.339-0.51-0.734-0.51-1.188v-6.449h-14.786v30.893h22.896v-22.745H431.15z"/>
	</g>
	<text transform="matrix(1 0 0 1 454.3623 590.4131)" fill="#202020" font-family="'AvenirNext-DemiBold'" font-size="12">Photography </text>
</g>
<g>
	<g>
		<path fill="#202020" d="M441.033,626.289v26.14c0,0.479-0.164,0.88-0.49,1.207c-0.327,0.327-0.742,0.49-1.245,0.49h-26.366
			c-0.451,0-0.849-0.163-1.188-0.49c-0.34-0.327-0.51-0.729-0.51-1.207v-34.325c0-0.478,0.17-0.88,0.51-1.206
			c0.339-0.326,0.734-0.49,1.188-0.49h18.22c0.176,0,0.289,0.013,0.34,0.038c0.125,0,0.264,0.05,0.414,0.15
			c0.075,0,0.112,0.024,0.112,0.074c0.076,0.025,0.14,0.057,0.189,0.095s0.1,0.082,0.15,0.133l8.186,8.109
			c0.05,0.075,0.094,0.138,0.132,0.188c0.038,0.05,0.069,0.112,0.095,0.188c0.051,0,0.075,0.038,0.075,0.113
			c0.102,0.15,0.15,0.302,0.15,0.452C441.02,626,441.033,626.113,441.033,626.289z M431.15,627.986c-0.453,0-0.85-0.17-1.188-0.511
			c-0.34-0.339-0.51-0.733-0.51-1.188v-6.45h-14.786v30.894h22.896v-22.745H431.15z"/>
	</g>
	<text transform="matrix(1 0 0 1 454.3623 642.3965)" fill="#202020" font-family="'AvenirNext-DemiBold'" font-size="12">Video </text>
</g>
<g>
	<text transform="matrix(1 0 0 1 605.4824 105.8535)" font-family="'AvenirNext-Regular'" font-size="14">UI Toolkit</text>
	<rect x="605.482" y="119.225" fill="none" width="148" height="75"/>
	<text transform="matrix(1 0 0 1 605.4824 128.2969)" font-family="'AvenirNext-Regular'" font-size="12">presents common UI </text>
	<text transform="matrix(1 0 0 1 605.4824 142.6963)" font-family="'AvenirNext-Regular'" font-size="12">elements along with code </text>
	<text transform="matrix(1 0 0 1 605.4824 157.0967)" font-family="'AvenirNext-Regular'" font-size="12">snippets and guidelines</text>
	<line fill="none" stroke="#000000" stroke-width="2" stroke-miterlimit="10" x1="605.482" y1="89.225" x2="753.482" y2="89.225"/>
</g>
<g>
	<g>
		<path d="M635.281,211.896v26.141c0,0.478-0.164,0.88-0.49,1.207c-0.327,0.326-0.742,0.489-1.245,0.489H607.18
			c-0.451,0-0.849-0.163-1.188-0.489c-0.34-0.327-0.51-0.729-0.51-1.207v-34.325c0-0.479,0.17-0.88,0.51-1.207
			c0.339-0.327,0.734-0.491,1.188-0.491h18.22c0.176,0,0.289,0.013,0.34,0.038c0.125,0,0.264,0.05,0.414,0.151
			c0.076,0,0.112,0.024,0.112,0.074c0.076,0.025,0.14,0.058,0.189,0.095c0.05,0.038,0.1,0.082,0.15,0.132l8.186,8.109
			c0.05,0.075,0.094,0.139,0.132,0.188s0.069,0.113,0.095,0.188c0.051,0,0.075,0.037,0.075,0.112c0.102,0.151,0.15,0.302,0.15,0.453
			C635.268,211.607,635.281,211.721,635.281,211.896z M625.398,213.594c-0.453,0-0.85-0.169-1.188-0.509
			c-0.34-0.339-0.51-0.735-0.51-1.188v-6.449h-14.785v30.893h22.896v-22.745L625.398,213.594L625.398,213.594z"/>
	</g>
	<text transform="matrix(1 0 0 1 648.6113 228.0039)" font-family="'AvenirNext-DemiBold'" font-size="12">Buttons </text>
</g>
<g>
	<g>
		<path d="M635.281,263.88v26.141c0,0.478-0.164,0.879-0.49,1.207c-0.327,0.326-0.742,0.49-1.245,0.49H607.18
			c-0.451,0-0.849-0.164-1.188-0.49c-0.34-0.328-0.51-0.729-0.51-1.207v-34.325c0-0.479,0.17-0.881,0.51-1.207
			c0.339-0.326,0.734-0.49,1.188-0.49h18.22c0.176,0,0.289,0.013,0.34,0.038c0.125,0,0.264,0.05,0.414,0.15
			c0.076,0,0.112,0.024,0.112,0.074c0.076,0.025,0.14,0.057,0.189,0.095s0.1,0.082,0.15,0.133l8.186,8.11
			c0.05,0.074,0.094,0.137,0.132,0.188c0.038,0.051,0.069,0.112,0.095,0.188c0.051,0,0.075,0.037,0.075,0.113
			c0.102,0.15,0.15,0.301,0.15,0.451C635.268,263.591,635.281,263.704,635.281,263.88z M625.398,265.577
			c-0.453,0-0.85-0.17-1.188-0.511c-0.34-0.338-0.51-0.733-0.51-1.188v-6.449h-14.785v30.894h22.896v-22.746H625.398z"/>
	</g>
	<text transform="matrix(1 0 0 1 648.6113 279.9873)" font-family="'AvenirNext-DemiBold'" font-size="12">Links</text>
</g>
<g>
	<g>
		<path d="M635.281,315.863v26.139c0,0.479-0.164,0.881-0.49,1.207c-0.327,0.328-0.742,0.49-1.245,0.49H607.18
			c-0.451,0-0.849-0.162-1.188-0.49c-0.34-0.326-0.51-0.73-0.51-1.207v-34.324c0-0.479,0.17-0.881,0.51-1.207
			c0.339-0.326,0.734-0.49,1.188-0.49h18.22c0.176,0,0.289,0.013,0.34,0.037c0.125,0,0.264,0.051,0.414,0.152
			c0.076,0,0.112,0.022,0.112,0.074c0.076,0.024,0.14,0.057,0.189,0.094c0.05,0.039,0.1,0.082,0.15,0.133l8.186,8.109
			c0.05,0.076,0.094,0.139,0.132,0.188s0.069,0.113,0.095,0.188c0.051,0,0.075,0.039,0.075,0.113c0.102,0.151,0.15,0.303,0.15,0.452
			C635.268,315.574,635.281,315.688,635.281,315.863z M625.398,317.561c-0.453,0-0.85-0.17-1.188-0.51
			c-0.34-0.34-0.51-0.734-0.51-1.188v-6.451h-14.785v30.893h22.896v-22.744H625.398L625.398,317.561z"/>
	</g>
	<text transform="matrix(1 0 0 1 648.6113 331.9707)" font-family="'AvenirNext-DemiBold'" font-size="12">Pagination</text>
</g>
<g>
	<g>
		<path d="M635.281,367.846v26.141c0,0.477-0.164,0.879-0.49,1.207c-0.327,0.326-0.742,0.49-1.245,0.49H607.18
			c-0.451,0-0.849-0.164-1.188-0.49c-0.34-0.328-0.51-0.73-0.51-1.207V359.66c0-0.477,0.17-0.879,0.51-1.207
			c0.339-0.326,0.734-0.49,1.188-0.49h18.22c0.176,0,0.289,0.014,0.34,0.039c0.125,0,0.264,0.049,0.414,0.15
			c0.076,0,0.112,0.025,0.112,0.074c0.076,0.025,0.14,0.057,0.189,0.096c0.05,0.037,0.1,0.082,0.15,0.131l8.186,8.111
			c0.05,0.074,0.094,0.137,0.132,0.188s0.069,0.113,0.095,0.189c0.051,0,0.075,0.037,0.075,0.113c0.102,0.15,0.15,0.301,0.15,0.451
			C635.268,367.557,635.281,367.67,635.281,367.846z M625.398,369.543c-0.453,0-0.85-0.17-1.188-0.51
			c-0.34-0.34-0.51-0.734-0.51-1.189v-6.449h-14.785v30.895h22.896v-22.746H625.398z"/>
	</g>
	<text transform="matrix(1 0 0 1 648.6113 383.9541)" font-family="'AvenirNext-DemiBold'" font-size="12">Form fields</text>
</g>
<g>
	<g>
		<path d="M635.281,419.83v26.139c0,0.479-0.164,0.881-0.49,1.207c-0.327,0.328-0.742,0.49-1.245,0.49H607.18
			c-0.451,0-0.849-0.162-1.188-0.49c-0.34-0.326-0.51-0.729-0.51-1.207v-34.324c0-0.479,0.17-0.881,0.51-1.207
			c0.339-0.326,0.734-0.49,1.188-0.49h18.22c0.176,0,0.289,0.012,0.34,0.037c0.125,0,0.264,0.051,0.414,0.152
			c0.076,0,0.112,0.023,0.112,0.074c0.076,0.025,0.14,0.057,0.189,0.094c0.05,0.039,0.1,0.082,0.15,0.133l8.186,8.109
			c0.05,0.076,0.094,0.139,0.132,0.189c0.038,0.049,0.069,0.111,0.095,0.188c0.051,0,0.075,0.039,0.075,0.113
			c0.102,0.15,0.15,0.303,0.15,0.453C635.268,419.541,635.281,419.654,635.281,419.83z M625.398,421.527
			c-0.453,0-0.85-0.17-1.188-0.51c-0.34-0.34-0.51-0.734-0.51-1.188v-6.451h-14.785v30.893h22.896v-22.744H625.398z"/>
	</g>
	<text transform="matrix(1 0 0 1 648.6113 435.9375)" font-family="'AvenirNext-DemiBold'" font-size="12">Modals</text>
</g>
<g>
	<g>
		<path d="M635.281,471.812v26.141c0,0.477-0.164,0.879-0.49,1.207c-0.327,0.326-0.742,0.49-1.245,0.49H607.18
			c-0.451,0-0.849-0.164-1.188-0.49c-0.34-0.328-0.51-0.73-0.51-1.207v-34.326c0-0.477,0.17-0.879,0.51-1.207
			c0.339-0.326,0.734-0.49,1.188-0.49h18.22c0.176,0,0.289,0.016,0.34,0.039c0.125,0,0.264,0.049,0.414,0.15
			c0.076,0,0.112,0.025,0.112,0.074c0.076,0.025,0.14,0.057,0.189,0.096c0.05,0.037,0.1,0.082,0.15,0.131l8.186,8.111
			c0.05,0.074,0.094,0.137,0.132,0.188s0.069,0.113,0.095,0.189c0.051,0,0.075,0.037,0.075,0.113c0.102,0.15,0.15,0.301,0.15,0.451
			C635.268,471.523,635.281,471.637,635.281,471.812z M625.398,473.51c-0.453,0-0.85-0.17-1.188-0.51
			c-0.34-0.338-0.51-0.734-0.51-1.189v-6.447h-14.785v30.893h22.896V473.51H625.398L625.398,473.51z"/>
	</g>
	<text transform="matrix(1 0 0 1 648.6113 487.9209)" font-family="'AvenirNext-DemiBold'" font-size="12">Tooltips</text>
</g>
<g>
	<g>
		<path d="M635.281,523.797v26.139c0,0.479-0.164,0.881-0.49,1.207c-0.327,0.328-0.742,0.49-1.245,0.49H607.18
			c-0.451,0-0.849-0.162-1.188-0.49c-0.34-0.326-0.51-0.729-0.51-1.207v-34.324c0-0.479,0.17-0.881,0.51-1.207
			c0.339-0.326,0.734-0.49,1.188-0.49h18.22c0.176,0,0.289,0.012,0.34,0.037c0.125,0,0.264,0.051,0.414,0.152
			c0.076,0,0.112,0.023,0.112,0.074c0.076,0.025,0.14,0.057,0.189,0.094c0.05,0.039,0.1,0.082,0.15,0.133l8.186,8.109
			c0.05,0.076,0.094,0.139,0.132,0.189c0.038,0.049,0.069,0.111,0.095,0.188c0.051,0,0.075,0.039,0.075,0.113
			c0.102,0.152,0.15,0.303,0.15,0.453C635.268,523.508,635.281,523.621,635.281,523.797z M625.398,525.494
			c-0.453,0-0.85-0.17-1.188-0.512c-0.34-0.34-0.51-0.732-0.51-1.188v-6.451h-14.785v30.895h22.896v-22.744H625.398z"/>
	</g>
	<text transform="matrix(1 0 0 1 648.6113 539.9043)" font-family="'AvenirNext-DemiBold'" font-size="12">Expandables</text>
</g>
<g>
	<g>
		<path d="M635.281,575.779v26.141c0,0.477-0.164,0.879-0.49,1.207c-0.327,0.326-0.742,0.49-1.245,0.49H607.18
			c-0.451,0-0.849-0.164-1.188-0.49c-0.34-0.328-0.51-0.73-0.51-1.207v-34.326c0-0.477,0.17-0.879,0.51-1.207
			c0.339-0.326,0.734-0.49,1.188-0.49h18.22c0.176,0,0.289,0.014,0.34,0.039c0.125,0,0.264,0.049,0.414,0.15
			c0.076,0,0.112,0.025,0.112,0.074c0.076,0.023,0.14,0.057,0.189,0.096c0.05,0.037,0.1,0.082,0.15,0.131l8.186,8.111
			c0.05,0.074,0.094,0.137,0.132,0.188s0.069,0.113,0.095,0.189c0.051,0,0.075,0.037,0.075,0.113c0.102,0.148,0.15,0.301,0.15,0.449
			C635.268,575.49,635.281,575.604,635.281,575.779z M625.398,577.477c-0.453,0-0.85-0.17-1.188-0.51
			c-0.34-0.338-0.51-0.734-0.51-1.188v-6.449h-14.785v30.893h22.896v-22.746H625.398L625.398,577.477z"/>
	</g>
	<text transform="matrix(1 0 0 1 648.6113 591.8877)" font-family="'AvenirNext-DemiBold'" font-size="12">Tables </text>
</g>
</svg>
