<svg xmlns="http://www.w3.org/2000/svg" viewBox="0 0 913.1 1200" class="cf-icon-svg"><path d="M879.7 433.5C785 199.8 518.8 87.2 285.1 181.9S-61.2 542.8 33.5 776.4c23 56.7 57.1 108.2 100.4 151.5 11.7 11.7 30.7 11.7 42.4 0s11.7-30.7 0-42.4c-155-154.8-155.1-405.9-.3-560.9s406-155.1 561-.3 155.1 405.9.3 560.9l-.3.3c-11.7 11.7-11.7 30.7 0 42.4s30.7 11.7 42.4 0C909 798.2 948.5 603.5 879.7 433.5z"/><path d="M456.7 341.8c-145.5 0-263.5 118-263.5 263.5 0 69.9 27.8 136.9 77.2 186.3 11.7 11.7 30.7 11.7 42.5 0s11.7-30.7 0-42.5c-79.5-79.5-79.5-208.3 0-287.8s208.3-79.5 287.8 0 79.5 208.3 0 287.8c-11.7 11.7-11.7 30.7 0 42.4s30.7 11.7 42.4 0c102.9-102.9 102.9-269.7 0-372.6-49.5-49.4-116.5-77.1-186.4-77.1z"/><path d="M551.2 1020h-64.5V695.9c50.1-16.6 77.2-70.6 60.7-120.7-16.6-50.1-70.6-77.2-120.7-60.7s-77.2 70.6-60.7 120.7c9.5 28.7 32 51.2 60.7 60.7V1020h-64.5c-16.6 0-30 13.4-30 30s13.4 30 30 30h189c16.6 0 30-13.4 30-30s-13.4-30-30-30z"/></svg>