<svg xmlns="http://www.w3.org/2000/svg" viewBox="0 0 893.2 1200" class="cf-icon-svg"><path d="M652.6 1013.7H650c-65.6-.7-127.4-26.7-174-73.2L50.2 514.7c-66.9-66.9-66.9-175.7 0-242.6l4.2-4.2c32.3-32.3 75.4-50.1 121.3-50.1s89 17.8 121.3 50.1l433 433c41.4 41.4 41.6 108.6.4 149.8-41.2 41.2-108.4 41-149.8-.4l-293-293c-11.7-11.7-11.7-30.7 0-42.4s30.7-11.7 42.4 0l293 293c18 18 47.2 18.2 65 .4s17.6-47-.4-65l-433-433c-21-21-49-32.5-78.9-32.5s-57.9 11.5-78.9 32.5l-4.2 4.2c-21 21-32.5 49-32.5 78.9s11.5 57.9 32.5 78.9L518.4 898c35.4 35.4 82.3 55.1 132.2 55.7 49.6.5 95.9-18.1 130.2-52.5 34.4-34.4 53-80.6 52.5-130.2-.5-49.8-20.3-96.8-55.7-132.2l-444-444c-11.7-11.7-11.7-30.7 0-42.4s30.7-11.7 42.4 0l444 444c46.5 46.5 72.6 108.3 73.2 174 .7 65.9-24.2 127.4-70.1 173.3-45.1 45.2-105.6 70-170.5 70z"/></svg>