<svg xmlns="http://www.w3.org/2000/svg" viewBox="0 0 1000 1200" class="cf-icon-svg"><path d="M500 105.2c-276.1 0-500 223.9-500 500s223.9 500 500 500 500-223.9 500-500-223.9-500-500-500zm263.1 749.5c-31.5 31.5-73.7 48.8-118.9 48.8h-1.8c-45.7-.5-88.8-18.6-121.2-51L222.6 554c-46.5-46.5-46.5-122.1 0-168.6l2.9-2.9c46.5-46.5 122.1-46.5 168.6 0L697.7 686c28.6 28.6 28.8 75.1.3 103.6s-75 28.4-103.6-.3L389 583.9c-7.8-7.8-7.8-20.5 0-28.3s20.5-7.8 28.3 0L622.7 761c13 13 34.1 13.2 47 .3s12.8-34-.3-47L365.9 410.7c-30.9-30.9-81.2-30.9-112.1 0l-2.9 2.9c-30.9 30.9-30.9 81.2 0 112.1l298.5 298.5c25 25 58.1 39 93.4 39.3 35 .3 67.7-12.8 92-37.1s37.5-57 37.1-92c-.4-35.2-14.3-68.4-39.3-93.4L421.4 329.7c-7.8-7.8-7.8-20.5 0-28.3s20.5-7.8 28.3 0l311.2 311.2c32.4 32.4 50.6 75.5 51 121.2.5 46-16.8 88.9-48.8 120.9z"/></svg>