<svg xmlns="http://www.w3.org/2000/svg" viewBox="0 0 1000 1200" class="cf-icon-svg"><path d="M500 105.2c-276.1 0-500 223.9-500 500s223.9 500 500 500 500-223.9 500-500-223.9-500-500-500zm-41.6 722.6c.1 4.4-.5 8.8-1.6 13.1-.5 3.2-1.8 6.3-3.9 8.8-2.5 3.3-6.5 5.2-10.7 5.1-2.1 0-4.1-.6-5.7-1.8-.8-.7-1.7-1.3-2.4-2-4.1-2.3-7.8-5.2-11-8.5L289.8 709.3H184.4c-5 0-10-1-14.6-3.1-4.4-2-8.4-4.8-11.9-8.2-3.4-3.4-6.1-7.4-8-11.9-1.9-4.5-2.9-9.3-2.9-14.1V538.8c-.2-9.9 3.7-19.4 10.9-26.2 7-7 16.5-10.9 26.4-10.7h104.8L423 368.1c3.1-3.2 6.6-6 10.5-8.2 4.3-3.7 9.2-4.6 14.8-2.6 5.3 2 8.2 6.3 8.6 12.9 1 4.1 1.5 8.4 1.4 12.6l.1 445zM568 716.3c-8.2 7.4-20.8 6.8-28.2-1.4-6.9-7.6-6.9-19.2 0-26.9 45.7-45.7 45.7-119.7 0-165.3-8.1-7.6-8.5-20.2-.9-28.3 7.6-8.1 20.2-8.5 28.3-.9l.9.9c61.2 61.2 61.2 160.6-.1 221.9zm82.4 82.4c-7.8 7.8-20.5 7.8-28.3 0-7.8-7.8-7.8-20.5 0-28.3 91.2-91.2 91.2-239 0-330.2-7.8-7.8-7.8-20.5 0-28.3 7.8-7.8 20.5-7.8 28.3 0 106.8 106.8 106.8 280 0 386.8z"/></svg>