<svg xmlns="http://www.w3.org/2000/svg" viewBox="0 0 1000 1200" class="cf-icon-svg"><path d="M500 105.2c-276.1 0-500 223.9-500 500s223.9 500 500 500 500-223.9 500-500-223.9-500-500-500zm-41.6 722.6c.1 4.4-.5 8.8-1.6 13.1-.5 3.2-1.8 6.3-3.9 8.8-2.5 3.3-6.5 5.2-10.7 5.1-2.1 0-4.1-.6-5.7-1.8-.8-.7-1.7-1.3-2.4-2-4.1-2.3-7.8-5.2-11-8.5L289.8 709.3H184.4c-5 0-10-1-14.6-3.1-4.4-2-8.4-4.8-11.9-8.2-3.4-3.4-6.1-7.4-8-11.9-1.9-4.5-2.9-9.3-2.9-14.1V538.8c-.2-9.9 3.7-19.4 10.9-26.2 7-7 16.5-10.9 26.4-10.7h104.8L423 368.1c3.1-3.2 6.6-6 10.5-8.2 4.3-3.7 9.2-4.6 14.8-2.6 5.3 2 8.2 6.3 8.6 12.9 1 4.1 1.5 8.4 1.4 12.6l.1 445zM568 716.3c-8.2 7.4-20.8 6.8-28.2-1.4-6.9-7.6-6.9-19.2 0-26.9 45.6-45.7 45.6-119.7 0-165.4-7.6-8-7.2-20.7.9-28.3 7.7-7.2 19.7-7.2 27.4 0 61.1 61.2 61.1 160.8-.1 222zm68.3 88.2c-11 0-20-9-20-20 0-5.3 2.1-10.4 5.9-14.1 91.2-91.2 91.2-239 0-330.2-7.8-7.8-7.8-20.5 0-28.3 7.8-7.8 20.5-7.8 28.3 0 106.8 106.8 106.8 280 0 386.8-3.8 3.7-8.9 5.8-14.2 5.8zm182.2-52.4c-19.6 48.3-48.7 92.2-85.7 129-7.8 7.8-20.5 7.8-28.3 0-7.8-7.8-7.8-20.5 0-28.3 136.7-136.7 136.7-358.3 0-495-7.8-7.8-7.8-20.5 0-28.3 7.8-7.8 20.5-7.8 28.3 0 110.8 110.9 144.6 277.3 85.7 422.6z"/></svg>