<svg xmlns="http://www.w3.org/2000/svg" viewBox="0 0 1000 1200" class="cf-icon-svg"><path d="M500 105.2c-276.1 0-500 223.9-500 500s223.9 500 500 500 500-223.9 500-500-223.9-500-500-500zm-41.6 722c0 27.5-15.9 34.1-35.4 14.6L289.1 708h-92c-27.6-.1-49.9-22.4-50-50V551.5c.1-27.6 22.4-49.9 50-50h92l133.9-134c19.5-19.5 35.4-12.9 35.4 14.6v445.1zM795 698.9c9.8 9.8 9.8 25.6 0 35.4s-25.6 9.8-35.4 0l-94.2-94.2-94.2 94.2c-9.9 9.6-25.8 9.3-35.3-.6-9.4-9.7-9.3-25 0-34.7l94.2-94.2-94.1-94.2c-9.8-9.8-9.8-25.6 0-35.4s25.6-9.8 35.4 0l94.2 94.2 94.2-94.1c9.9-9.6 25.8-9.3 35.3.6 9.4 9.7 9.3 25 0 34.7l-94.2 94.2 94.1 94.1z"/></svg>