<svg xmlns="http://www.w3.org/2000/svg" viewBox="0 0 1000 1200" class="cf-icon-svg"><path d="M500 105.2c-276.1 0-500 223.9-500 500s223.9 500 500 500 500-223.9 500-500-223.9-500-500-500zm352.5 728.9v25h-705v-30c0-11 9-20 20-20h25V779c0-11 9-20 20-20H235V465.1h-42.5c-13.8 0-25-11.2-25-25 0-10 5.9-19 15.1-22.9L490.1 284c6.3-2.7 13.5-2.7 19.9 0l307.5 133.2c12.7 5.5 18.5 20.2 13 32.9-4 9.1-13 15.1-22.9 15.1H765V759h22.5c11 0 20 9 20 20v30.1h25c11 0 20 9 20 20v5z"/><path d="M313.1 415.1h373.8l-186.9-81zM315 507.6h70V759h-70zM465 759h70V507.6h-70zM615 713.7V759h70V507.6h-70z"/></svg>