<svg xmlns="http://www.w3.org/2000/svg" viewBox="0 0 940 1200" class="cf-icon-svg"><path d="M910 900.6h-30v-30c0-16.5-13.5-30-30-30h-30V447.5h60c16.6 0 30-13.4 30-30 0-12-7.1-22.8-18.1-27.5l-410-177.7c-7.6-3.3-16.2-3.3-23.9 0L48 390c-15.2 6.6-22.2 24.2-15.6 39.5 4.8 11 15.6 18.1 27.5 18.1h60v393.1H90c-16.5 0-30 13.5-30 30v30H30c-16.5 0-30 13.5-30 30v30h940v-30c0-16.7-13.5-30.1-30-30.1zM520 507.5v333.1H420V507.5h100zm100 333.1V507.5h100v333.1H620zM470 272.5l265.3 115H204.7l265.3-115zm-250 235h100v333.1H220V507.5z"/></svg>