<svg xmlns="http://www.w3.org/2000/svg" viewBox="0 0 1000 1200" class="cf-icon-svg"><path d="M305 759h183.8v40H305z"/><path d="M500 105.2c-276.1 0-500 223.9-500 500s223.9 500 500 500 500-223.9 500-500-223.9-500-500-500zm-93.8 229.6h65.2v-65.2c0-13.8 11.2-25 25-25s25 11.2 25 25v65.2h65.2c13.8 0 25 11.2 25 25s-11.2 25-25 25h-65.2V450c0 13.8-11.2 25-25 25s-25-11.2-25-25v-65.2h-65.2c-13.8 0-25-11.2-25-25s11.2-25 25-25zm377 496.4c-.1 27.6-22.4 49.9-50 50H270.5c-27.6-.1-49.9-22.4-50-50V650.6h562.8l-.1 180.6zm0-230.6H220.5V574c.1-27.6 22.4-49.9 50-50h462.7c27.6.1 49.9 22.4 50 50v26.6z"/></svg>