<svg xmlns="http://www.w3.org/2000/svg" viewBox="0 0 1000 1200" class="cf-icon-svg"><path d="M665.5 404.3c-1-2.6-5.8-5.9-8.6-5.9H345.5c-2.8 0-7.6 3.3-8.6 5.9l-41 105.9h410.6l-41-105.9z"/><circle cx="722.6" cy="600.8" r="48.9"/><circle cx="279.8" cy="600.8" r="48.9"/><path d="M500 105.2c-276.1 0-500 223.9-500 500s223.9 500 500 500 500-223.9 500-500-223.9-500-500-500zm317.1 495.6c0 1.6 0 3.1-.1 4.6.1.7.1 1.4.1 2.1v121.8c0 11-9 20-20 20h-31.3v72.4c0 8.3-6.7 15-15 15h-56.3c-8.3 0-15-6.7-15-15v-72.4H323v72.4c0 8.3-6.7 15-15 15h-56.3c-8.3 0-15-6.7-15-15v-72.4h-31.4c-11 0-20-9-20-20V607.6c0-.7 0-1.4.1-2.1-.1-1.5-.1-3.1-.1-4.6v-.7c0-41.3 28.3-76.4 66.4-86.8l47.9-123.5c6.9-17.9 26.7-31.4 45.9-31.4h311.4c19.2 0 38.9 13.5 45.9 31.4l47.9 123.5c38.2 10.4 66.4 45.5 66.4 86.8v.6z"/></svg>