<svg xmlns="http://www.w3.org/2000/svg" viewBox="0 0 1000 1200" class="cf-icon-svg"><path d="M274.5 831.2h451.8V501H274.5v330.2zm242.2-195.4c0-40.8 33.1-73.9 73.9-73.9s73.9 33.1 73.9 73.9v63.8c0 40.8-33.1 73.9-73.9 73.9s-73.9-33.1-73.9-73.9v-63.8zm-105.4 29.9h-9.1c-11 0-20-9-20-20 0-5.3 2.1-10.4 5.9-14.1l29.7-29.7h-60.2c-11 0-20-9-20-20s9-20 20-20H466c11 0 20 8.9 20 20 0 5.3-2.1 10.4-5.8 14.2l-36.9 37c36.8 17.6 52.3 61.7 34.6 98.4-17.6 36.8-61.7 52.3-98.4 34.6-25.6-12.3-41.9-38.2-41.9-66.6 0-11 9-20 20-20s20 9 20 20c0 18.7 15.1 33.8 33.8 33.8s33.8-15.1 33.8-33.8c-.1-18.6-15.2-33.8-33.9-33.8z"/><path d="M500 105.2c-276.1 0-500 223.9-500 500s223.9 500 500 500 500-223.9 500-500-223.9-500-500-500zm276.2 756c0 11-9 20-20 20H244.4c-11 0-20-9-20-20V349.4c0-11 9-20 20-20h511.8c11 0 20 9 20 20v511.8z"/><path d="M590.6 733.6c18.7 0 33.9-15.2 33.9-33.9v-63.8c0-18.7-15.2-33.9-33.9-33.9s-33.9 15.2-33.9 33.9v63.8c0 18.7 15.2 33.9 33.9 33.9z"/></svg>