<svg xmlns="http://www.w3.org/2000/svg" viewBox="0 0 825.1 1200" class="cf-icon-svg"><path d="M755.1 263.9H70c-38.6.1-69.9 31.4-70 70v459.5c.1 38.6 31.4 69.9 70 70h268.4l56.9 91.2c8.7 14 23 14 31.8 0l56.9-91.2h271.1c38.6-.1 69.9-31.4 70-70V333.9c-.1-38.7-31.4-69.9-70-70zm-375 132.5c0-17.9 14.6-32.5 32.5-32.5s32.5 14.6 32.5 32.5v204.2c0 17.9-14.6 32.5-32.5 32.5s-32.5-14.6-32.5-32.5V396.4zm32.5 364.4c-24.6 0-44.6-20-44.6-44.6s20-44.6 44.6-44.6 44.6 20 44.6 44.6c-.1 24.6-20 44.6-44.6 44.6z"/></svg>