<svg xmlns="http://www.w3.org/2000/svg" viewBox="0 0 672.8 1200" class="cf-icon-svg"><path d="M80.2 968.7h511.7c16.1 0 29.2 13.1 29.2 29.2v72.1c0 16.1-13.1 29.2-29.2 29.2H80.2c-16.1 0-29.2-13.1-29.2-29.2v-72.1c.1-16.1 13.1-29.2 29.2-29.2zM665.7 615.5l-9-7.1C528.2 508.3 447 331.1 426.3 123.2v-.5c-.1-16.6-13.5-30-30.1-29.9-15.5.1-28.5 12-29.8 27.4V574c43.8 16.6 65.8 65.5 49.2 109.2s-65.5 65.8-109.2 49.2-65.8-65.5-49.2-109.2c8.6-22.7 26.5-40.6 49.2-49.2V119.8c-1.6-16.5-16.3-28.6-32.8-27-15.4 1.5-27.1 14.4-27.1 29.9C226.1 329.8 144 506.6 16.4 607l-1.2 1-8 6.2c-9 6.4-9.6 23.3-1.4 37.5l.6 1 132 228.6c8.2 14.3 28.5 26 45 26h306.8c16.5 0 36.8-11.7 45-26L666.4 654l.6-1c8.3-14.3 7.7-31.2-1.3-37.5z"/></svg>