<svg xmlns="http://www.w3.org/2000/svg" viewBox="0 0 1000 1200" class="cf-icon-svg"><path d="M409.2 723.3c-12.5-14.7-34.6-16.5-49.3-3.9-14.5 12.3-16.4 34-4.4 48.7L443.6 874c6.6 8 16.5 12.6 26.9 12.6 1 0 2 0 3-.1 11.4-1 21.6-7.5 27.3-17.4l157.7-273.2c9.6-16.8 3.7-38.2-13.1-47.7-16.6-9.5-37.8-3.8-47.5 12.7L465.3 790.7l-56.1-67.4z"/><path d="M500 105.2c-276.1 0-500 223.9-500 500s223.9 500 500 500 500-223.9 500-500-223.9-500-500-500zm71.8 165.2h1.5l176.9 170.8H571.8V270.4zm179 222.1v405.2c0 22.1-17.9 40-40 40H290.3c-22.1 0-40-17.9-40-40V310.4c0-22.1 17.9-40 40-40h235.2v186.5c0 16.9 13.7 30.5 30.6 30.6h194.7v5z"/></svg>