<svg xmlns="http://www.w3.org/2000/svg" viewBox="0 0 651.7 1200" class="cf-icon-svg"><path d="M651.7 367.7v-24l-91.4-91.4-66.6-66.6L469 161H35c-19.3.1-34.9 15.7-35 35v817.8c.1 19.3 15.7 34.9 35 35h581.7c19.3-.1 34.9-15.7 35-35V367.7zm-60 59v562.1H60V221h359.6v134.8c.1 20 16.2 36.2 36.2 36.2h135.9v34.7z"/><path d="M279.6 802.8l-77.8-93.4c-14.1-17-39.4-19.3-56.3-5.1-17 14.1-19.3 39.4-5.1 56.3l114.5 137.5c7.6 9.1 18.9 14.4 30.7 14.4 1.1 0 2.3-.1 3.4-.2 13-1.1 24.7-8.5 31.2-19.9l204.7-354.5c11.2-19.1 4.8-43.6-14.3-54.7s-43.6-4.8-54.7 14.3c-.1.2-.2.3-.3.5l-176 304.8z"/></svg>