<svg xmlns="http://www.w3.org/2000/svg" viewBox="0 0 896.8 1200" class="cf-icon-svg"><path d="M879.5 645.7L731.8 598c-13.1-4.2-27.2 3-31.5 16.1-4.2 13.1 3 27.2 16.1 31.5l89.8 29-212.4 108.6c71.2-89.8 56.2-220.4-33.7-291.6s-220.4-56.2-291.6 33.7-56.2 220.4 33.7 291.6c39.2 31.1 88.4 47 138.5 44.7l-95.2 48.7-167.6-91.6c-7.3-4-16-4.1-23.4-.3L13.6 890.5c-12.3 6.3-17.2 21.4-10.9 33.7C9 936.4 24.1 941.3 36.4 935l129.1-66.1 167.6 91.6c7.3 4 16 4.1 23.4.3l473.1-242.1-29.3 90.8c-4.6 13 2.2 27.3 15.2 31.9 13 4.6 27.3-2.2 31.9-15.2.1-.4.3-.8.4-1.3l47.7-147.7c4.3-13.2-2.9-27.3-16-31.5zM407.8 773.9c-10.2-4.2-15.1-15.9-10.9-26.1 4.2-10.1 15.7-15 25.9-11 5.8 2.3 11.1 3.3 15.9 2.8 5.3-.5 10.9-1.1 15.8-2.6 3-.9 10.7-3.3 15.3-5.7 11.8-6 22.9-16.2 28.8-26.5 7.4-12.9 5.3-20.5 2.7-25.8-2.8-5.4-7.5-9.7-13.2-12-5.3-2.1-10.9-3.2-16.6-3.4-5.6 0-11.2.7-16.6 2.2-4.9 1.3-9.7 3.2-14.3 5.6-6.6 3.4-13.4 6.3-20.5 8.5-9.4 3-19.2 4.6-29.1 4.7-11.4.1-22.6-2.2-33-6.8-14.4-6.3-26-17.1-32.8-30.3-10.4-20.3-8.9-44.5 4.1-66.5 7-11.6 16.2-21.7 27-29.8l-12.5-24.5c-5-9.8-1.1-21.9 8.7-26.9s21.9-1.1 26.9 8.7l12.9 25.1 2.4-.6 1.5-.4c8.1-2 16.3-3.2 24.7-3.6 10.2-.5 20.4.8 30.2 3.9 10.5 3.4 16.3 14.6 12.9 25.2-3.4 10.5-14.6 16.3-25.2 12.9-5.1-1.6-10.5-2.3-15.9-2.1-5.5.2-11 1-16.4 2.3l-1.5.4c-5.3 1.4-9.8 2.6-12.7 4.1-11.8 6-22.4 15.7-28.4 25.7-7.6 12.8-5.8 22.2-2.9 27.8 2.5 4.9 7.5 9.3 13.3 11.9 5.2 2.3 10.8 3.4 16.5 3.4 5.9-.1 11.7-1.1 17.3-2.8 5-1.6 9.8-3.6 14.4-6 7.1-3.7 14.6-6.5 22.3-8.6 8.9-2.3 18-3.5 27.2-3.4 10.6.2 21.1 2.3 31 6.2 14.7 5.8 26.8 16.8 34 30.9 10.2 20 9 42.1-3.6 63.9-6.5 11.3-16.2 22.1-27.5 30.8l13 25.3c5 9.8 1.1 21.9-8.7 26.9s-21.9 1.1-26.9-8.7l-13-25-3.9 1.2c-7.8 2.3-15.8 3.7-23.9 4.2-2 .2-4 .3-6.1.3-9.9 0-19.6-2-28.6-5.8z"/></svg>