<svg xmlns="http://www.w3.org/2000/svg" viewBox="0 0 994.6 1200" class="cf-icon-svg"><path d="M466.3 567c-13.8 0-25 11.2-25 25v19.8c-11.1 2.5-21.6 6.8-31.3 12.8-21.7 13.7-34.1 34.9-34.1 58.1.2 15.5 5.7 30.6 15.6 42.5 7.2 8.8 16.1 16 26.2 21.1 8.7 4.3 18 7.3 27.5 8.9 7.1 1.2 14.2 1.7 21.4 1.7 4.2 0 8.4.4 12.5 1.3 4.4 1 8.7 2.5 12.7 4.6 3.8 2.1 7.3 4.9 10.2 8.2 2.6 3 4.1 6.8 4.1 10.8 0 2.5 0 7.9-9.8 14.2-8 5.2-20.1 8.5-30.9 8.5-4.1 0-11-1.2-13.6-1.7-4.3-.9-8.5-2.3-12.6-4.1-3.6-1.6-6.7-4-9.2-7.1-8.9-10.6-24.6-11.9-35.2-3.1-10.6 8.9-11.9 24.6-3.1 35.2.2.2.3.4.5.6 8.3 9.6 17.9 16.6 28.4 20.8 6.7 2.8 13.6 5 20.7 6.5v20.2c0 13.8 11.2 25 25 25s25-11.2 25-25v-20.5c11.4-2.6 22.3-7.2 32.2-13.5 27-17.5 32.6-40.2 32.6-56.2 0-16.1-5.9-31.6-16.5-43.7-7-7.9-15.3-14.5-24.6-19.5-8-4.2-16.5-7.2-25.3-9.2-7.6-1.6-15.4-2.4-23.1-2.4-4.4 0-8.8-.3-13.1-1-4.7-.8-9.2-2.2-13.4-4.3-3.8-1.9-7.1-4.6-9.8-7.9-2.7-3.3-4.4-7.5-4.4-11 0-5.9 3.6-11.2 10.8-15.8 7.9-5 19.5-8.1 30.2-8.1 2.3 0 6.3.9 10.6 1.8l1.4.3c4.5 1.1 8.8 2.6 13 4.5 3.8 1.7 7.2 4.1 10.1 6.9 10.2 9.3 26 8.6 35.3-1.5 8.8-9.6 8.8-24.3-.1-33.9-7.2-7.1-15.7-13-24.9-17.1-6.8-3.1-13.9-5.6-21.1-7.4V592c.1-13.8-11.1-25-24.9-25zM291.1 658c4.9-11.6 10.9-22.6 18-33-1.4-.2-2.8-.3-4.2-.3H29.8C13.3 624.8 0 638.1 0 654.6v25.8c0 16.4 13.4 29.8 29.8 29.9h247.6c2.1-18 6.7-35.6 13.7-52.3zM291.1 805.9c-7.6-17.9-12.4-36.9-14.1-56.3H67.5c-16.5 0-29.8 13.4-29.9 29.8v25.8C37.7 821.6 51 835 67.5 835h239.1c-6-9.2-11.2-19-15.5-29.1z"/><path d="M964.6 558.4H862.8c-41-110.4-160-196.7-277.2-196.7h-13.3l-.1.1c-1-.1-2-.1-3-.1H410.5c-16.5 0-29.8 13.4-29.9 29.9V425c0 16.5 13.4 29.8 29.9 29.9H487l-.1.1h69.9c12.4 0 22.5 10.1 22.5 22.5S569.2 500 556.8 500H445.7l-.1.1H67.5c-16.5 0-29.8 13.4-29.9 29.9v25.8c0 16.5 13.4 29.8 29.9 29.8h277.7c80.9-67 200.7-55.7 267.7 25.2s55.7 200.7-25.2 267.7c-72.2 59.7-177.1 58-247.2-4.1H163.7c-16.5 0-29.8 13.4-29.9 29.8V930c0 16.5 13.4 29.8 29.9 29.8H736c74.8 0 132.7-35.1 161.4-89.1h67.2c16.5 0 30-13.5 30-30V588.4c0-16.5-13.5-29.9-30-30z"/></svg>