<svg xmlns="http://www.w3.org/2000/svg" viewBox="0 0 1000 1200" class="cf-icon-svg"><path d="M500 105.2c-276.1 0-500 223.9-500 500s223.9 500 500 500 500-223.9 500-500-223.9-500-500-500zm-150.5 430v136.5l-83.4 83.4c-4.7 4.7-9.2 6-12.6 6-1.8 0-3.5-.3-5.2-1-2.7-1.1-9.1-5-9.1-16.1v-74.4h-52.6c-11.2 0-20.2-9.1-20.3-20.3v-280c0-11.2 9.1-20.2 20.3-20.3h400.6c11.2 0 20.2 9.1 20.3 20.3V465H419.8c-38.8 0-70.2 31.5-70.3 70.2zm491.1 280c0 11.2-9.1 20.2-20.3 20.3h-52.6v74.4c0 11.1-6.3 15-9.1 16.1-1.6.7-3.4 1-5.2 1-3.4 0-7.9-1.2-12.6-6l-85.6-85.5H419.8c-11.2 0-20.2-9.1-20.3-20.3v-280c0-11.2 9.1-20.2 20.3-20.2h400.6c11.2 0 20.2 9.1 20.3 20.3l-.1 279.9z"/></svg>