<svg xmlns="http://www.w3.org/2000/svg" viewBox="0 0 987.9 1200" class="cf-icon-svg"><path d="M653 385.7V230.1c0-16.5-13.5-30-30-30H30c-16.5 0-30 13.5-30 30v414.5c0 16.5 13.5 30 30 30h77.9v110.2c0 16.5 9.4 22.2 13.4 23.8 2.4 1 5 1.5 7.6 1.5 5.1 0 11.7-1.8 18.7-8.8l126.7-126.7h.5V475.7c.1-49.7 40.3-89.9 90-90H653z"/><path d="M957.9 445.7h-593c-16.5 0-30 13.5-30 30v414.5c0 16.5 13.5 30 30 30h348.7l126.6 126.6c7 7 13.6 8.8 18.7 8.8 2.6 0 5.2-.5 7.6-1.5 4-1.7 13.4-7.3 13.4-23.8V920.2h77.9c16.5 0 30-13.5 30-30V475.7c0-16.6-13.4-30-29.9-30z"/></svg>