<svg xmlns="http://www.w3.org/2000/svg" viewBox="0 0 1000 1200" class="cf-icon-svg"><path d="M379.9 493.6c-.7 0-1.5 0-2.2-.1-.7 0-1.5-.1-2.2-.2s-1.5-.2-2.2-.3c-.7-.1-1.5-.2-2.2-.4-.7-.1-1.4-.3-2.2-.5l-2.1-.6c-.7-.2-1.4-.4-2.1-.7-.7-.2-1.4-.5-2.1-.8s-1.3-.6-2-.9-1.3-.6-2-1c-.6-.3-1.3-.7-1.9-1.1s-1.3-.8-1.9-1.2c-.6-.4-1.2-.8-1.8-1.3-.6-.4-1.2-.9-1.8-1.4-.6-.5-1.1-.9-1.7-1.4-.5-.5-1.1-1-1.6-1.5s-1-1.1-1.5-1.6-1-1.1-1.4-1.7c-.5-.6-.9-1.2-1.4-1.7-.4-.6-.9-1.2-1.3-1.8-.4-.6-.8-1.2-1.2-1.9-.4-.6-.7-1.3-1.1-1.9-.3-.6-.7-1.3-1-2s-.6-1.3-.9-2-.5-1.4-.8-2c-.2-.7-.5-1.4-.7-2.1l-.6-2.1c-.2-.7-.3-1.4-.5-2.2-.1-.7-.3-1.4-.4-2.2-.1-.7-.2-1.5-.3-2.2-.1-.7-.1-1.5-.2-2.2 0-.7-.1-1.5-.1-2.2s0-1.5.1-2.2c0-.7.1-1.5.2-2.2s.2-1.5.3-2.2c.1-.7.2-1.4.4-2.2.2-.7.3-1.4.5-2.1l.6-2.1c.2-.7.5-1.4.7-2.1s.5-1.4.8-2.1.6-1.4.9-2c.3-.7.7-1.3 1-2 .3-.6.7-1.3 1.1-1.9s.8-1.3 1.2-1.9c.4-.6.8-1.2 1.3-1.8.4-.6.9-1.2 1.4-1.7.5-.6 1-1.1 1.4-1.7.5-.5 1-1.1 1.5-1.6s1.1-1 1.6-1.5 1.1-1 1.7-1.4c.6-.5 1.2-.9 1.8-1.4.6-.4 1.2-.9 1.8-1.3.6-.4 1.2-.8 1.9-1.2.6-.4 1.3-.7 1.9-1.1.6-.3 1.3-.7 2-1s1.3-.6 2-.9 1.4-.5 2.1-.8c.7-.2 1.4-.5 2.1-.7l2.1-.6c.7-.2 1.4-.3 2.2-.5.7-.1 1.5-.3 2.2-.4s1.5-.2 2.2-.3c.7-.1 1.5-.1 2.2-.2 1.5-.1 3-.1 4.4 0 .7 0 1.5.1 2.2.2s1.5.2 2.2.3c.7.1 1.5.2 2.2.4.7.1 1.4.3 2.2.5l2.1.6c.7.2 1.4.5 2.1.7s1.4.5 2 .8c.7.3 1.4.6 2 .9.7.3 1.3.6 2 1 .6.3 1.3.7 1.9 1.1s1.2.8 1.9 1.2c.6.4 1.2.8 1.8 1.3.6.4 1.2.9 1.8 1.4.6.5 1.1 1 1.7 1.4.5.5 1.1 1 1.6 1.5s1 1.1 1.5 1.6 1 1.1 1.5 1.7.9 1.1 1.4 1.7c.4.6.9 1.2 1.3 1.8.4.6.8 1.2 1.2 1.9.4.6.7 1.3 1.1 1.9.3.6.7 1.3 1 2s.6 1.3.9 2 .5 1.4.8 2.1c.2.7.5 1.4.7 2.1l.6 2.1c.2.7.3 1.4.5 2.1.1.7.3 1.5.4 2.2s.2 1.5.3 2.2c.1.7.1 1.5.2 2.2 0 .7.1 1.5.1 2.2s0 1.5-.1 2.2c0 .7-.1 1.5-.2 2.2s-.2 1.5-.3 2.2c-.1.7-.2 1.5-.4 2.2-.1.7-.3 1.4-.5 2.2l-.6 2.1c-.2.7-.4 1.4-.7 2.1-.2.7-.5 1.4-.8 2-.3.7-.6 1.4-.9 2-.3.7-.6 1.3-1 2-.3.7-.7 1.3-1.1 1.9s-.8 1.3-1.2 1.9c-.4.6-.8 1.2-1.3 1.8-.4.6-.9 1.2-1.4 1.7-.5.6-1 1.1-1.5 1.7s-1 1.1-1.5 1.6-1.1 1-1.6 1.5-1.1 1-1.7 1.4c-.6.5-1.2.9-1.8 1.4-.6.4-1.2.9-1.8 1.3-.6.4-1.2.8-1.9 1.2-.6.4-1.3.7-1.9 1.1-.7.3-1.3.7-2 1s-1.3.6-2 .9-1.4.5-2 .8c-.7.2-1.4.5-2.1.7l-2.1.6c-.7.2-1.4.3-2.2.5-.7.1-1.5.3-2.2.4s-1.5.2-2.2.3c-.7.1-1.5.1-2.2.2-.7.1-1.5.1-2.2.1zM331.6 681.2h329.3v40H331.6z"/><circle cx="380.1" cy="448.8" r="45.2"/><path d="M331.6 782.8h329.3v40H331.6zM331.6 579.5h329.3v40H331.6z"/><path d="M500 105.2c-276.1 0-500 223.9-500 500s223.9 500 500 500 500-223.9 500-500-223.9-500-500-500zm230.8 794.5c0 11-9 20-20 20H290.3c-11 0-20-9-20-20V312.4c0-11 9-20 20-20l239.2.2v166.3c0 16.8 13.8 30.6 30.6 30.6h171.3l-.6 410.2zm.6-456.5H575.8V292.7l155.5 150.1v.4h.1z"/></svg>