<svg xmlns="http://www.w3.org/2000/svg" viewBox="0 0 686.6 1200" class="cf-icon-svg"><path d="M526.4 162.5H144.7c-16.3 0-29.7 13.4-29.7 29.7v77.9H29.7C13.4 270.1 0 283.5 0 299.8v719.4c0 16.3 13.4 29.7 29.7 29.7h512.2c16.3 0 29.7-13.4 29.7-29.7v-77.9h85.3c16.3 0 29.7-13.4 29.7-29.7V322.7L526.4 162.5zm-351.4 60h308v110.8c0 3.6.6 7 1.7 10.2l-73.4-73.4H175v-47.6zm336.6 766.3H60V330.1h308v110.8c0 17.5 14.3 31.8 31.8 31.8h111.8v516.1zm115-107.6h-55V430.3l-66.9-66.9c3.2 1.1 6.6 1.7 10.2 1.7h111.7v516.1z"/></svg>