<svg xmlns="http://www.w3.org/2000/svg" viewBox="0 0 1000 1200" class="cf-icon-svg"><path d="M500 105.2c-276.1 0-500 223.9-500 500s223.9 500 500 500 500-223.9 500-500-223.9-500-500-500zM194.7 456c-19.4-19.4-19.4-51.3 0-70.7l83.9-83.9c19.4-19.4 51.3-19.4 70.7 0l64.5 64.5-154.6 154.6-64.5-64.5zm580.7 437.5c-1.3 0-2.7-.2-4.2-.5l-160.6-36.2c-10.7-2.4-25.8-10.7-33.6-18.5L508.7 770 407.4 668.7 301 562.3l-13.5-13.5 87.8-87.8 289.6 289.6-63.6 63.6c3.2 3.2 12.5 8.3 16.9 9.3l71 16 43.6-43.6-16-71c-1-4.4-6.1-13.7-9.3-16.9l-14.3 14.3-289.6-289.6 38.5-38.5 13.5 13.5L562 514l169.7 169.7c7.8 7.8 16.1 22.9 18.5 33.6l36.2 160.6c2 9.3-2.8 15.6-11 15.6z"/></svg>