<svg xmlns="http://www.w3.org/2000/svg" viewBox="0 0 1000 1200" class="cf-icon-svg"><path d="M500 105.2c-276.1 0-500 223.9-500 500s223.9 500 500 500 500-223.9 500-500-223.9-500-500-500zm289.6 465.5c0 19.3-15.7 35-35 35s-35-15.7-35-35v-133L637 520.3c2.8 8.5 4.2 17.4 4.2 26.4v268c-.1 46.9-38.1 84.9-85 85h-268c-46.9-.1-84.9-38.1-85-85v-268c.1-46.9 38.1-84.9 85-85h268c11.5 0 22.9 2.3 33.5 6.9l80.4-80.4h-133c-19.3 0-35-15.7-35-35s15.7-35 35-35h217.5c19.3 0 35 15.7 35 35v217.5z"/><path d="M427 715.8c-19.3 0-35-15.7-35-35 0-9.3 3.7-18.2 10.3-24.8l124.3-124.2H288.2c-8.2.1-14.9 6.8-15 15v268c.1 8.2 6.8 14.9 15 15h268c8.2-.1 14.9-6.8 15-15V586.1L451.8 705.5c-6.6 6.6-15.5 10.3-24.8 10.3z"/></svg>