<svg xmlns="http://www.w3.org/2000/svg" viewBox="0 0 1000 1200" class="cf-icon-svg"><path d="M500 105.2c-276.1 0-500 223.9-500 500s223.9 500 500 500 500-223.9 500-500-223.9-500-500-500zm169.5 340.1c55 0 99.6 44.6 99.6 99.6s-44.6 99.6-99.6 99.6-99.6-44.6-99.6-99.6 44.6-99.6 99.6-99.6zM416 253.9c79.9 0 144.6 64.7 144.6 144.6S495.9 543.1 416 543.1s-144.6-64.7-144.6-144.6S336.1 253.9 416 253.9zm29.4 614.7H203.7c-31.2-.1-56.5-25.4-56.6-56.6v-84.9c0-77.8 63.7-141.5 141.5-141.5h238.8c4.5 15.7 11.6 30.5 20.9 43.9-65.6 15.6-112 74.2-112.1 141.7v58.4c0 13.5 3.1 26.9 9.2 39zm370.3 0H523.4c-21.5 0-39-17.5-39-39v-58.5c0-53.6 43.8-97.4 97.4-97.4h175.4c53.6 0 97.4 43.9 97.5 97.4v58.5c0 21.5-17.5 39-39 39z"/></svg>