<svg xmlns="http://www.w3.org/2000/svg" viewBox="0 0 1000 1200" class="cf-icon-svg"><path d="M500 105.2c-276.1 0-500 223.9-500 500s223.9 500 500 500 500-223.9 500-500-223.9-500-500-500zm329.9 449.4l-68.7 63.5-69.3 64.1 27.5 138.5 9.1 45.9c10.1 50.9-18.7 71.9-64 46.5l-164.1-91.8-164.1 91.8c-45.3 25.4-74.1 4.4-64-46.5l9.1-45.9 9.1-45.9 18.4-92.6-69.3-64.1-34.4-31.8-34.4-31.8c-38.1-35.3-27.1-69.1 24.4-75.2l93-11 93.8-11.1L441.3 329l19.6-42.5c21.8-47.2 57.4-47.2 79.1 0l19.6 42.5 59.2 128.2 93.8 11.1 93 11c51.4 6.2 62.4 40.1 24.3 75.3z"/></svg>