<svg xmlns="http://www.w3.org/2000/svg" viewBox="0 0 1000 1200" class="cf-icon-svg"><path d="M479.3 644.4c-13.9 0-25.1 11.2-25 25 0 13.8 11.2 25 25 25s25-11.2 25-25c-.1-13.8-11.3-25-25-25zM564 792.9h-.1c-13.8 0-25 11.2-25 25s11.2 25 25 25h.1c13.8 0 25-11.2 25-25s-11.2-25-25-25zM479.3 718.7c-13.9 0-25.1 11.2-25 25 0 13.8 11.2 25 25 25s25-11.2 25-25c-.1-13.9-11.3-25-25-25zM479.3 792.9c-13.9 0-25.1 11.2-25 25 0 13.8 11.2 25 25 25s25-11.2 25-25c-.1-13.8-11.3-25-25-25zM564 718.7h-.1c-13.8 0-25 11.2-25 25s11.2 25 25 25h.1c13.8 0 25-11.2 25-25s-11.2-25-25-25zM564 644.4h-.1c-13.8 0-25 11.2-25 25s11.2 25 25 25h.1c13.8 0 25-11.2 25-25s-11.2-25-25-25zM648.6 644.4c-13.9 0-25.1 11.2-25 25s11.2 25 25 25 25-11.2 25-25-11.2-25-25-25z"/><path d="M500 105.2c-276.1 0-500 223.9-500 500s223.9 500 500 500 500-223.9 500-500-223.9-500-500-500zm63.9 186.6L698 421.3v.3H563.9V291.8zM353.1 853.9c0 36-29.2 65.2-65.2 65.2s-65.2-29.2-65.2-65.2V578.4c0-36 29.2-65.2 65.2-65.2s65.2 29.2 65.2 65.2v275.5zm16.3-357c-18.5-18.7-43-30.3-69.1-33.1v-147c0-13.8 11.2-25 25-25h198.6v143.4c0 14.6 11.8 26.3 26.4 26.4h147.8v43.7H377c-2.4-2.9-4.9-5.7-7.6-8.4zm405.7 396.2c0 13.8-11.2 25-25 25H383.6c12.8-19 19.6-41.4 19.5-64.3V578.4c0-7.4-.7-14.8-2.1-22.1h349.1c13.8 0 25 11.2 25 25v311.8z"/><path d="M648.6 792.9c-13.9 0-25.1 11.2-25 25s11.2 25 25 25 25-11.2 25-25-11.2-25-25-25zM648.6 718.7c-13.9 0-25.1 11.2-25 25s11.2 25 25 25 25-11.2 25-25c0-13.9-11.2-25-25-25z"/></svg>