<svg xmlns="http://www.w3.org/2000/svg" viewBox="0 0 666.3 1200" class="cf-icon-svg"><path d="M477.1 969.9c0-15.9.6-68.2.6-133.1 0-45.2-15.5-74.8-32.9-89.8 108.1-12 221.5-53 221.5-239.4 0-52.9-18.8-96.3-49.9-130.2 5-12.3 21.6-61.6-4.8-128.3 0 0-40.7-13-133.2 49.7-39.6-10.8-80.5-16.3-121.5-16.4-41.3.2-82.7 5.6-121.4 16.4-92.6-62.8-133.4-49.7-133.4-49.7-26.4 66.8-9.8 116.1-4.8 128.3-31 33.9-49.9 77.2-49.9 130.2 0 185.9 113.2 227.5 220.9 239.7-13.9 12.2-26.4 33.5-30.8 64.9-27.7 12.4-97.9 33.8-141.2-40.3 0 0-25.6-46.5-74.3-50 0 0-47.4-.6-3.3 29.5 0 0 31.8 14.9 53.9 71 0 0 28.5 94.3 163.4 65 .2 40.5.6 71 .6 82.5 0 12.2 5.5 23.9 14.6 30.9 12.8 9.9 53.3 16.7 105.6 16.7s91.4-7.1 106-16.7c9.7-6.5 14.3-18.7 14.3-30.9z"/></svg>