<svg xmlns="http://www.w3.org/2000/svg" viewBox="0 0 1000 1200" class="cf-icon-svg"><path d="M236.8 630.6c9.3 96.8 70.8 180.7 160.3 218.6 4.2 1.8 8.3 3.4 12.6 4.9-31.9-52.7-53.4-132.7-56.7-223.6l-116.2.1zM409.7 357.1c-4.2 1.5-8.4 3.2-12.6 4.9-89.6 37.8-151.2 121.8-160.3 218.6h116.1c3.4-90.8 24.9-170.8 56.8-223.5zM597 580.6c-1.1-29.4-4.5-58.7-10.1-87.6-6.6-33.5-16-63.2-27.8-88.4-18.1-38.5-41.2-63.3-59.1-63.3s-41 24.9-59.1 63.3c-11.8 25.2-21.2 55-27.8 88.4-5.6 28.9-9 58.2-10.1 87.6h194zM403 630.6c1.1 29.4 4.5 58.7 10.1 87.6 6.6 33.5 16 63.2 27.8 88.4 18 38.5 41.2 63.3 59 63.3 17.8 0 41-24.9 59.1-63.3 11.8-25.2 21.2-55 27.8-88.4 5.6-28.9 9-58.2 10.1-87.6H403z"/><path d="M500 105.2c-276.1 0-500 223.9-500 500s223.9 500 500 500 500-223.9 500-500-223.9-500-500-500zm0 814.8c-173.6 0-314.4-140.8-314.4-314.4S326.4 291.2 500 291.2 814.4 432 814.4 605.6 673.6 920 500 920z"/><path d="M590.3 854.2c4.2-1.5 8.4-3.2 12.6-4.9 89.6-37.8 151.2-121.8 160.3-218.6H647.1c-3.4 90.8-24.9 170.8-56.8 223.5zM602.9 362c-4.2-1.8-8.3-3.4-12.6-4.9 31.9 52.7 53.4 132.7 56.7 223.6h116.1C754 483.8 692.4 399.9 602.9 362z"/></svg>