<svg xmlns="http://www.w3.org/2000/svg" viewBox="0 0 938.2 1200" class="cf-icon-svg"><path d="M739.2 297.3c-31.9-.5-203.5 18.3-400.8 132.2S39.1 682.6 23.6 710.5c-31.2 53.3-31.4 119.4-.5 172.9l297.9-172c-15.1-26.3-37-48.1-63.4-63.2 93.1-76.3 198.1-136.9 310.7-179.4-.1 30.4 7.8 60.2 23.1 86.5l297.9-172c-31-53.6-88.3-86.4-150.1-86zM934.2 461.2l-15-26-26 15-245.9 142-26 15 15 26c8.3 14.3 26.6 19.2 41 11l245.9-142c14.3-8.3 19.2-26.6 11-41zM365.9 789.3l-15-26-26 15L79 920.3l-26 15 15 26c8.3 14.3 26.6 19.2 41 11l245.9-142c14.3-8.3 19.3-26.6 11-41z"/></svg>