<svg xmlns="http://www.w3.org/2000/svg" viewBox="0 0 609.9 1200" class="cf-icon-svg"><path d="M397.5 989.9H209.2c-8.3 0-15 6.7-15 15 0 4.6 2.1 9 5.8 11.8 60.8 47.3 146 47.3 206.8 0 6.5-5.1 7.7-14.5 2.6-21-2.9-3.7-7.2-5.8-11.9-5.8zM585.9 312.7C520.4 157.5 341.6 84.8 186.4 150.3 73.4 197.9-.1 308.7 0 431.4c0 106.3 52.5 177.8 90.9 229.9 17.3 23.5 36.9 50.2 36.9 63.1v65.4c0 33.1 26.9 60 60 60h234.3c33.1 0 60-26.9 60-60v-65.5c0-12.9 19.6-39.6 36.9-63.1 38.3-52.2 90.9-123.6 90.9-229.9.1-40.7-8.1-81.1-24-118.6zM422.1 724.5V790H187.8v-65.5c0-77.8-127.8-143.9-127.8-293 0-135.3 109.7-244.9 244.9-244.9s244.9 109.6 244.9 244.9c.1 149.1-127.7 215.2-127.7 293zM422.1 890.3H187.8c-16.6 0-30 13.4-30 30s13.4 30 30 30h234.3c16.6 0 30-13.4 30-30s-13.4-30-30-30z"/></svg>