<svg xmlns="http://www.w3.org/2000/svg" viewBox="0 0 1000 1200" class="cf-icon-svg"><path d="M349 330.7c-5.9-5.7-15.3-5.7-21.2 0L216.1 442.3c-5.8 5.9-5.8 15.3 0 21.2l129.3 129.3c5.9 5.7 15.3 5.7 21.2 0l31.3-31.3-44.6-44.5c-13.7-13.7-13.7-35.8 0-49.5s35.8-13.7 49.5 0l44.6 44.6 30.9-30.9c5.8-5.9 5.8-15.3 0-21.2L349 330.7zM643.9 624.8c-5.9-5.8-15.3-5.8-21.2 0l-31.3 31.3 44.6 44.6c13.7 13.7 13.7 35.8 0 49.5s-35.8 13.7-49.5 0L542 705.6l-30.9 30.9c-5.8 5.9-5.8 15.3 0 21.2L640.4 887c5.9 5.8 15.3 5.8 21.2 0l111.6-111.6c5.8-5.9 5.8-15.3 0-21.2L643.9 624.8z"/><path d="M500 105.2c-276.1 0-500 223.9-500 500s223.9 500 500 500 500-223.9 500-500-223.9-500-500-500zm322.7 719.7L711.1 936.5c-33.2 33.1-87 33.1-120.2 0L461.6 807.2c-33.1-33.2-33.1-87 0-120.2l30.9-30.9-45.1-45.1-31.3 31.3c-33.2 33.1-87 33.1-120.2 0L166.6 513c-33.1-33.2-33.1-87 0-120.2l111.6-111.6c33.2-33.1 87-33.1 120.2 0l129.3 129.3c33.1 33.2 33.1 87 0 120.2l-30.9 30.9 45.1 45.1 31.3-31.3c33.2-33.1 87-33.1 120.2 0l129.3 129.3c33.2 33.2 33.2 86.9 0 120.2z"/></svg>