<svg xmlns="http://www.w3.org/2000/svg" viewBox="0 0 929.5 1200" class="cf-icon-svg"><path d="M894.4 702.8L731.3 539.7c-46.9-46.8-122.8-46.8-169.7 0l-34.9 34.9-53.2-53.2 34.4-34.4c46.8-46.9 46.8-122.8 0-169.7L344.8 154.2c-46.9-46.8-122.8-46.8-169.7 0l-140 140c-46.8 46.9-46.8 122.8 0 169.7L198.2 627c46.9 46.8 122.8 46.8 169.7 0l34.9-34.9 53.2 53.2-34.4 34.4c-46.8 46.9-46.8 122.8 0 169.7l163.1 163.1c46.9 46.8 122.8 46.8 169.7 0l140-140c46.8-46.9 46.8-122.8 0-169.7zM297.2 556.2c-7.9 7.7-20.4 7.7-28.3 0l-163.1-163c-7.7-7.9-7.7-20.4 0-28.3l140-140c7.9-7.7 20.4-7.7 28.3 0l163 163.1c7.7 7.9 7.7 20.4 0 28.3l-34.4 34.4-55.5-55.5c-19.6-19.4-51.3-19.3-70.7.3-19.3 19.5-19.3 50.9 0 70.4l55.6 55.6-34.9 34.7zm526.5 245.6l-140 140c-7.9 7.7-20.4 7.7-28.3 0L492.3 778.7c-7.7-7.9-7.7-20.4 0-28.3l34.4-34.4 55.5 55.5c19.4 19.6 51.1 19.7 70.7.3s19.7-51.1.3-70.7l-.3-.3-55.5-55.5 34.9-34.9c7.9-7.7 20.4-7.7 28.3 0l163.1 163.1c7.7 7.9 7.7 20.4 0 28.3z"/></svg>