<svg xmlns="http://www.w3.org/2000/svg" viewBox="0 0 784.5 1200" class="cf-icon-svg"><path d="M65.2 240.4H65c-35.9 0-65 29.1-65 65s29.1 65 65 65h.2c35.9 0 65-29.1 65-65s-29.1-64.9-65-65zM65.2 515H65c-35.9 0-65 29.1-65 65s29.1 65 65 65h.2c35.9 0 65-29.1 65-65s-29.1-65-65-65zM65.2 789.4H65c-35.9 0-65 29.1-65 65s29.1 65 65 65h.2c35.9 0 65-29.1 65-65s-29.1-65-65-65zM266.5 370.5h453c35.9 0 65-29.1 65-65s-29.1-65-65-65h-453c-35.9 0-65 29.1-65 65s29.1 65 65 65zM719.5 515h-453c-35.9 0-65 29.1-65 65s29.1 65 65 65h453c35.9 0 65-29.1 65-65s-29.1-65-65-65zM719.5 789.4h-453c-35.9 0-65 29.1-65 65s29.1 65 65 65h453c35.9 0 65-29.1 65-65s-29.1-65-65-65z"/></svg>