<svg xmlns="http://www.w3.org/2000/svg" viewBox="0 0 1000 1200" class="cf-icon-svg"><path d="M500 105.2c-276.1 0-500 223.9-500 500s223.9 500 500 500 500-223.9 500-500-223.9-500-500-500zM239.3 878.8h-.1c-27.6 0-50-22.4-50-50s22.4-50 50-50h.1c27.6 0 50 22.4 50 50s-22.4 50-50 50zm0-219.6h-.1c-27.6 0-50-22.4-50-50s22.4-50 50-50h.1c27.6 0 50 22.4 50 50s-22.4 50-50 50zm0-219.5h-.1c-27.6 0-50-22.4-50-50s22.4-50 50-50h.1c27.6 0 50 22.4 50 50s-22.4 50-50 50zm523.3 439.1H400.3c-27.6 0-50-22.4-50-50s22.4-50 50-50h362.3c27.6 0 50 22.4 50 50s-22.4 50-50 50zm0-219.6H400.3c-27.6 0-50-22.4-50-50s22.4-50 50-50h362.3c27.6 0 50 22.4 50 50s-22.4 50-50 50zm0-219.5H400.3c-27.6 0-50-22.4-50-50s22.4-50 50-50h362.3c27.6 0 50 22.4 50 50s-22.4 50-50 50z"/></svg>