<svg xmlns="http://www.w3.org/2000/svg" viewBox="0 0 1000 1200" class="cf-icon-svg"><path d="M300.4 717.2h400.7v40H300.4zM300.4 808h400.7v40H300.4zM529.7 627.3h171.4v40H529.7z"/><path d="M500 105.2c-276.1 0-500 223.9-500 500s223.9 500 500 500 500-223.9 500-500-223.9-500-500-500zm75.8 168l173.9 167.9H575.8V273.2zm175 624.5c0 22.1-17.9 40-40 40H290.3c-22.1 0-40-17.9-40-40V310.4c0-22.1 17.9-40 40-40h239.2v186.5c0 16.9 13.7 30.5 30.6 30.6h190.7v410.2z"/><path d="M529.7 537.4h171.4v40H529.7zM355.1 531.8c8.2 4.1 17 6.9 26.1 8.4 6.8 1.1 13.6 1.7 20.5 1.6 4.5 0 9.1.4 13.5 1.4 4.8 1.1 9.5 2.7 13.9 5 4.4 2.4 8.3 5.5 11.6 9.3 3.4 3.9 5.3 8.9 5.3 14 0 4.9-1.4 11.4-12 18.3-8.9 5.7-21.7 9.3-33.5 9.3-4.5 0-11.7-1.3-14.5-1.7-4.7-1-9.2-2.4-13.5-4.3-4.3-1.9-8.1-4.8-11.1-8.4-7.3-8.3-19.9-9.1-28.2-1.8-8.2 7.2-9.1 19.6-2 27.9 7.8 9 16.7 15.5 26.5 19.4 6.9 3 14.1 5.2 21.5 6.6l2.2.4v18c0 11 9 20 20 20s20-9 20-20V637c12.2-2.4 23.8-7 34.3-13.6 19.8-12.9 30.3-30.8 30.3-51.9 0-14.8-5.4-29.2-15.2-40.3-6.5-7.4-14.3-13.7-23.1-18.4-7.6-3.9-15.7-6.8-24-8.7-7.2-1.5-14.6-2.3-22-2.3-4.7 0-9.3-.3-13.9-1.1-5.2-.9-10.2-2.5-14.9-4.8-4.4-2.2-8.3-5.4-11.4-9.2-3.4-4.2-5.5-9.5-5.5-14.1 0-5.3 2.3-13.1 13.1-19.9 8.7-5.5 21-8.8 32.8-8.8 2.8 0 6.9.9 11.6 1.9l1.4.3c4.8 1.1 9.5 2.8 13.9 4.9 4.3 1.9 8.2 4.6 11.6 7.9 7.8 7.8 20.5 7.8 28.3 0s7.8-20.5 0-28.3c-6.8-6.7-14.7-12.2-23.4-16.1-7-3.2-14.3-5.7-21.9-7.5l-1.4-.3-.8-.2v-18.2c0-11-9-20-20-20s-20 9-20 20v17.6c-11.9 2.3-23.2 6.7-33.5 13-20.2 12.7-31.7 32.3-31.7 53.7.2 14.4 5.3 28.3 14.5 39.3 6.8 8.5 15.1 15.2 24.6 19.9z"/></svg>