<svg xmlns="http://www.w3.org/2000/svg" viewBox="0 0 651.7 1200" class="cf-icon-svg"><path d="M120.2 841.2h411.5v50H120.2zM120.2 710.5h411.5v50H120.2zM361.2 579.8h170.5v50H361.2zM361.2 449.1h170.5v50H361.2zM165 488.6c9.5 4.7 19.6 8 30 9.7 7.7 1.3 15.6 1.9 23.4 1.9 4.9 0 9.8.5 14.6 1.5 5.2 1.1 10.2 2.9 14.9 5.4 4.6 2.6 8.8 5.9 12.3 9.8 3.4 3.9 5.3 8.9 5.3 14.1 0 3.1 0 10.4-12.4 18.4-7.5 4.8-20.9 10-36.2 10-4.9 0-12.8-1.4-15.8-1.9-4.8-.8-9.9-2.8-14.7-4.7-3.9-1.5-7.7-4.5-11.4-8.8-9-10.4-24.8-11.6-35.3-2.5s-11.6 24.8-2.5 35.3c9 10.4 19.3 18 30.7 22.5 7 2.8 15.2 5.9 24.7 7.5l.4.1V625c0 13.8 11.2 25 25 25s25-11.2 25-25v-18.4c13.3-2.8 25.9-8 37.4-15.2 23-14.9 35.1-35.8 35.1-60.4 0-17.3-6.3-34-17.7-47-7.5-8.6-16.6-15.8-26.6-21.2-8.7-4.5-18-7.9-27.6-10-8.3-1.8-16.8-2.6-25.3-2.6-5.1 0-10.2-.3-15.2-1.1-5.5-.9-10.8-2.6-15.9-5.1-4.6-2.3-8.7-5.6-12-9.6-3.5-4.3-5.6-9.6-5.6-14.2 0-5.3 2.3-13.2 13.5-20.2 9.4-6 22.7-9.5 35.5-9.5 2.9 0 7.3 1 12.5 2.1l1.5.3c5.2 1.2 10.3 3 15.1 5.3 4.5 2.1 8.7 4.9 12.2 8.4 9.8 9.7 25.6 9.6 35.4-.2 9.7-9.8 9.6-25.5 0-35.2-7.8-7.8-17-14-27-18.6-8-3.7-16.4-6.6-25-8.5l-.4-.1v-18.4c0-13.8-11.2-25-25-25s-25 11.2-25 25v17.7c-12.9 2.7-25.2 7.6-36.4 14.5-23.4 14.8-36.8 37.5-36.8 62.5 0 16.2 6 32.5 16.8 45.7 7.9 9.4 17.5 17.1 28.5 22.6z"/><path d="M630.5 322.5l-70.1-70.1L469 161H30c-16.5 0-30 13.5-30 30v827.8c0 16.5 13.5 30 30 30h591.7c16.5 0 30-13.5 30-30V343.7l-21.2-21.2zm-38.8 99.2v567.1H60V221h359.6v134.8c.1 20 16.2 36.2 36.2 36.2h135.9v29.7z"/></svg>