<svg xmlns="http://www.w3.org/2000/svg" viewBox="0 0 642.4 1200" class="cf-icon-svg"><path d="M181.8 721.7c18 17.9 39.3 32.2 62.7 42.2 24.4 10.4 50.6 15.7 77.1 15.6 27.3 0 52.9-5.2 76.7-15.6 23.2-10 44.4-24.3 62.3-42.2 36.6-37 57.1-87 57-139l.7-283.4c.2-26.5-5-52.7-15.2-77.1-19.6-47.4-56.9-85.3-104.1-105.6-23.8-10.4-49.4-15.6-76.7-15.6-26.5-.2-52.8 5.1-77.1 15.6-47.5 20.2-85.4 58.1-105.6 105.6a194.63 194.63 0 0 0-15.6 77.1v283.4c-.1 26.3 5.2 52.3 15.6 76.4 9.9 23.3 24.3 44.6 42.2 62.6z"/><path d="M612.4 469.9c-16.6 0-30 13.4-30 30v82.7c.2 70.3-27.5 137.8-76.9 187.7-49.5 50.2-114.9 77.9-184.3 77.9s-134.8-27.7-184.3-77.9c-49.4-50-77.1-117.5-76.9-187.7v-82.7c0-16.6-13.4-30-30-30s-30 13.4-30 30v82.7c-.1 86 33.8 168.6 94.2 229.8 29.2 29.7 63.8 53.5 102.1 70 30.2 13 62.2 21.3 95 24.3v129.4h-151c-16.6 0-30 13.4-30 30s13.4 30 30 30h362c16.6 0 30-13.4 30-30s-13.4-30-30-30h-151V906.8c32.7-3.1 64.8-11.3 95-24.3 38.2-16.5 72.9-40.3 102.1-70 60.4-61.3 94.2-143.8 94.1-229.9v-82.7c-.1-16.6-13.6-30-30.1-30z"/></svg>