<svg xmlns="http://www.w3.org/2000/svg" viewBox="0 0 1000 1200" class="cf-icon-svg"><path d="M500 105.2c-276.1 0-500 223.9-500 500s223.9 500 500 500 500-223.9 500-500-223.9-500-500-500zm-95.6 233.7l81.1-81.1c7.8-7.8 20.5-7.8 28.3 0l81.2 81.1c7.7 7.9 7.5 20.6-.5 28.3-7.8 7.5-20 7.5-27.8 0l-47-47V377c0 11-9 20-20 20s-20-9-20-20v-56.8l-47 47c-7.7 7.9-20.3 8.2-28.3.5s-8.2-20.3-.5-28.3c.2-.2.4-.3.5-.5zM595 872.6l-81.2 81.1c-7.8 7.8-20.5 7.8-28.3 0l-81.1-81.1c-7.7-7.9-7.5-20.6.5-28.3 7.8-7.5 20-7.5 27.8 0l47 47v-56.8c0-11 9-20 20-20s20 9 20 20v56.8l47-47c7.8-7.8 20.5-7.8 28.3 0 7.8 7.8 7.8 20.4 0 28.3zm216.6-129.2c0 11-9 20-20 20H208.9c-11 0-20-9-20-20V468c0-11 9-20 20-20h582.8c11 0 20 9 20 20v275.4z"/><path d="M589.3 516.7c-49.1-48.9-128.5-48.7-177.4.3s-48.7 128.5.3 177.4 128.5 48.7 177.4-.3c36-36.1 46.5-90.4 26.7-137.4-6.3-15-15.5-28.5-27-40zm-51.9 157.9c-6.7 4.3-14.2 7.3-22 9v14.9c0 8.3-6.7 15-15 15s-15-6.7-15-15v-14.7h-.1c-5-1-9.9-2.5-14.6-4.5-7.1-2.9-13.3-7.5-18.2-13.4-5.3-6.4-4.5-15.8 1.9-21.1 6.2-5.2 15.4-4.5 20.8 1.5 1.8 2.2 4.1 4 6.7 5.1 2.8 1.2 5.7 2.1 8.7 2.8 3.1.6 6.2 1 9.3 1.1 7.5 0 14.9-2 21.3-5.9 6.4-4.1 7.2-7.8 7.2-10.8 0-3-1.1-5.9-3.1-8.2-2.1-2.3-4.5-4.3-7.2-5.8-2.8-1.4-5.7-2.5-8.8-3.2-2.8-.6-5.7-.9-8.6-.9-4.7 0-9.3-.4-13.9-1.1-6.2-1-12.2-3-17.8-5.8-6.5-3.3-12.3-7.9-16.8-13.6-6.4-7.6-9.9-17.2-10-27.2 0-14.8 8-28.4 21.9-37.2 6.6-4.1 13.9-7 21.5-8.6v-14c0-8.3 6.7-15 15-15s15 6.7 15 15v14.8h.1c5.1 1.2 10.1 2.9 14.9 5.1 5.9 2.7 11.4 6.4 16 11 6 5.7 6.1 15.2.4 21.2-5.7 6-15.2 6.1-21.2.4l-.4-.4c-2.1-2-4.5-3.7-7.2-4.9-2.9-1.3-5.8-2.4-8.9-3.1l-.9-.2c-2.4-.6-4.9-1-7.4-1.2-7.5 0-15.3 2.1-20.9 5.6-6.5 4.1-7.9 8.7-7.9 11.8.1 3 1.3 5.9 3.3 8.3 1.9 2.3 4.3 4.3 7 5.6 2.9 1.4 6.1 2.5 9.3 3 3 .5 6 .7 9 .7 5 0 10.1.5 15 1.6 5.7 1.2 11.2 3.2 16.4 5.9 6 3.2 11.3 7.5 15.8 12.6 6.8 7.7 10.5 17.7 10.5 27.9-.2 14.6-7.5 27-21.1 35.9z"/></svg>