<svg xmlns="http://www.w3.org/2000/svg" viewBox="0 0 1000 1200" class="cf-icon-svg"><path d="M489.4 732.5h206.8v50.9H489.4zM489.4 604.8h206.8v50.9H489.4zM245.5 604.7h178.6v178.6H245.5zM245.5 430.5h447.8v89.3H245.5z"/><path d="M500 105.2c-276.1 0-500 223.9-500 500s223.9 500 500 500 500-223.9 500-500-223.9-500-500-500zm246.2 749.5c-.1 11.2-9.2 20.3-20.4 20.3H215c-11.2 0-20.3-9.1-20.4-20.3V359.8c0-11.2 9.1-20.3 20.4-20.4h510.8c11.2 0 20.3 9.1 20.3 20.4l.1 494.9zM830 875c-18.2 0-33-14.8-33-33V415.3h66v426.8c0 18.2-14.8 32.9-33 32.9z"/></svg>