<svg xmlns="http://www.w3.org/2000/svg" viewBox="0 0 1000 1200" class="cf-icon-svg"><path d="M606.1 354.2c-93.8-39.7-201.8-23.7-280.1 41.4l383.8 383.8c96.1-116 80-287.9-36-384-20.5-17-43.3-30.8-67.7-41.2z"/><path d="M500 105.2c-276.1 0-500 223.9-500 500s223.9 500 500 500 500-223.9 500-500-223.9-500-500-500zm0 822.7c-178.1 0-322.5-144.4-322.5-322.5S321.9 282.8 500 282.8s322.5 144.4 322.5 322.5S678.1 927.9 500 927.9z"/><path d="M248.9 499.3c-58.7 138.6 6.1 298.5 144.7 357.2 94 39.8 202.4 23.7 280.8-41.7L290.6 431c-17.2 20.6-31.3 43.6-41.7 68.3z"/></svg>