<svg xmlns="http://www.w3.org/2000/svg" viewBox="0 0 882.8 1200" class="cf-icon-svg"><path d="M87.9 526.5v404.7c0 16.5 13.5 30 30 30h646.7c16.5 0 30-13.5 30-30V526.6L440.1 324.8 87.9 526.5zm278.3 220H225.1V603.6h141.1v142.9zm150-142.9h141.1v142.9H516.2V603.6z"/><path d="M867.3 441.4L454.8 206.6c-9.2-5.3-20.5-5.3-29.8 0L225.1 321.1v-83.7c0-16.5-13.5-30-30-30h-77.2c-16.5 0-30 13.5-30 30v162.3l-72.8 41.7C.7 449.7-4.3 468 4 482.4s26.6 19.4 40.9 11.1l43-24.6L440 267.2l354.6 201.9 43.1 24.5c14.3 8.4 32.7 3.6 41-10.7 8.4-14.3 3.6-32.7-10.7-41-.3-.2-.5-.3-.7-.5z"/></svg>