<svg xmlns="http://www.w3.org/2000/svg" viewBox="0 0 1000 1200" class="cf-icon-svg"><circle cx="380" cy="346.2" r="204.4"/><path d="M581.2 677.9c-15.9-20-27.9-42.9-35.2-67.4H200c-110 0-200 90-200 200v120c.1 44.1 35.9 79.9 80 80h350.8c-9.2-16.9-14.1-35.8-14.1-55.1v-82.6c0-26.4 5.3-52.6 15.6-76.9 26.3-62.1 82.4-106.5 148.9-118z"/><path d="M862.3 735.1H614.4c-75.7 0-137.7 62-137.7 137.7v82.6c.1 30.4 24.7 55 55.1 55.1h413.1c30.4-.1 55-24.7 55.1-55.1v-82.6c0-75.7-62-137.7-137.7-137.7z"/><circle cx="738.3" cy="553.1" r="140.7"/></svg>