<svg xmlns="http://www.w3.org/2000/svg" viewBox="0 0 1000 1200" class="cf-icon-svg"><path d="M699.7 672.3v-90.5c0-11-9-20-20-20s-20 9-20 20v99c0 6.1 2.7 11.8 7.5 15.6l63.6 63.6c7.7 7.9 20.3 8.2 28.3.5 7.9-7.7 8.2-20.3.5-28.3l-.5-.5-59.4-59.4zM289.9 531.8c8.2 4.1 17 6.9 26.1 8.4 6.8 1.1 13.6 1.7 20.5 1.6 4.5 0 9.1.4 13.5 1.4 4.8 1.1 9.5 2.7 13.9 5 4.4 2.4 8.3 5.5 11.6 9.3 3.4 3.9 5.3 8.9 5.3 14 0 4.9-1.4 11.4-12 18.3-8.9 5.7-21.7 9.3-33.5 9.3-4.5 0-11.7-1.3-14.5-1.7-4.7-1-9.2-2.4-13.5-4.3-4.3-1.9-8.1-4.8-11.1-8.4-7.3-8.3-19.9-9.1-28.2-1.8-8.2 7.2-9.1 19.6-2 27.9 7.8 9 16.7 15.5 26.5 19.4 6.9 3 14.1 5.2 21.5 6.6l2.2.4v18c0 11 9 20 20 20s20-9 20-20V637c12.2-2.4 23.8-7 34.3-13.6 19.8-12.9 30.3-30.8 30.3-51.9 0-14.8-5.4-29.2-15.2-40.3-6.5-7.4-14.3-13.7-23.1-18.4-7.6-3.9-15.7-6.8-24-8.7-7.2-1.5-14.6-2.3-22-2.3-4.7 0-9.3-.3-13.9-1.1-5.2-.9-10.2-2.5-14.9-4.8-4.4-2.2-8.3-5.4-11.4-9.2-3.4-4.2-5.5-9.5-5.5-14.1 0-5.3 2.3-13.1 13.1-19.9 8.7-5.5 21-8.8 32.8-8.8 2.8 0 6.9.9 11.6 1.9l1.4.3c4.8 1.1 9.5 2.8 13.9 4.9 4.3 1.9 8.2 4.6 11.6 7.9 7.8 7.8 20.5 7.8 28.3 0s7.8-20.5 0-28.3c-6.8-6.7-14.7-12.2-23.4-16.1-7-3.2-14.3-5.7-21.9-7.5l-1.4-.3-.8-.2v-18.2c0-11-9-20-20-20s-20 9-20 20v17.6c-11.9 2.3-23.2 6.7-33.5 13-20.2 12.7-31.7 32.3-31.7 53.7.2 14.4 5.3 28.3 14.4 39.3 6.8 8.5 15.2 15.2 24.7 19.9z"/><path d="M500 105.2c-276.1 0-500 223.9-500 500s223.9 500 500 500 500-223.9 500-500-223.9-500-500-500zm185.5 792.5c0 22.1-17.9 40-40 40H225.1c-22.1 0-40-17.9-40-40V310.4c0-22.1 17.9-40 40-40h420.5c22.1 0 40 17.9 40 40v89.8l-33.4.1c-5.5 0-11 .8-16.3 2.3v-35.9H464.4v40h160.7c-19.2 9.6-31.9 28.5-33.6 49.9H464.4v40h105.8c-15.6 9.2-30 20.4-42.8 33.2-5.3 5.3-10.3 10.8-15 16.6h-48v40h22.2c-1.9 3.9-3.8 7.8-5.4 11.8-11.2 26.5-17 55.1-17 83.9 0 11.7.9 23.4 2.8 35H235.2v40h242.5c1.1 3 2.3 5.9 3.5 8.8 6.3 14.8 14.2 28.9 23.6 42H235.2v40h307c38.6 32.1 87.3 49.6 137.5 49.6 1.9 0 3.9 0 5.8-.1v.3zm-5.8-40.1c-96.9 0-175.4-78.5-175.5-175.4 0-89.2 66.9-164.2 155.5-174.3v-26.5H652.3c-11 0-20-8.9-20-20 0-11 8.9-20 20-20l54.7-.2h.1c11 0 20 8.9 20 20 0 11-8.9 20-20 20h-7.4v26.6c31.9 3.6 62.3 16 87.6 35.7l17.4-17.4c7.8-7.8 20.5-7.8 28.3 0s7.8 20.5 0 28.3l-17.1 17.1c61.1 75.2 49.6 185.7-25.6 246.8-31.3 25.4-70.3 39.3-110.6 39.3z"/></svg>