<svg xmlns="http://www.w3.org/2000/svg" viewBox="0 0 781.7 1200" class="cf-icon-svg"><path d="M644.9 198.3c-29.9-19.9-70.2-11.9-90.2 17.9L119.4 868c-20.6 29.4-13.4 69.9 16 90.5 29.4 20.6 69.9 13.4 90.5-16 .5-.8 1.1-1.6 1.6-2.4l435.4-651.8c19.9-29.7 11.8-70.1-18-90zM322.5 353c0-88.9-72.3-161.2-161.2-161.2S0 264.1 0 353s72.3 161.2 161.2 161.2S322.5 441.9 322.5 353zM100 353c0-33.8 27.4-61.2 61.2-61.2s61.2 27.4 61.2 61.2-27.4 61.2-61.2 61.2c-33.8 0-61.2-27.4-61.2-61.2zM620.5 646.1c-88.9 0-161.2 72.3-161.2 161.2s72.3 161.2 161.2 161.2 161.2-72.3 161.2-161.2-72.4-161.2-161.2-161.2zm0 222.4c-33.8 0-61.2-27.4-61.2-61.2s27.4-61.2 61.2-61.2 61.2 27.4 61.2 61.2c-.1 33.8-27.5 61.2-61.2 61.2z"/></svg>