<svg xmlns="http://www.w3.org/2000/svg" viewBox="0 0 1000 1200" class="cf-icon-svg"><path d="M420.83,451.24H555.49a24.82,24.82,0,1,0,0-49.63H420.83a24.82,24.82,0,1,0,0,49.63Z"/><path d="M594.24,528.53a27.8,27.8,0,0,0-38,10.17l-83.12,144L441,644.09a27.78,27.78,0,1,0-42.7,35.56L456,748.84a27.73,27.73,0,0,0,21.35,10c.8,0,1.61,0,2.35-.1A27.78,27.78,0,0,0,501.37,745l103-178.48A27.81,27.81,0,0,0,594.24,528.53Z"/><path d="M500,100C223.86,100,0,323.86,0,600s223.86,500,500,500,500-223.86,500-500S776.14,100,500,100ZM851.07,619.92a58.09,58.09,0,0,1-57.89,57.93H766a242.79,242.79,0,0,1-59.24,96.51q-6.11,6.17-12.7,11.83v102.7a24.85,24.85,0,0,1-24.82,24.79H593.08a24.86,24.86,0,0,1-24.82-24.79V843.25a240.33,240.33,0,0,1-33.51,2.37H432.68a240.29,240.29,0,0,1-33.48-2.37v45.63a24.85,24.85,0,0,1-24.82,24.79H298.22a24.86,24.86,0,0,1-24.82-24.79V786.18q-6.57-5.66-12.73-11.83a243.32,243.32,0,0,1-66.61-124.83,47.23,47.23,0,0,1,0-94.36A243.21,243.21,0,0,1,432.68,359.07H534.75a242.84,242.84,0,0,1,49.07,5l133-77.39a12.92,12.92,0,0,1,8.25-1.68,13.19,13.19,0,0,1,11.48,14.72,13.5,13.5,0,0,1-1.41,4.54A227.35,227.35,0,0,0,710.57,434.2,242.9,242.9,0,0,1,766,526.84h27.18a58.08,58.08,0,0,1,57.89,57.89Z"/></svg>
