<svg xmlns="http://www.w3.org/2000/svg" viewBox="0 0 970.3 1200" class="cf-icon-svg"><path d="M478.7 457.5c9-21.2 20.5-41.2 34.3-59.6H70c-38.6.1-69.9 31.4-70 70v60.2h459.2c3.4-24.3 9.9-48 19.5-70.6zM738.4 849.1c-147.6.1-270.3-113.8-281.1-261H0v303.2c.1 38.6 31.4 69.9 70 70h747.6c38.6-.1 69.9-31.4 70-70v-84.9a280 280 0 0 1-149.2 42.7zM448.5 825H158.7v-50h289.8v50z"/><path d="M738.4 335.3c-128.1 0-231.9 103.8-231.9 231.9s103.8 231.9 231.9 231.9 231.9-103.8 231.9-231.9-103.8-231.9-231.9-231.9zm50.9 327c-9.3 5.9-19.6 10.1-30.3 12.3v15c0 11-9 20-20 20s-20-9-20-20v-14.8l-.5-.1c-6.8-1.3-13.5-3.4-19.9-6.1-9.6-4-18.1-10.2-24.7-18.1-7.3-8.3-6.5-20.9 1.8-28.2 8.3-7.3 20.9-6.5 28.2 1.8l.3.3c2.5 3.1 5.7 5.5 9.3 7.2 3.8 1.7 7.8 3 11.9 3.8 4.2.8 8.5 1.3 12.8 1.5 12.4 0 23.3-4.2 29.4-8.1 10.1-6.6 10.1-12.5 10.1-15.1 0-4.2-1.6-8.3-4.4-11.5-2.8-3.2-6.2-5.9-10-8-3.8-2-7.9-3.4-12.1-4.3-3.9-.8-7.9-1.2-11.9-1.2-6.3 0-12.7-.5-18.9-1.5-8.4-1.4-16.6-4-24.2-7.8-8.8-4.4-16.6-10.7-22.9-18.4-8.6-10.4-13.4-23.4-13.5-36.9 0-20.1 10.8-38.5 29.7-50.4 9.1-5.6 19.1-9.6 29.6-11.7v-14.5c0-11 9-20 20-20s20 9 20 20v15.1l.5.1c7 1.6 13.7 3.9 20.2 6.9 8.1 3.7 15.5 8.7 21.8 15 8.1 7.5 8.7 20.1 1.2 28.3-7.5 8.1-20.1 8.7-28.3 1.2l-1.2-1.2c-2.9-2.8-6.3-5.2-10-6.8-3.9-1.8-8.1-3.3-12.3-4.3l-1.2-.3c-4.2-.9-7.8-1.7-10.2-1.7-10.4 0-21.1 2.9-28.8 7.7-9.1 5.8-11 12.2-11 16.5.2 4.3 1.8 8.4 4.6 11.6 2.7 3.3 6 5.9 9.7 7.8 4.1 2 8.4 3.4 12.9 4.1 4.1.7 8.2 1 12.3 1 6.8 0 13.7.7 20.4 2.1 7.7 1.7 15.2 4.4 22.3 8 8.1 4.4 15.4 10.2 21.5 17.1 9.2 10.5 14.2 23.9 14.2 37.8-.1 20-9.9 36.8-28.4 48.8z"/></svg>