<svg xmlns="http://www.w3.org/2000/svg" viewBox="0 0 1000 1200" class="cf-icon-svg"><circle cx="707.3" cy="569" r="25"/><path d="M346.8 747.6h299v40h-299zM346.8 822h299v40h-299z"/><path d="M500 105.2c-276.1 0-500 223.9-500 500s223.9 500 500 500 500-223.9 500-500-223.9-500-500-500zm64.5 149.1l134.2 129.5v.3H564.5V254.3zm-40 0v143.4c0 14.5 11.9 26.4 26.4 26.4h147.8v43.7H300.9V274.3c0-11 9-20 20-20h203.6zm172.9 650.3H302.2v-203h395.2v203zM779.1 786c0 24.9-18 45.9-41.7 50.4V683.6c0-12.1-9.9-22-22-22H284.2c-12.1 0-22 9.9-22 22v152.9c-23.7-4.5-41.7-25.5-41.7-50.4v-224c0-28.2 23.1-51.3 51.3-51.3h456c28.2 0 51.3 23.1 51.3 51.3V786z"/></svg>