<svg xmlns="http://www.w3.org/2000/svg" viewBox="0 0 827.1 1200" class="cf-icon-svg"><path d="M723.5 392.5l39.3-39.3c11.7-11.7 11.7-30.7 0-42.4s-30.7-11.7-42.4 0l-39.8 39.8a411.62 411.62 0 0 0-237.1-96.7v-59.4l34.6-.1c16.6 0 30-13.5 29.9-30.1s-13.5-30-30.1-29.9h.1l-129 .5c-16.6 0-30 13.5-29.9 30.1 0 16.6 13.5 30 30.1 29.9h.1l34.4-.1V254C169.2 269.2 0 448 0 666.3c0 228.4 185.2 413.6 413.6 413.6s413.6-185.2 413.6-413.6c.1-100.9-36.8-198.3-103.7-273.8zM413.6 1013c-191.5 0-346.7-155.2-346.7-346.7s155.2-346.7 346.7-346.7 346.7 155.2 346.7 346.7S605 1013 413.6 1013z"/><path d="M687 550.8C623.2 399.2 448.6 328 297 391.7s-222.8 238.4-159.1 390 238.4 222.8 390 159.1c110.5-46.5 182.4-154.7 182.4-274.6 0-39.6-7.9-78.8-23.3-115.4zM486.8 806.1c-13.7 8.9-30.7 15.3-48.3 18.7v35.7c0 13.8-11.2 25-25 25s-25-11.2-25-25V825c-1.7-.3-3.5-.6-5.1-.9-11.1-1.9-20.8-5.6-29.1-8.9-13-5.2-25-14-35.4-26-9-10.4-7.9-26.2 2.5-35.3 10.4-9 26.2-7.9 35.3 2.5 5.1 5.9 10.5 10 16.1 12.3 6.2 2.5 12.7 5 19.1 6.1 3.8.7 13.8 2.4 20.3 2.4 16.7 0 34.8-5 47.3-13.2 15.7-10.2 17.7-19.9 17.7-27.2-.1-7.7-2.9-15.1-7.9-20.9-4.7-5.4-10.3-9.9-16.6-13.3-6.2-3.2-12.8-5.6-19.7-7.1-6.3-1.3-12.7-2-19.1-1.9-9.3 0-18.6-.7-27.7-2.2-12.2-2-24-5.9-35.1-11.3-12.7-6.4-23.9-15.4-32.9-26.4-12.4-15.2-19.3-33.9-19.3-52.4 0-28.5 15.5-54.7 42.4-71.7 13.6-8.6 30-14.7 47.2-17.8v-34.5c0-13.8 11.2-25 25-25s25 11.2 25 25v35.4l3 .7 1.9.4c10.2 2.3 20.1 5.7 29.5 10.1 11.7 5.3 22.3 12.6 31.4 21.6 9.7 9.8 9.7 25.6-.1 35.4-9.7 9.7-25.4 9.7-35.2.1-4.8-4.8-10.4-8.6-16.6-11.4-6.3-2.9-12.9-5.2-19.6-6.8l-1.9-.4c-6.7-1.5-12.4-2.7-16.5-2.7-16.7 0-34 4.7-46.4 12.5-15.8 10-19.1 21.5-19.1 29.5 0 6.9 3 14.7 8.1 20.9 4.5 5.5 10.1 10 16.5 13.2 6.6 3.3 13.7 5.5 21 6.7 6.4 1.1 13 1.6 19.5 1.5 10 0 19.9 1 29.7 3.1 11.2 2.5 22.1 6.4 32.3 11.7 11.7 6.3 22.2 14.7 31 24.7 13 14.9 20.2 34 20.2 53.8.1 27.7-13.9 51.6-40.4 68.8z"/></svg>