<svg xmlns="http://www.w3.org/2000/svg" viewBox="0 0 1000 1200" class="cf-icon-svg"><path d="M533.6 647.2c-7.6-4-15.8-6.9-24.1-8.7-7.3-1.5-14.7-2.3-22.1-2.3-4.5 0-8.9-.3-13.3-1-4.8-.8-9.5-2.3-13.9-4.5-4-2-7.6-4.9-10.5-8.4-3-3.5-4.7-7.9-4.9-12.4 0-4.7 2-11.5 11.8-17.7 8.2-5.2 19.8-8.3 31-8.3 2.5 0 6.4.8 11 1.8l1.3.3c4.6 1.1 9 2.6 13.2 4.6 4 1.8 7.6 4.3 10.7 7.3 8.6 8.5 22.4 8.5 30.9-.1s8.5-22.4-.1-30.9c-6.8-6.8-14.8-12.3-23.6-16.2-7-3.2-14.4-5.8-21.9-7.5l-.4-.1V527c0-12.1-9.8-21.9-21.9-21.9s-21.9 9.8-21.9 21.9v15.5c-11.3 2.3-22.1 6.6-31.9 12.7-20.5 12.9-32.2 32.8-32.2 54.7.2 14.6 5.4 28.7 14.7 40 6.8 8.3 15.2 15.1 24.8 19.9 8.3 4.1 17.1 7 26.2 8.5 6.8 1.1 13.6 1.7 20.5 1.6 4.3 0 8.6.4 12.8 1.3 4.5 1 8.9 2.6 13.1 4.7 4.1 2.2 7.7 5.2 10.8 8.7 3 3.4 4.6 7.8 4.7 12.3 0 2.7 0 9.1-10.8 16.1-6.5 4.2-18.3 8.8-31.7 8.8-4.2 0-11.2-1.2-13.8-1.7-4.4-.9-8.7-2.3-12.9-4.1-3.9-1.7-7.3-4.4-10-7.7-7.9-9.1-21.7-10.1-30.9-2.2-9.1 7.9-10.1 21.7-2.2 30.9 7.9 9.1 16.9 15.7 26.8 19.7 6.9 3 14.2 5.2 21.6 6.6l.4.1V789c0 12.1 9.8 21.9 21.9 21.9 12.1 0 21.9-9.8 21.9-21.9v-16c11.6-2.5 22.7-7 32.7-13.3 20.1-13.1 30.8-31.3 30.8-52.8 0-15.1-5.5-29.7-15.5-41.1-6.3-7.6-14.2-13.9-23.1-18.6zM616.2 417.8c-78.2-53.5-181.1-53.5-259.3 0-10 6.8-12.5 20.4-5.7 30.4s20.4 12.5 30.4 5.7c63.3-43.2 146.6-43.2 209.9 0 10 6.8 23.6 4.3 30.4-5.7 6.8-10 4.3-23.6-5.7-30.4z"/><path d="M500 105.2c-276.1 0-500 223.9-500 500s223.9 500 500 500 500-223.9 500-500-223.9-500-500-500zm351.8 559c0 12.1-9.8 21.8-21.8 21.9h-67.9c-11 38.5-30 74.3-55.8 105v133.8c0 12.1-9.8 21.8-21.9 21.9H597c-12.1 0-21.8-9.8-21.9-21.9v-45c-57.3 18.5-119 18.6-176.3.3v44.7c0 12-9.8 21.8-21.8 21.9h-87.5c-12.1 0-21.8-9.8-21.9-21.9V792.2c-33-38.9-54.9-86-63.5-136.3-26.8 4.8-52.4-13-57.2-39.8s13-52.4 39.8-57.2c5.7-1 11.6-1 17.4 0 23.1-135.1 140.7-238 282.4-238 26 0 51.9 3.5 76.9 10.5l147-75 17.9-9.1c7.1-3.6 15.7-.8 19.3 6.3 2.2 4.4 2.1 9.7-.5 13.9-9.4 15.8-17.1 32.6-22.7 50.1-12.9 39.7-18.3 102.1 2.3 133.6 15.6 23.9 27.5 50.1 35.4 77.5H830c12.1 0 21.8 9.8 21.9 21.9l-.1 113.6z"/></svg>