<svg xmlns="http://www.w3.org/2000/svg" viewBox="0 0 756 1200" class="cf-icon-svg"><ellipse transform="rotate(-45.001 88.59 870.785)" cx="88.6" cy="870.8" rx="88.6" ry="88.6"/><path d="M691.1 957c-35.9 0-65-29.1-65-65 0-75.4-14.7-148.4-43.8-217.2-28.1-66.4-68.4-126.1-119.6-177.4-51.3-51.3-111-91.5-177.4-119.6C216.4 348.7 143.4 334 68 334c-35.9 0-65-29.1-65-65s29.1-65 65-65c92.9 0 183 18.2 267.8 54.1 81.9 34.7 155.5 84.3 218.7 147.4s112.8 136.7 147.4 218.7c35.9 84.9 54.1 175 54.1 267.8.1 35.9-29 65-64.9 65z"/><path d="M404.5 957c-35.9 0-65-29.1-65-65 0-72.5-28.2-140.7-79.5-192s-119.5-79.5-192-79.5c-35.9 0-65-29.1-65-65s29.1-65 65-65c54.2 0 106.8 10.6 156.3 31.6 47.8 20.2 90.8 49.2 127.6 86s65.8 79.8 86 127.6c21 49.5 31.6 102.1 31.6 156.3 0 35.9-29.1 65-65 65z"/></svg>