<svg xmlns="http://www.w3.org/2000/svg" viewBox="0 0 1000 1200" class="cf-icon-svg"><path d="M500 105.2c-276.1 0-500 223.9-500 500s223.9 500 500 500 500-223.9 500-500-223.9-500-500-500zM379.4 609.5c0 9-1 18-3.1 26.8L562 753.7c48.9-41.1 121.8-34.8 162.9 14.1 41.1 48.9 34.8 121.8-14.1 162.9-48.9 41.1-121.8 34.8-162.9-14.1-24.2-28.7-32.9-67.4-23.3-103.7L340.3 696.3c-48 42.6-121.4 38.2-164-9.8s-38.2-121.4 9.8-164c44-39 110.2-39 154.2 0L524.5 406c-16.3-61.9 20.7-125.4 82.6-141.7S732.6 285 748.9 347s-20.7 125.4-82.6 141.7c-36.5 9.6-75.4.9-104.3-23.5L376.3 582.7c2.1 8.8 3.1 17.7 3.1 26.8z"/></svg>