<svg xmlns="http://www.w3.org/2000/svg" viewBox="0 0 884.82 1200" class="cf-icon-svg"><path d="M855.05,186.49H539a31.15,31.15,0,0,0-20.54,49.9l66.24,85.89,9.45,12.25L442.41,450.78,290.64,334.55l9.45-12.25,66.24-85.89a31.15,31.15,0,0,0-20.54-49.9h-316C8.88,187.43-6,209.23,2.38,229.61L80.92,529.93a31.16,31.16,0,0,0,53.5,7.18l59-76.53,17.8-23.08L377.78,565l-.37,383.71a64.77,64.77,0,1,0,129.54,0l.37-383.93L673.58,437.49l17.8,23.08,59,76.53a31.16,31.16,0,0,0,53.5-7.18L882.44,229.6C890.83,209.23,875.94,187.43,855.05,186.49Z"/></svg>
