<svg xmlns="http://www.w3.org/2000/svg" viewBox="0 0 686.6 1200" class="cf-icon-svg"><path d="M410.7 614.6h-99.9v-99.9c0-16.6-13.4-30-30-30s-30 13.4-30 30v99.9h-99.9c-16.6 0-30 13.4-30 30s13.4 30 30 30h99.9v99.9c0 16.6 13.4 30 30 30s30-13.4 30-30v-99.9h99.9c16.6 0 30-13.4 30-30s-13.5-30-30-30z"/><path d="M656.9 260.9h-138L411.3 153.3H29.7C13.4 153.3 0 166.7 0 183v719.4c0 16.3 13.4 29.7 29.7 29.7H115v77.9c0 16.3 13.4 29.7 29.7 29.7h512.2c16.3 0 29.7-13.4 29.7-29.7V290.6c0-16.3-13.4-29.7-29.7-29.7zM60 213.3h308v110.8c0 17.5 14.3 31.8 31.8 31.8h111.8V872H60V213.3zm566.6 766.3H175V932h366.9c16.3 0 29.7-13.4 29.7-29.7V320.9h55v658.7z"/></svg>