<svg xmlns="http://www.w3.org/2000/svg" viewBox="0 0 1000 1200" class="cf-icon-svg"><circle cx="500" cy="896.6" r="25"/><path d="M318.7 375.6h362.6v459.5H318.7zM442.5 330.5h115.1c8.3 0 15-6.7 15-15s-6.7-15-15-15H442.5c-8.3 0-15 6.7-15 15s6.7 15 15 15z"/><path d="M500 105.2c-276.1 0-500 223.9-500 500s223.9 500 500 500 500-223.9 500-500-223.9-500-500-500zm231.3 795.5c-.1 31.7-25.8 57.4-57.5 57.5H326.1c-31.7-.1-57.4-25.8-57.5-57.5V309.9c.1-31.7 25.8-57.4 57.5-57.5h347.7c31.7.1 57.4 25.8 57.5 57.5v590.8z"/></svg>