<svg xmlns="http://www.w3.org/2000/svg" viewBox="0 0 1000 1200" class="cf-icon-svg"><path d="M500 105.2c-276.1 0-500 223.9-500 500s223.9 500 500 500 500-223.9 500-500-223.9-500-500-500zm311.1 811.2c-171.5 171-449.1 170.6-620-.9s-170.6-449.1.9-620 449.1-170.6 620 .9c125.8 126.2 162.8 316 93.4 480.2-22 52.2-54.1 99.7-94.3 139.8z"/><path d="M662.1 459.3L530.3 591.2V269.5c0-16.6-13.4-30-30-30s-30 13.4-30 30v396.4c0 .2 0 .5.1.7s.1.6.1.9 0 .4.1.5.1.6.2 1c0 .2 0 .3.1.5.1.3.1.6.2 1 0 .2.1.3.1.5s.2.6.2.9.1.3.1.5.2.6.3.8.1.4.2.6.2.5.3.7.2.4.3.7.2.4.3.6.2.5.3.7l.3.5c.1.3.3.5.4.8l.2.5c.2.3.3.6.5.8l.2.4c.2.3.4.6.5.8l.3.4c.2.3.4.5.6.8l.3.4c.2.2.4.5.6.7l.5.5.5.6.9.9.2.2.2.2c.3.3.6.6.9.8l.6.5.5.4.7.6.4.3.8.6.4.3.9.5.4.2.8.5.4.2.8.4.5.3.7.3.6.3.7.3.7.3.6.2.8.3.5.2.9.2.5.1.9.2.5.1.9.2.6.1.9.1.8.1h4.4l.8-.1.9-.1.6-.1.9-.2.5-.1.9-.2.5-.1.9-.2.5-.2.8-.3.6-.2.7-.3.7-.3.6-.3.7-.3.5-.3.8-.4.4-.2.8-.5.4-.2.8-.5.4-.3.8-.6.4-.3.7-.6.5-.4.6-.5c.3-.3.6-.6.9-.8l.2-.2 183.1-183.1c11.7-11.7 11.7-30.7 0-42.4s-30.6-11.7-42.3 0z"/></svg>