<svg xmlns="http://www.w3.org/2000/svg" viewBox="0 0 1000 1200" class="cf-icon-svg"><path d="M500 105.2c-276.1 0-500 223.9-500 500s223.9 500 500 500 500-223.9 500-500-223.9-500-500-500zm232.8 785.7c0 16.5-13.5 30-30 30H296.1c-16.5 0-30-13.5-30-30V568.3c0-16.5 13.5-30 30-30H320l-12.9-40c-28.6-88.8 20.4-184.3 109.2-212.9 89-28.6 184.3 20.3 212.9 109.3 5.9 18.4-4.2 38.1-22.6 44-18.4 5.9-38.1-4.2-44-22.6-17.2-52-73.4-80.2-125.4-63-51.4 17-79.6 72.1-63.5 123.7l19.8 61.4h309.4c16.5 0 30 13.5 30 30v322.7z"/><path d="M549.4 688.5c0-27.6-22.4-49.9-49.9-49.9s-49.9 22.4-49.9 49.9c0 19.8 11.7 37.8 29.9 45.7v82.6c0 11 9 20 20 20s20-9 20-20v-82.6c18.1-7.9 29.9-25.9 29.9-45.7z"/></svg>