<svg xmlns="http://www.w3.org/2000/svg" viewBox="0 0 1000 1200" class="cf-icon-svg"><path d="M612.8 506.9c-17.3-2-32.2-12.9-39.5-28.7L514.2 350l-13.8-29.8-13.8 29.8-59.1 128.2c-7.3 15.8-22.2 26.7-39.5 28.7L294.2 518l-79.1 9.4 24.1 22.3 34.4 31.8 69.3 64.1c12.7 11.8 18.5 29.4 15.1 46.4l-18.4 92.6v.1l-9.1 45.8-6.4 32.2 151.9-85c15.2-8.5 33.7-8.5 48.8 0l151.9 85-6.4-32.2L642.8 692c-3.4-17.1 2.3-34.6 15.1-46.5l69.2-64 .2-.2 58.4-54-79.1-9.4-93.8-11z"/><path d="M500 105.2c-276.1 0-500 223.9-500 500s223.9 500 500 500 500-223.9 500-500-223.9-500-500-500zm329.9 449.4l-68.7 63.5-69.3 64.1 27.5 138.5 9.1 45.9c7.2 36.3-5.3 57.3-29.4 57.3-9.8 0-21.5-3.5-34.6-10.8l-164.1-91.8-164.1 91.8c-13.1 7.3-24.8 10.8-34.6 10.8-24.1 0-36.6-21-29.4-57.3l9.1-45.9 9.1-45.9 18.4-92.6-69.3-64.1-34.4-31.8-34.4-31.8c-38.1-35.3-27.1-69.1 24.4-75.2l93-11 93.8-11.1L441.3 329l19.6-42.5c10.9-23.6 25.2-35.4 39.6-35.4s28.7 11.8 39.6 35.4l19.6 42.5 59.2 128.2 93.8 11.1 93 11c51.3 6.2 62.3 40.1 24.2 75.3z"/></svg>