<svg xmlns="http://www.w3.org/2000/svg" viewBox="0 0 748.8 1200" class="cf-icon-svg"><path d="M748.8 862.1c0 75.5-61.2 136.8-136.8 136.8H136.8C61.2 998.9 0 937.7 0 862.2v-110c0-75.5 61.1-136.8 136.7-136.8H612c75.5 0 136.8 61.2 136.8 136.8v109.9zM323.5 875c-3.4 3.9-7.3 7.3-11.7 10-4.3 2.7-7.8 4-10.5 4-3.6 0-6.1-.9-7.8-3s-2.3-5.2-2.3-9.6V730.9h-37.9v158.5c0 11.4 2.1 19.7 6.6 25.4 4.4 5.6 11 8.4 19.8 8.4 7.7-.1 15.3-2.2 22-6a82.7 82.7 0 0 0 21.8-17.7v20.8h37.9V730.9h-37.9V875zM105.6 701h44.2v219.4h42.7V700.9h44.1v-37.4h-131V701zM462 728.6c-6.1 0-12.2 1.6-17.6 4.5-6.2 3.4-11.7 7.9-16.2 13.2v-82.8H390v256.9h38.3v-14.5c4.4 5.4 9.9 9.8 16.2 12.9 6.2 2.8 13 4.2 19.8 4 11.2 0 19.8-3.5 25.7-10.7s8.9-17.5 8.9-30.9V776.1c0-15.5-3.1-27.3-9.5-35.4s-15.5-12.1-27.4-12.1zm-2.2 147.5c0 6.1-1.1 10.4-3.2 13s-5.6 4-10.2 4c-3.2 0-6.3-.7-9.1-2.1-3.4-1.6-6.4-3.9-9-6.6v-118c2.2-2.4 4.9-4.4 7.8-5.8 2.5-1.2 5.2-1.9 8-1.9 5.2 0 9.1 1.7 11.8 4.9s3.9 8.2 3.9 14.6v97.9zm116.4-149.8c-17 0-30.7 5.2-41.4 15.5s-16.2 23.8-16.2 40.1V867c0 18.3 5 32.6 14.7 43s23.1 15.7 40.1 15.7c18.8 0 32.9-4.9 42.5-14.7s14.2-24.5 14.2-44v-9.7h-38.9v8.6c0 11.2-1.3 18.4-3.7 21.6s-6.9 4.9-13.2 4.9c-6 0-10.3-1.9-12.8-5.7s-3.7-10.8-3.7-20.8v-35.6h72.4v-48.4c0-18-4.5-31.7-13.9-41.3s-22.7-14.3-40.1-14.3zm15 74.5h-33.4v-19.2c0-7.9 1.2-13.7 3.9-16.9 2.6-3.6 6.9-5.2 13-5.2 5.8 0 10.1 1.7 12.7 5.2 2.6 3.2 3.9 9 3.9 16.9l-.1 19.2zM464.8 340.7h42.5v160.1c0 5 1 8.5 2.8 10.7s4.7 3.4 8.7 3.4c3.1 0 7.1-1.5 11.9-4.4 4.9-3.1 9.3-6.9 13.1-11.4V340.7h42.7v208.7h-42.7v-23c-7.8 8.5-16 15-24.5 19.5s-16.7 6.6-24.7 6.6c-9.9 0-17.3-3.1-22.4-9.4s-7.4-15.4-7.4-28V340.7zm-110 173.2c-3.1-3.1-4.6-7.5-4.6-13.2V386.9c-.1-4.2 1.7-8.3 4.9-11.1 3.2-2.8 7.5-4.2 12.6-4.2 5.7 0 10.2 1.4 13.7 4.2 3.4 2.6 5.4 6.7 5.2 11.1v113.7c0 5.5-1.7 10-5.1 13.2-3.4 3.2-8 4.7-13.8 4.7-5.6.1-9.9-1.5-12.9-4.6zm-48.5-17.2c0 17.8 5.7 31.8 16.8 42.4 11.1 10.4 26.1 15.6 44.7 15.6 19.4 0 34.6-5 45.7-15.1s16.5-24.2 16.5-42.1V389.7c0-16-5.7-29-16.8-39.1s-25.7-15.2-43.4-15.2c-19.4 0-34.8 4.9-46.3 14.4s-17.2 22.6-17.2 38.6v108.3zM190.2 266.6l31.2 113h3l29.7-113h48.8L247 432.1v117.4h-48V437.3l-57.1-170.8h48.3z"/></svg>